<svg width="160" height="130" viewBox="0 0 160 130" fill="none" xmlns="http://www.w3.org/2000/svg">
<rect width="160" height="130" rx="10" fill="#12204D"/>
<path d="M10.62 29V15H13.6V20.7H14.8L19.28 15H22.58L17.1 21.62L22.78 29H19.28L14.8 22.9H13.6V29H10.62ZM28.8086 29.24C27.8486 29.24 26.9619 29.0467 26.1486 28.66C25.3486 28.26 24.7086 27.6533 24.2286 26.84C23.7486 26.0267 23.5086 25.0133 23.5086 23.8V23.4C23.5086 22.2533 23.7486 21.2933 24.2286 20.52C24.7086 19.7333 25.3486 19.1467 26.1486 18.76C26.9619 18.36 27.8486 18.16 28.8086 18.16C29.7819 18.16 30.6686 18.36 31.4686 18.76C32.2686 19.1467 32.9086 19.7333 33.3886 20.52C33.8686 21.2933 34.1086 22.2533 34.1086 23.4V23.8C34.1086 24.9867 33.8686 25.9867 33.3886 26.8C32.9086 27.6133 32.2686 28.2267 31.4686 28.64C30.6686 29.04 29.7819 29.24 28.8086 29.24ZM28.8086 27C29.3153 27 29.7619 26.8867 30.1486 26.66C30.5486 26.42 30.8619 26.06 31.0886 25.58C31.3153 25.1 31.4286 24.5067 31.4286 23.8V23.4C31.4286 22.7467 31.3153 22.2 31.0886 21.76C30.8619 21.32 30.5486 20.9867 30.1486 20.76C29.7619 20.52 29.3153 20.4 28.8086 20.4C28.3019 20.4 27.8486 20.52 27.4486 20.76C27.0619 20.9867 26.7553 21.32 26.5286 21.76C26.3019 22.2 26.1886 22.7467 26.1886 23.4V23.8C26.1886 24.52 26.3019 25.12 26.5286 25.6C26.7553 26.0667 27.0619 26.42 27.4486 26.66C27.8486 26.8867 28.3019 27 28.8086 27ZM36.0208 29V18.4H38.6408V22.5H43.1608V18.4H45.7808V29H43.1608V24.7H38.6408V29H36.0208ZM50.7878 29V20.6H47.4078V18.4H56.7878V20.6H53.4278V29H50.7878ZM61.1534 29.24C60.3934 29.24 59.7468 29.1 59.2134 28.82C58.6801 28.5267 58.2734 28.1267 57.9934 27.62C57.7134 27.1133 57.5734 26.54 57.5734 25.9C57.5734 24.8333 57.8868 24.0333 58.5134 23.5C59.1534 22.9667 60.1068 22.7 61.3734 22.7H64.5334V22.2C64.5334 21.5067 64.3734 21.02 64.0534 20.74C63.7468 20.46 63.2534 20.32 62.5734 20.32C61.9734 20.32 61.5401 20.4267 61.2734 20.64C61.0068 20.84 60.8534 21.0933 60.8134 21.4H58.1734C58.2134 20.7867 58.4068 20.24 58.7534 19.76C59.1134 19.2667 59.6201 18.88 60.2734 18.6C60.9401 18.3067 61.7401 18.16 62.6734 18.16C63.5801 18.16 64.3668 18.2933 65.0334 18.56C65.7134 18.8267 66.2401 19.26 66.6134 19.86C66.9868 20.4467 67.1734 21.24 67.1734 22.24V26.3C67.1734 26.86 67.1801 27.3533 67.1934 27.78C67.2201 28.1933 67.2601 28.6 67.3134 29H64.8534C64.8001 28.7067 64.7668 28.4867 64.7534 28.34C64.7534 28.18 64.7534 27.9467 64.7534 27.64C64.4734 28.0667 64.0334 28.44 63.4334 28.76C62.8334 29.08 62.0734 29.24 61.1534 29.24ZM61.9734 27.2C62.4001 27.2 62.8068 27.1267 63.1934 26.98C63.5934 26.82 63.9134 26.58 64.1534 26.26C64.4068 25.9267 64.5334 25.5067 64.5334 25V24.5H61.8734C61.3668 24.5 60.9668 24.62 60.6734 24.86C60.3934 25.0867 60.2534 25.4 60.2534 25.8C60.2534 26.2267 60.4001 26.5667 60.6934 26.82C60.9868 27.0733 61.4134 27.2 61.9734 27.2ZM69.4973 29V18.4H72.1173V22.56H73.0973L76.3773 18.4H79.2773L75.2773 23.42L79.4773 29H76.3173L73.0973 24.64H72.1173V29H69.4973ZM83.5613 29V20.6H80.1813V18.4H89.5613V20.6H86.2013V29H83.5613ZM91.177 29V18.4H93.797V21.96H95.657C97.0304 21.96 98.0504 22.2533 98.717 22.84C99.397 23.4267 99.737 24.3067 99.737 25.48C99.737 26.1733 99.597 26.7867 99.317 27.32C99.037 27.84 98.597 28.2533 97.997 28.56C97.4104 28.8533 96.6304 29 95.657 29H91.177ZM93.797 26.88H95.357C95.997 26.88 96.4504 26.76 96.717 26.52C96.9837 26.28 97.117 25.9333 97.117 25.48C97.117 25.0133 96.977 24.66 96.697 24.42C96.4304 24.18 95.9837 24.06 95.357 24.06H93.797V26.88ZM100.937 29V18.4H103.557V29H100.937Z" fill="white"/>
<path d="M11.156 49V41.584H8.24V40.6H15.2V41.584H12.284V49H11.156ZM17.9633 49.12C17.4273 49.12 16.9233 49.004 16.4513 48.772C15.9873 48.54 15.6113 48.184 15.3233 47.704C15.0433 47.224 14.9033 46.616 14.9033 45.88V45.64C14.9033 44.936 15.0393 44.356 15.3113 43.9C15.5833 43.436 15.9433 43.092 16.3913 42.868C16.8393 42.636 17.3233 42.52 17.8433 42.52C18.7793 42.52 19.5033 42.776 20.0153 43.288C20.5273 43.8 20.7833 44.524 20.7833 45.46V46.132H15.9593C15.9593 46.628 16.0593 47.024 16.2593 47.32C16.4673 47.616 16.7233 47.832 17.0273 47.968C17.3393 48.096 17.6513 48.16 17.9633 48.16C18.4433 48.16 18.8113 48.08 19.0673 47.92C19.3313 47.76 19.5193 47.54 19.6313 47.26H20.6633C20.5353 47.868 20.2193 48.332 19.7153 48.652C19.2193 48.964 18.6353 49.12 17.9633 49.12ZM17.9033 43.48C17.5753 43.48 17.2633 43.544 16.9673 43.672C16.6713 43.792 16.4273 43.984 16.2353 44.248C16.0513 44.512 15.9593 44.852 15.9593 45.268H19.7873C19.7793 44.828 19.6873 44.48 19.5113 44.224C19.3433 43.96 19.1193 43.772 18.8393 43.66C18.5593 43.54 18.2473 43.48 17.9033 43.48ZM21.867 49.12C21.811 49.12 21.751 49.116 21.687 49.108C21.631 49.1 21.571 49.092 21.507 49.084V48.028C21.531 48.036 21.591 48.04 21.687 48.04C21.927 48.04 22.123 47.936 22.275 47.728C22.427 47.512 22.535 47.136 22.599 46.6C22.671 46.056 22.707 45.296 22.707 44.32V42.64H27.267V49H26.211V43.576H23.763V44.56C23.763 45.448 23.723 46.188 23.643 46.78C23.563 47.364 23.443 47.828 23.283 48.172C23.131 48.516 22.935 48.76 22.695 48.904C22.455 49.048 22.179 49.12 21.867 49.12ZM31.8266 49.12C31.2906 49.12 30.7866 49.004 30.3146 48.772C29.8506 48.54 29.4746 48.184 29.1866 47.704C28.9066 47.224 28.7666 46.616 28.7666 45.88V45.64C28.7666 44.936 28.9026 44.356 29.1746 43.9C29.4466 43.436 29.8066 43.092 30.2546 42.868C30.7026 42.636 31.1866 42.52 31.7066 42.52C32.6426 42.52 33.3666 42.776 33.8786 43.288C34.3906 43.8 34.6466 44.524 34.6466 45.46V46.132H29.8226C29.8226 46.628 29.9226 47.024 30.1226 47.32C30.3306 47.616 30.5866 47.832 30.8906 47.968C31.2026 48.096 31.5146 48.16 31.8266 48.16C32.3066 48.16 32.6746 48.08 32.9306 47.92C33.1946 47.76 33.3826 47.54 33.4946 47.26H34.5266C34.3986 47.868 34.0826 48.332 33.5786 48.652C33.0826 48.964 32.4986 49.12 31.8266 49.12ZM31.7666 43.48C31.4386 43.48 31.1266 43.544 30.8306 43.672C30.5346 43.792 30.2906 43.984 30.0986 44.248C29.9146 44.512 29.8226 44.852 29.8226 45.268H33.6506C33.6426 44.828 33.5506 44.48 33.3746 44.224C33.2066 43.96 32.9826 43.772 32.7026 43.66C32.4226 43.54 32.1106 43.48 31.7666 43.48ZM39.0995 51.4V49.12C37.9955 49.12 37.1555 48.84 36.5795 48.28C36.0115 47.72 35.7275 46.924 35.7275 45.892V45.652C35.7275 44.668 36.0115 43.9 36.5795 43.348C37.1555 42.796 37.9955 42.52 39.0995 42.52V40.6H40.1555V42.52C41.2595 42.52 42.0955 42.796 42.6635 43.348C43.2395 43.9 43.5275 44.668 43.5275 45.652V45.892C43.5275 46.924 43.2395 47.72 42.6635 48.28C42.0955 48.84 41.2595 49.12 40.1555 49.12V51.4H39.0995ZM42.4475 45.892V45.652C42.4475 44.924 42.2595 44.38 41.8835 44.02C41.5155 43.66 40.9355 43.48 40.1435 43.48V48.16C40.9355 48.16 41.5155 47.976 41.8835 47.608C42.2595 47.24 42.4475 46.668 42.4475 45.892ZM36.8075 45.652V45.892C36.8075 46.668 36.9915 47.24 37.3595 47.608C37.7355 47.976 38.3195 48.16 39.1115 48.16V43.48C38.3195 43.48 37.7355 43.66 37.3595 44.02C36.9915 44.38 36.8075 44.924 36.8075 45.652ZM47.6703 49.12C47.1343 49.12 46.6303 49.004 46.1583 48.772C45.6943 48.532 45.3183 48.172 45.0303 47.692C44.7503 47.212 44.6103 46.608 44.6103 45.88V45.64C44.6103 44.952 44.7503 44.376 45.0303 43.912C45.3183 43.448 45.6943 43.1 46.1583 42.868C46.6303 42.636 47.1343 42.52 47.6703 42.52C48.2143 42.52 48.7183 42.636 49.1823 42.868C49.6463 43.1 50.0183 43.448 50.2983 43.912C50.5863 44.376 50.7303 44.952 50.7303 45.64V45.88C50.7303 46.608 50.5863 47.212 50.2983 47.692C50.0183 48.172 49.6463 48.532 49.1823 48.772C48.7183 49.004 48.2143 49.12 47.6703 49.12ZM47.6703 48.16C47.9983 48.16 48.3103 48.088 48.6063 47.944C48.9103 47.792 49.1583 47.548 49.3503 47.212C49.5503 46.876 49.6503 46.432 49.6503 45.88V45.64C49.6503 45.128 49.5503 44.716 49.3503 44.404C49.1583 44.084 48.9103 43.852 48.6063 43.708C48.3103 43.556 47.9983 43.48 47.6703 43.48C47.3503 43.48 47.0383 43.556 46.7343 43.708C46.4303 43.852 46.1783 44.084 45.9783 44.404C45.7863 44.716 45.6903 45.128 45.6903 45.64V45.88C45.6903 46.432 45.7863 46.876 45.9783 47.212C46.1783 47.548 46.4303 47.792 46.7343 47.944C47.0383 48.088 47.3503 48.16 47.6703 48.16ZM52.2256 49V42.64H53.2816V45.292H56.5696V42.64H57.6256V49H56.5696V46.228H53.2816V49H52.2256ZM59.5498 49V42.64H60.6058V45.04H61.8898C62.6898 45.04 63.2778 45.216 63.6538 45.568C64.0378 45.92 64.2298 46.408 64.2298 47.032C64.2298 47.432 64.1458 47.78 63.9778 48.076C63.8098 48.372 63.5538 48.6 63.2098 48.76C62.8658 48.92 62.4258 49 61.8898 49H59.5498ZM60.6058 48.064H61.8298C62.3258 48.064 62.6738 47.976 62.8738 47.8C63.0738 47.624 63.1738 47.364 63.1738 47.02C63.1738 46.676 63.0738 46.416 62.8738 46.24C62.6738 46.064 62.3258 45.976 61.8298 45.976H60.6058V48.064ZM65.2138 49V42.64H66.2698V49H65.2138ZM89.0186 49V42.64H94.2986V49H93.2426V43.576H90.0746V49H89.0186ZM96.2139 51.4V42.64H97.1979V43.84C97.4139 43.416 97.7139 43.092 98.0979 42.868C98.4899 42.636 98.9419 42.52 99.4539 42.52C100.254 42.52 100.894 42.784 101.374 43.312C101.854 43.832 102.094 44.608 102.094 45.64V45.88C102.094 46.6 101.982 47.2 101.758 47.68C101.542 48.16 101.234 48.52 100.834 48.76C100.442 49 99.9819 49.12 99.4539 49.12C98.9099 49.12 98.4539 49 98.0859 48.76C97.7259 48.52 97.4539 48.22 97.2699 47.86V51.4H96.2139ZM99.2139 48.184C99.7339 48.184 100.166 47.988 100.51 47.596C100.862 47.204 101.038 46.632 101.038 45.88V45.64C101.038 44.944 100.862 44.408 100.51 44.032C100.166 43.648 99.7339 43.456 99.2139 43.456C98.8299 43.456 98.4899 43.536 98.1939 43.696C97.9059 43.856 97.6779 44.076 97.5099 44.356C97.3499 44.628 97.2699 44.936 97.2699 45.28V46.24C97.2699 46.624 97.3499 46.964 97.5099 47.26C97.6779 47.548 97.9059 47.776 98.1939 47.944C98.4899 48.104 98.8299 48.184 99.2139 48.184ZM103.597 49V42.64H104.653V47.44L107.941 42.64H108.997V49H107.941V44.2L104.653 49H103.597ZM113.561 49.12C113.025 49.12 112.521 49.004 112.049 48.772C111.585 48.54 111.209 48.184 110.921 47.704C110.641 47.224 110.501 46.616 110.501 45.88V45.64C110.501 44.936 110.637 44.356 110.909 43.9C111.181 43.436 111.541 43.092 111.989 42.868C112.437 42.636 112.921 42.52 113.441 42.52C114.377 42.52 115.101 42.776 115.613 43.288C116.125 43.8 116.381 44.524 116.381 45.46V46.132H111.557C111.557 46.628 111.657 47.024 111.857 47.32C112.065 47.616 112.321 47.832 112.625 47.968C112.937 48.096 113.249 48.16 113.561 48.16C114.041 48.16 114.409 48.08 114.665 47.92C114.929 47.76 115.117 47.54 115.229 47.26H116.261C116.133 47.868 115.817 48.332 115.313 48.652C114.817 48.964 114.233 49.12 113.561 49.12ZM113.501 43.48C113.173 43.48 112.861 43.544 112.565 43.672C112.269 43.792 112.025 43.984 111.833 44.248C111.649 44.512 111.557 44.852 111.557 45.268H115.385C115.377 44.828 115.285 44.48 115.109 44.224C114.941 43.96 114.717 43.772 114.437 43.66C114.157 43.54 113.845 43.48 113.501 43.48ZM117.882 49V42.64H119.01L121.278 46.6L123.546 42.64H124.602V49H123.546V44.38L121.662 47.62H120.822L118.938 44.38V49H117.882ZM126.519 49V42.64H127.575V45.292H130.863V42.64H131.919V49H130.863V46.228H127.575V49H126.519ZM136.483 49.12C135.947 49.12 135.443 49.004 134.971 48.772C134.507 48.532 134.131 48.172 133.843 47.692C133.563 47.212 133.423 46.608 133.423 45.88V45.64C133.423 44.952 133.563 44.376 133.843 43.912C134.131 43.448 134.507 43.1 134.971 42.868C135.443 42.636 135.947 42.52 136.483 42.52C137.027 42.52 137.531 42.636 137.995 42.868C138.459 43.1 138.831 43.448 139.111 43.912C139.399 44.376 139.543 44.952 139.543 45.64V45.88C139.543 46.608 139.399 47.212 139.111 47.692C138.831 48.172 138.459 48.532 137.995 48.772C137.531 49.004 137.027 49.12 136.483 49.12ZM136.483 48.16C136.811 48.16 137.123 48.088 137.419 47.944C137.723 47.792 137.971 47.548 138.163 47.212C138.363 46.876 138.463 46.432 138.463 45.88V45.64C138.463 45.128 138.363 44.716 138.163 44.404C137.971 44.084 137.723 43.852 137.419 43.708C137.123 43.556 136.811 43.48 136.483 43.48C136.163 43.48 135.851 43.556 135.547 43.708C135.243 43.852 134.991 44.084 134.791 44.404C134.599 44.716 134.503 45.128 134.503 45.64V45.88C134.503 46.432 134.599 46.876 134.791 47.212C134.991 47.548 135.243 47.792 135.547 47.944C135.851 48.088 136.163 48.16 136.483 48.16ZM141.038 49V42.64H142.094V47.44L145.382 42.64H146.438V49H145.382V44.2L142.094 49H141.038ZM143.738 41.86C143.114 41.86 142.658 41.728 142.37 41.464C142.082 41.192 141.938 40.804 141.938 40.3H142.97C142.97 40.572 143.034 40.776 143.162 40.912C143.29 41.048 143.482 41.116 143.738 41.116C144.002 41.116 144.198 41.048 144.326 40.912C144.462 40.776 144.53 40.572 144.53 40.3H145.538C145.538 40.804 145.394 41.192 145.106 41.464C144.818 41.728 144.362 41.86 143.738 41.86ZM148.062 50.8L148.542 49V47.68H149.862V49L148.662 50.8H148.062ZM8.96 63V56.64H10.016V59.304H10.856L13.232 56.64H14.48L11.72 59.688L14.6 63H13.256L10.856 60.216H10.016V63H8.96ZM17.5572 63.12C17.0932 63.12 16.6972 63.036 16.3692 62.868C16.0492 62.692 15.8052 62.456 15.6372 62.16C15.4692 61.856 15.3852 61.516 15.3852 61.14C15.3852 60.508 15.5692 60.052 15.9372 59.772C16.3132 59.492 16.8492 59.352 17.5452 59.352H19.6092V58.92C19.6092 58.376 19.4852 58 19.2372 57.792C18.9972 57.584 18.6332 57.48 18.1452 57.48C17.6892 57.48 17.3572 57.568 17.1492 57.744C16.9412 57.912 16.8252 58.104 16.8012 58.32H15.7452C15.7692 57.976 15.8852 57.672 16.0932 57.408C16.3012 57.136 16.5852 56.92 16.9452 56.76C17.3052 56.6 17.7252 56.52 18.2052 56.52C18.7092 56.52 19.1452 56.6 19.5132 56.76C19.8812 56.912 20.1652 57.156 20.3652 57.492C20.5652 57.82 20.6652 58.256 20.6652 58.8V61.38C20.6652 61.716 20.6652 62.012 20.6652 62.268C20.6732 62.516 20.6932 62.76 20.7252 63H19.8012C19.7772 62.816 19.7612 62.644 19.7532 62.484C19.7452 62.316 19.7412 62.128 19.7412 61.92C19.5732 62.256 19.3012 62.54 18.9252 62.772C18.5492 63.004 18.0932 63.12 17.5572 63.12ZM17.7852 62.16C18.1212 62.16 18.4252 62.1 18.6972 61.98C18.9772 61.86 19.1972 61.684 19.3572 61.452C19.5252 61.22 19.6092 60.936 19.6092 60.6V60.168H17.7252C17.3332 60.168 17.0252 60.248 16.8012 60.408C16.5772 60.56 16.4652 60.804 16.4652 61.14C16.4652 61.436 16.5692 61.68 16.7772 61.872C16.9932 62.064 17.3292 62.16 17.7852 62.16ZM22.5303 63V56.64H23.5863V59.292H26.8743V56.64H27.9303V63H26.8743V60.228H23.5863V63H22.5303ZM35.0265 64.5V63H29.8545V56.64H30.9105V62.064H33.9585V56.64H35.0145V62.064H36.0345V64.5H35.0265ZM39.9359 63.12C39.3999 63.12 38.8959 63.004 38.4239 62.772C37.9599 62.54 37.5839 62.184 37.2959 61.704C37.0159 61.224 36.8759 60.616 36.8759 59.88V59.64C36.8759 58.936 37.0119 58.356 37.2839 57.9C37.5559 57.436 37.9159 57.092 38.3639 56.868C38.8119 56.636 39.2959 56.52 39.8159 56.52C40.7519 56.52 41.4759 56.776 41.9879 57.288C42.4999 57.8 42.7559 58.524 42.7559 59.46V60.132H37.9319C37.9319 60.628 38.0319 61.024 38.2319 61.32C38.4399 61.616 38.6959 61.832 38.9999 61.968C39.3119 62.096 39.6239 62.16 39.9359 62.16C40.4159 62.16 40.7839 62.08 41.0399 61.92C41.3039 61.76 41.4919 61.54 41.6039 61.26H42.6359C42.5079 61.868 42.1919 62.332 41.6879 62.652C41.1919 62.964 40.6079 63.12 39.9359 63.12ZM39.8759 57.48C39.5479 57.48 39.2359 57.544 38.9399 57.672C38.6439 57.792 38.3999 57.984 38.2079 58.248C38.0239 58.512 37.9319 58.852 37.9319 59.268H41.7599C41.7519 58.828 41.6599 58.48 41.4839 58.224C41.3159 57.96 41.0919 57.772 40.8119 57.66C40.5319 57.54 40.2199 57.48 39.8759 57.48ZM43.8397 63.12C43.7837 63.12 43.7237 63.116 43.6597 63.108C43.6037 63.1 43.5437 63.092 43.4797 63.084V62.028C43.5037 62.036 43.5637 62.04 43.6597 62.04C43.8997 62.04 44.0957 61.936 44.2477 61.728C44.3997 61.512 44.5077 61.136 44.5717 60.6C44.6437 60.056 44.6797 59.296 44.6797 58.32V56.64H49.2397V63H48.1837V57.576H45.7357V58.56C45.7357 59.448 45.6957 60.188 45.6157 60.78C45.5357 61.364 45.4157 61.828 45.2557 62.172C45.1037 62.516 44.9077 62.76 44.6677 62.904C44.4277 63.048 44.1517 63.12 43.8397 63.12ZM50.6792 63L52.4072 60.48C51.8792 60.36 51.4992 60.144 51.2672 59.832C51.0352 59.512 50.9192 59.104 50.9192 58.608C50.9192 58.192 51.0032 57.84 51.1712 57.552C51.3392 57.256 51.5992 57.032 51.9512 56.88C52.3032 56.72 52.7592 56.64 53.3192 56.64H56.0792V63H55.0232V60.576H53.4032L51.8552 63H50.6792ZM51.9752 58.608C51.9752 58.944 52.0712 59.2 52.2632 59.376C52.4632 59.552 52.7952 59.64 53.2592 59.64H55.0232V57.576H53.2592C52.7952 57.576 52.4632 57.664 52.2632 57.84C52.0712 58.016 51.9752 58.272 51.9752 58.608ZM58.003 65.4V56.64H58.987V57.84C59.203 57.416 59.503 57.092 59.887 56.868C60.279 56.636 60.731 56.52 61.243 56.52C62.043 56.52 62.683 56.784 63.163 57.312C63.643 57.832 63.883 58.608 63.883 59.64V59.88C63.883 60.6 63.771 61.2 63.547 61.68C63.331 62.16 63.023 62.52 62.623 62.76C62.231 63 61.771 63.12 61.243 63.12C60.699 63.12 60.243 63 59.875 62.76C59.515 62.52 59.243 62.22 59.059 61.86V65.4H58.003ZM61.003 62.184C61.523 62.184 61.955 61.988 62.299 61.596C62.651 61.204 62.827 60.632 62.827 59.88V59.64C62.827 58.944 62.651 58.408 62.299 58.032C61.955 57.648 61.523 57.456 61.003 57.456C60.619 57.456 60.279 57.536 59.983 57.696C59.695 57.856 59.467 58.076 59.299 58.356C59.139 58.628 59.059 58.936 59.059 59.28V60.24C59.059 60.624 59.139 60.964 59.299 61.26C59.467 61.548 59.695 61.776 59.983 61.944C60.279 62.104 60.619 62.184 61.003 62.184ZM65.3858 63V56.64H66.4418V61.44L69.7298 56.64H70.7858V63H69.7298V58.2L66.4418 63H65.3858ZM72.71 63V56.64H73.766V61.44L77.054 56.64H78.11V63H77.054V58.2L73.766 63H72.71ZM144.636 63V56.64H145.692V61.44L148.98 56.64H150.036V63H148.98V58.2L145.692 63H144.636ZM11.42 77.12C10.876 77.12 10.384 77.004 9.944 76.772C9.512 76.532 9.168 76.172 8.912 75.692C8.664 75.212 8.54 74.608 8.54 73.88V73.64C8.54 72.952 8.676 72.376 8.948 71.912C9.22 71.448 9.576 71.1 10.016 70.868C10.456 70.636 10.924 70.52 11.42 70.52C11.924 70.52 12.356 70.612 12.716 70.796C13.084 70.972 13.38 71.216 13.604 71.528C13.828 71.832 13.98 72.176 14.06 72.56H12.98C12.852 72.256 12.672 72 12.44 71.792C12.216 71.584 11.876 71.48 11.42 71.48C11.108 71.48 10.816 71.556 10.544 71.708C10.272 71.852 10.048 72.084 9.872 72.404C9.704 72.716 9.62 73.128 9.62 73.64V73.88C9.62 74.424 9.704 74.864 9.872 75.2C10.048 75.536 10.272 75.78 10.544 75.932C10.816 76.084 11.108 76.16 11.42 76.16C11.812 76.16 12.14 76.064 12.404 75.872C12.676 75.68 12.868 75.416 12.98 75.08H14.06C13.964 75.496 13.792 75.86 13.544 76.172C13.296 76.476 12.992 76.712 12.632 76.88C12.272 77.04 11.868 77.12 11.42 77.12ZM15.4991 77V70.64H20.7791V77H19.7231V71.576H16.5551V77H15.4991ZM22.6944 79.4V70.64H23.6784V71.84C23.8944 71.416 24.1944 71.092 24.5784 70.868C24.9704 70.636 25.4224 70.52 25.9344 70.52C26.7344 70.52 27.3744 70.784 27.8544 71.312C28.3344 71.832 28.5744 72.608 28.5744 73.64V73.88C28.5744 74.6 28.4624 75.2 28.2384 75.68C28.0224 76.16 27.7144 76.52 27.3144 76.76C26.9224 77 26.4624 77.12 25.9344 77.12C25.3904 77.12 24.9344 77 24.5664 76.76C24.2064 76.52 23.9344 76.22 23.7504 75.86V79.4H22.6944ZM25.6944 76.184C26.2144 76.184 26.6464 75.988 26.9904 75.596C27.3424 75.204 27.5184 74.632 27.5184 73.88V73.64C27.5184 72.944 27.3424 72.408 26.9904 72.032C26.6464 71.648 26.2144 71.456 25.6944 71.456C25.3104 71.456 24.9704 71.536 24.6744 71.696C24.3864 71.856 24.1584 72.076 23.9904 72.356C23.8304 72.628 23.7504 72.936 23.7504 73.28V74.24C23.7504 74.624 23.8304 74.964 23.9904 75.26C24.1584 75.548 24.3864 75.776 24.6744 75.944C24.9704 76.104 25.3104 76.184 25.6944 76.184ZM31.8892 77.12C31.4252 77.12 31.0292 77.036 30.7012 76.868C30.3812 76.692 30.1372 76.456 29.9692 76.16C29.8012 75.856 29.7172 75.516 29.7172 75.14C29.7172 74.508 29.9012 74.052 30.2692 73.772C30.6452 73.492 31.1812 73.352 31.8772 73.352H33.9412V72.92C33.9412 72.376 33.8172 72 33.5692 71.792C33.3292 71.584 32.9652 71.48 32.4772 71.48C32.0212 71.48 31.6892 71.568 31.4812 71.744C31.2732 71.912 31.1572 72.104 31.1332 72.32H30.0772C30.1012 71.976 30.2172 71.672 30.4252 71.408C30.6332 71.136 30.9172 70.92 31.2772 70.76C31.6372 70.6 32.0572 70.52 32.5372 70.52C33.0412 70.52 33.4772 70.6 33.8452 70.76C34.2132 70.912 34.4972 71.156 34.6972 71.492C34.8972 71.82 34.9972 72.256 34.9972 72.8V75.38C34.9972 75.716 34.9972 76.012 34.9972 76.268C35.0052 76.516 35.0252 76.76 35.0572 77H34.1332C34.1092 76.816 34.0932 76.644 34.0852 76.484C34.0772 76.316 34.0732 76.128 34.0732 75.92C33.9052 76.256 33.6332 76.54 33.2572 76.772C32.8812 77.004 32.4252 77.12 31.8892 77.12ZM32.1172 76.16C32.4532 76.16 32.7572 76.1 33.0292 75.98C33.3092 75.86 33.5292 75.684 33.6892 75.452C33.8572 75.22 33.9412 74.936 33.9412 74.6V74.168H32.0572C31.6652 74.168 31.3572 74.248 31.1332 74.408C30.9092 74.56 30.7972 74.804 30.7972 75.14C30.7972 75.436 30.9012 75.68 31.1092 75.872C31.3252 76.064 31.6612 76.16 32.1172 76.16ZM36.8623 77V70.64H39.6223C40.1503 70.64 40.5823 70.716 40.9183 70.868C41.2543 71.012 41.5023 71.216 41.6623 71.48C41.8223 71.736 41.9023 72.036 41.9023 72.38C41.9023 72.66 41.8103 72.928 41.6263 73.184C41.4503 73.432 41.2223 73.604 40.9423 73.7C41.3343 73.796 41.6303 73.98 41.8303 74.252C42.0383 74.516 42.1423 74.828 42.1423 75.188C42.1423 75.74 41.9583 76.18 41.5903 76.508C41.2223 76.836 40.6463 77 39.8623 77H36.8623ZM37.9183 76.064H39.8623C40.3103 76.064 40.6263 75.984 40.8103 75.824C40.9943 75.664 41.0863 75.436 41.0863 75.14C41.0863 74.836 40.9943 74.604 40.8103 74.444C40.6263 74.276 40.3103 74.192 39.8623 74.192H37.9183V76.064ZM37.9183 73.328H39.6223C40.0783 73.328 40.3943 73.248 40.5703 73.088C40.7543 72.928 40.8463 72.708 40.8463 72.428C40.8463 72.164 40.7543 71.956 40.5703 71.804C40.3943 71.652 40.0783 71.576 39.6223 71.576H37.9183V73.328ZM46.2875 77.12C45.7515 77.12 45.2475 77.004 44.7755 76.772C44.3115 76.532 43.9355 76.172 43.6475 75.692C43.3675 75.212 43.2275 74.608 43.2275 73.88V73.64C43.2275 72.952 43.3675 72.376 43.6475 71.912C43.9355 71.448 44.3115 71.1 44.7755 70.868C45.2475 70.636 45.7515 70.52 46.2875 70.52C46.8315 70.52 47.3355 70.636 47.7995 70.868C48.2635 71.1 48.6355 71.448 48.9155 71.912C49.2035 72.376 49.3475 72.952 49.3475 73.64V73.88C49.3475 74.608 49.2035 75.212 48.9155 75.692C48.6355 76.172 48.2635 76.532 47.7995 76.772C47.3355 77.004 46.8315 77.12 46.2875 77.12ZM46.2875 76.16C46.6155 76.16 46.9275 76.088 47.2235 75.944C47.5275 75.792 47.7755 75.548 47.9675 75.212C48.1675 74.876 48.2675 74.432 48.2675 73.88V73.64C48.2675 73.128 48.1675 72.716 47.9675 72.404C47.7755 72.084 47.5275 71.852 47.2235 71.708C46.9275 71.556 46.6155 71.48 46.2875 71.48C45.9675 71.48 45.6555 71.556 45.3515 71.708C45.0475 71.852 44.7955 72.084 44.5955 72.404C44.4035 72.716 44.3075 73.128 44.3075 73.64V73.88C44.3075 74.432 44.4035 74.876 44.5955 75.212C44.7955 75.548 45.0475 75.792 45.3515 75.944C45.6555 76.088 45.9675 76.16 46.2875 76.16ZM54.5268 77V74.468C54.3428 74.58 54.1188 74.68 53.8548 74.768C53.5988 74.856 53.2748 74.9 52.8828 74.9C52.1388 74.9 51.5628 74.732 51.1548 74.396C50.7468 74.06 50.5428 73.488 50.5428 72.68V70.64H51.5988V72.5C51.5988 73.044 51.7108 73.42 51.9348 73.628C52.1588 73.836 52.5348 73.94 53.0628 73.94C53.4228 73.94 53.7308 73.904 53.9868 73.832C54.2428 73.76 54.4228 73.684 54.5268 73.604V70.64H55.5828V77H54.5268ZM57.4991 77V70.64H58.5551V73.292H61.8431V70.64H62.8991V77H61.8431V74.228H58.5551V77H57.4991ZM67.4633 77.12C66.9273 77.12 66.4233 77.004 65.9513 76.772C65.4873 76.532 65.1113 76.172 64.8233 75.692C64.5433 75.212 64.4033 74.608 64.4033 73.88V73.64C64.4033 72.952 64.5433 72.376 64.8233 71.912C65.1113 71.448 65.4873 71.1 65.9513 70.868C66.4233 70.636 66.9273 70.52 67.4633 70.52C68.0073 70.52 68.5113 70.636 68.9753 70.868C69.4393 71.1 69.8113 71.448 70.0913 71.912C70.3793 72.376 70.5233 72.952 70.5233 73.64V73.88C70.5233 74.608 70.3793 75.212 70.0913 75.692C69.8113 76.172 69.4393 76.532 68.9753 76.772C68.5113 77.004 68.0073 77.12 67.4633 77.12ZM67.4633 76.16C67.7913 76.16 68.1033 76.088 68.3993 75.944C68.7033 75.792 68.9513 75.548 69.1433 75.212C69.3433 74.876 69.4433 74.432 69.4433 73.88V73.64C69.4433 73.128 69.3433 72.716 69.1433 72.404C68.9513 72.084 68.7033 71.852 68.3993 71.708C68.1033 71.556 67.7913 71.48 67.4633 71.48C67.1433 71.48 66.8313 71.556 66.5273 71.708C66.2233 71.852 65.9713 72.084 65.7713 72.404C65.5793 72.716 65.4833 73.128 65.4833 73.64V73.88C65.4833 74.432 65.5793 74.876 65.7713 75.212C65.9713 75.548 66.2233 75.792 66.5273 75.944C66.8313 76.088 67.1433 76.16 67.4633 76.16ZM72.0186 77V70.64H73.0746V75.44L76.3626 70.64H77.4186V77H76.3626V72.2L73.0746 77H72.0186ZM74.7186 69.86C74.0946 69.86 73.6386 69.728 73.3506 69.464C73.0626 69.192 72.9186 68.804 72.9186 68.3H73.9506C73.9506 68.572 74.0146 68.776 74.1426 68.912C74.2706 69.048 74.4626 69.116 74.7186 69.116C74.9826 69.116 75.1786 69.048 75.3066 68.912C75.4426 68.776 75.5106 68.572 75.5106 68.3H76.5186C76.5186 68.804 76.3746 69.192 76.0866 69.464C75.7986 69.728 75.3426 69.86 74.7186 69.86ZM105.049 77.12C104.505 77.12 104.013 77.004 103.573 76.772C103.141 76.532 102.797 76.172 102.541 75.692C102.293 75.212 102.169 74.608 102.169 73.88V73.64C102.169 72.952 102.305 72.376 102.577 71.912C102.849 71.448 103.205 71.1 103.645 70.868C104.085 70.636 104.553 70.52 105.049 70.52C105.553 70.52 105.985 70.612 106.345 70.796C106.713 70.972 107.009 71.216 107.233 71.528C107.457 71.832 107.609 72.176 107.689 72.56H106.609C106.481 72.256 106.301 72 106.069 71.792C105.845 71.584 105.505 71.48 105.049 71.48C104.737 71.48 104.445 71.556 104.173 71.708C103.901 71.852 103.677 72.084 103.501 72.404C103.333 72.716 103.249 73.128 103.249 73.64V73.88C103.249 74.424 103.333 74.864 103.501 75.2C103.677 75.536 103.901 75.78 104.173 75.932C104.445 76.084 104.737 76.16 105.049 76.16C105.441 76.16 105.769 76.064 106.033 75.872C106.305 75.68 106.497 75.416 106.609 75.08H107.689C107.593 75.496 107.421 75.86 107.173 76.172C106.925 76.476 106.621 76.712 106.261 76.88C105.901 77.04 105.497 77.12 105.049 77.12ZM108.828 77.12C108.772 77.12 108.712 77.116 108.648 77.108C108.592 77.1 108.532 77.092 108.468 77.084V76.028C108.492 76.036 108.552 76.04 108.648 76.04C108.888 76.04 109.084 75.936 109.236 75.728C109.388 75.512 109.496 75.136 109.56 74.6C109.632 74.056 109.668 73.296 109.668 72.32V70.64H114.228V77H113.172V71.576H110.724V72.56C110.724 73.448 110.684 74.188 110.604 74.78C110.524 75.364 110.404 75.828 110.244 76.172C110.092 76.516 109.896 76.76 109.656 76.904C109.416 77.048 109.14 77.12 108.828 77.12ZM116.988 79.52C116.868 79.52 116.748 79.508 116.628 79.484V78.524C116.748 78.548 116.868 78.56 116.988 78.56C117.148 78.56 117.28 78.52 117.384 78.44C117.496 78.368 117.608 78.22 117.72 77.996C117.832 77.772 117.968 77.44 118.128 77L115.428 70.64H116.604L118.668 75.8L120.54 70.64H121.668L119.268 77C119.044 77.6 118.828 78.084 118.62 78.452C118.42 78.82 118.192 79.088 117.936 79.256C117.688 79.432 117.372 79.52 116.988 79.52ZM122.32 77L124.72 73.724L122.44 70.64H123.616L125.56 73.304H126.292V70.64H127.348V73.304H128.068L130.048 70.64H131.2L128.92 73.688L131.32 77H130.072L128.068 74.216H127.348V77H126.292V74.216H125.56L123.544 77H122.32ZM135.1 77.12C134.54 77.12 134.032 76.98 133.576 76.7C133.128 76.412 132.768 76 132.496 75.464C132.232 74.928 132.1 74.28 132.1 73.52V73.28C132.1 72.32 132.196 71.5 132.388 70.82C132.588 70.14 132.924 69.612 133.396 69.236C133.868 68.852 134.516 68.64 135.34 68.6C135.676 68.584 135.984 68.572 136.264 68.564C136.544 68.548 136.796 68.524 137.02 68.492C137.244 68.452 137.444 68.388 137.62 68.3V69.32C137.54 69.368 137.408 69.408 137.224 69.44C137.048 69.472 136.82 69.5 136.54 69.524C136.26 69.54 135.92 69.556 135.52 69.572C135.008 69.58 134.576 69.664 134.224 69.824C133.88 69.984 133.612 70.24 133.42 70.592C133.228 70.944 133.108 71.42 133.06 72.02C133.188 71.732 133.364 71.488 133.588 71.288C133.812 71.08 134.072 70.92 134.368 70.808C134.664 70.696 134.988 70.64 135.34 70.64C135.884 70.64 136.36 70.76 136.768 71C137.184 71.24 137.508 71.584 137.74 72.032C137.98 72.48 138.1 73.016 138.1 73.64V73.88C138.1 74.536 137.968 75.108 137.704 75.596C137.448 76.076 137.092 76.452 136.636 76.724C136.188 76.988 135.676 77.12 135.1 77.12ZM135.1 76.16C135.66 76.16 136.12 75.968 136.48 75.584C136.84 75.192 137.02 74.624 137.02 73.88V73.64C137.02 73.024 136.84 72.532 136.48 72.164C136.12 71.788 135.66 71.6 135.1 71.6C134.54 71.6 134.08 71.788 133.72 72.164C133.36 72.532 133.18 73.024 133.18 73.64V73.88C133.18 74.352 133.264 74.76 133.432 75.104C133.608 75.44 133.84 75.7 134.128 75.884C134.424 76.068 134.748 76.16 135.1 76.16ZM139.597 77V70.64H140.653V73.04H141.937C142.737 73.04 143.325 73.216 143.701 73.568C144.085 73.92 144.277 74.408 144.277 75.032C144.277 75.432 144.193 75.78 144.025 76.076C143.857 76.372 143.601 76.6 143.257 76.76C142.913 76.92 142.473 77 141.937 77H139.597ZM140.653 76.064H141.877C142.373 76.064 142.721 75.976 142.921 75.8C143.121 75.624 143.221 75.364 143.221 75.02C143.221 74.676 143.121 74.416 142.921 74.24C142.721 74.064 142.373 73.976 141.877 73.976H140.653V76.064ZM145.261 77V70.64H146.317V77H145.261ZM149.202 77.12C149.05 77.12 148.91 77.08 148.782 77C148.654 76.928 148.55 76.828 148.47 76.7C148.398 76.572 148.362 76.432 148.362 76.28C148.362 76.04 148.442 75.84 148.602 75.68C148.77 75.52 148.97 75.44 149.202 75.44C149.434 75.44 149.63 75.52 149.79 75.68C149.958 75.84 150.042 76.04 150.042 76.28C150.042 76.432 150.002 76.572 149.922 76.7C149.85 76.828 149.75 76.928 149.622 77C149.502 77.08 149.362 77.12 149.202 77.12ZM8.24 91L11.456 82.6H12.584L15.8 91H14.576L13.772 88.912H10.22L9.416 91H8.24ZM10.592 87.928H13.4L11.996 84.04L10.592 87.928ZM16.5134 92.5V90.064H17.2934C17.4134 89.904 17.5174 89.636 17.6054 89.26C17.6934 88.876 17.7614 88.428 17.8094 87.916C17.8654 87.404 17.8934 86.872 17.8934 86.32V84.64H22.3334V90.064H23.2334V92.5H22.2254V91H17.5214V92.5H16.5134ZM18.3734 90.064H21.2774V85.576H18.9254V86.56C18.9254 87.232 18.8774 87.884 18.7814 88.516C18.6934 89.14 18.5574 89.656 18.3734 90.064ZM24.4991 93.4V84.64H25.4831V85.84C25.6991 85.416 25.9991 85.092 26.3831 84.868C26.7751 84.636 27.2271 84.52 27.7391 84.52C28.5391 84.52 29.1791 84.784 29.6591 85.312C30.1391 85.832 30.3791 86.608 30.3791 87.64V87.88C30.3791 88.6 30.2671 89.2 30.0431 89.68C29.8271 90.16 29.5191 90.52 29.1191 90.76C28.7271 91 28.2671 91.12 27.7391 91.12C27.1951 91.12 26.7391 91 26.3711 90.76C26.0111 90.52 25.7391 90.22 25.5551 89.86V93.4H24.4991ZM27.4991 90.184C28.0191 90.184 28.4511 89.988 28.7951 89.596C29.1471 89.204 29.3231 88.632 29.3231 87.88V87.64C29.3231 86.944 29.1471 86.408 28.7951 86.032C28.4511 85.648 28.0191 85.456 27.4991 85.456C27.1151 85.456 26.7751 85.536 26.4791 85.696C26.1911 85.856 25.9631 86.076 25.7951 86.356C25.6351 86.628 25.5551 86.936 25.5551 87.28V88.24C25.5551 88.624 25.6351 88.964 25.7951 89.26C25.9631 89.548 26.1911 89.776 26.4791 89.944C26.7751 90.104 27.1151 90.184 27.4991 90.184ZM34.5219 91.12C33.9859 91.12 33.4819 91.004 33.0099 90.772C32.5459 90.54 32.1699 90.184 31.8819 89.704C31.6019 89.224 31.4619 88.616 31.4619 87.88V87.64C31.4619 86.936 31.5979 86.356 31.8699 85.9C32.1419 85.436 32.5019 85.092 32.9499 84.868C33.3979 84.636 33.8819 84.52 34.4019 84.52C35.3379 84.52 36.0619 84.776 36.5739 85.288C37.0859 85.8 37.3419 86.524 37.3419 87.46V88.132H32.5179C32.5179 88.628 32.6179 89.024 32.8179 89.32C33.0259 89.616 33.2819 89.832 33.5859 89.968C33.8979 90.096 34.2099 90.16 34.5219 90.16C35.0019 90.16 35.3699 90.08 35.6259 89.92C35.8899 89.76 36.0779 89.54 36.1899 89.26H37.2219C37.0939 89.868 36.7779 90.332 36.2739 90.652C35.7779 90.964 35.1939 91.12 34.5219 91.12ZM34.4619 85.48C34.1339 85.48 33.8219 85.544 33.5259 85.672C33.2299 85.792 32.9859 85.984 32.7939 86.248C32.6099 86.512 32.5179 86.852 32.5179 87.268H36.3459C36.3379 86.828 36.2459 86.48 36.0699 86.224C35.9019 85.96 35.6779 85.772 35.3979 85.66C35.1179 85.54 34.8059 85.48 34.4619 85.48ZM41.3028 91.12C40.7588 91.12 40.2668 91.004 39.8268 90.772C39.3948 90.532 39.0508 90.172 38.7948 89.692C38.5468 89.212 38.4228 88.608 38.4228 87.88V87.64C38.4228 86.952 38.5588 86.376 38.8308 85.912C39.1028 85.448 39.4588 85.1 39.8988 84.868C40.3388 84.636 40.8068 84.52 41.3028 84.52C41.8068 84.52 42.2388 84.612 42.5988 84.796C42.9668 84.972 43.2628 85.216 43.4868 85.528C43.7108 85.832 43.8628 86.176 43.9428 86.56H42.8628C42.7348 86.256 42.5548 86 42.3228 85.792C42.0988 85.584 41.7588 85.48 41.3028 85.48C40.9908 85.48 40.6988 85.556 40.4268 85.708C40.1548 85.852 39.9308 86.084 39.7548 86.404C39.5868 86.716 39.5028 87.128 39.5028 87.64V87.88C39.5028 88.424 39.5868 88.864 39.7548 89.2C39.9308 89.536 40.1548 89.78 40.4268 89.932C40.6988 90.084 40.9908 90.16 41.3028 90.16C41.6948 90.16 42.0228 90.064 42.2868 89.872C42.5588 89.68 42.7508 89.416 42.8628 89.08H43.9428C43.8468 89.496 43.6748 89.86 43.4268 90.172C43.1788 90.476 42.8748 90.712 42.5148 90.88C42.1548 91.04 41.7508 91.12 41.3028 91.12ZM68.1134 91.12C67.5694 91.12 67.0774 91.004 66.6374 90.772C66.2054 90.532 65.8614 90.172 65.6054 89.692C65.3574 89.212 65.2334 88.608 65.2334 87.88V87.64C65.2334 86.952 65.3694 86.376 65.6414 85.912C65.9134 85.448 66.2694 85.1 66.7094 84.868C67.1494 84.636 67.6174 84.52 68.1134 84.52C68.6174 84.52 69.0494 84.612 69.4094 84.796C69.7774 84.972 70.0734 85.216 70.2974 85.528C70.5214 85.832 70.6734 86.176 70.7534 86.56H69.6734C69.5454 86.256 69.3654 86 69.1334 85.792C68.9094 85.584 68.5694 85.48 68.1134 85.48C67.8014 85.48 67.5094 85.556 67.2374 85.708C66.9654 85.852 66.7414 86.084 66.5654 86.404C66.3974 86.716 66.3134 87.128 66.3134 87.64V87.88C66.3134 88.424 66.3974 88.864 66.5654 89.2C66.7414 89.536 66.9654 89.78 67.2374 89.932C67.5094 90.084 67.8014 90.16 68.1134 90.16C68.5054 90.16 68.8334 90.064 69.0974 89.872C69.3694 89.68 69.5614 89.416 69.6734 89.08H70.7534C70.6574 89.496 70.4854 89.86 70.2374 90.172C69.9894 90.476 69.6854 90.712 69.3254 90.88C68.9654 91.04 68.5614 91.12 68.1134 91.12ZM72.798 93.52C72.678 93.52 72.558 93.508 72.438 93.484V92.524C72.558 92.548 72.678 92.56 72.798 92.56C72.958 92.56 73.09 92.52 73.194 92.44C73.306 92.368 73.418 92.22 73.53 91.996C73.642 91.772 73.778 91.44 73.938 91L71.238 84.64H72.414L74.478 89.8L76.35 84.64H77.478L75.078 91C74.854 91.6 74.638 92.084 74.43 92.452C74.23 92.82 74.002 93.088 73.746 93.256C73.498 93.432 73.182 93.52 72.798 93.52ZM77.5896 92.5V90.064H78.3696C78.4896 89.904 78.5936 89.636 78.6816 89.26C78.7696 88.876 78.8376 88.428 78.8856 87.916C78.9416 87.404 78.9696 86.872 78.9696 86.32V84.64H83.4096V90.064H84.3096V92.5H83.3016V91H78.5976V92.5H77.5896ZM79.4496 90.064H82.3536V85.576H80.0016V86.56C80.0016 87.232 79.9536 87.884 79.8576 88.516C79.7696 89.14 79.6336 89.656 79.4496 90.064ZM87.5044 91.12C87.0404 91.12 86.6444 91.036 86.3164 90.868C85.9964 90.692 85.7524 90.456 85.5844 90.16C85.4164 89.856 85.3324 89.516 85.3324 89.14C85.3324 88.508 85.5164 88.052 85.8844 87.772C86.2604 87.492 86.7964 87.352 87.4924 87.352H89.5564V86.92C89.5564 86.376 89.4324 86 89.1844 85.792C88.9444 85.584 88.5804 85.48 88.0924 85.48C87.6364 85.48 87.3044 85.568 87.0964 85.744C86.8884 85.912 86.7724 86.104 86.7484 86.32H85.6924C85.7164 85.976 85.8324 85.672 86.0404 85.408C86.2484 85.136 86.5324 84.92 86.8924 84.76C87.2524 84.6 87.6724 84.52 88.1524 84.52C88.6564 84.52 89.0924 84.6 89.4604 84.76C89.8284 84.912 90.1124 85.156 90.3124 85.492C90.5124 85.82 90.6124 86.256 90.6124 86.8V89.38C90.6124 89.716 90.6124 90.012 90.6124 90.268C90.6204 90.516 90.6404 90.76 90.6724 91H89.7484C89.7244 90.816 89.7084 90.644 89.7004 90.484C89.6924 90.316 89.6884 90.128 89.6884 89.92C89.5204 90.256 89.2484 90.54 88.8724 90.772C88.4964 91.004 88.0404 91.12 87.5044 91.12ZM87.7324 90.16C88.0684 90.16 88.3724 90.1 88.6444 89.98C88.9244 89.86 89.1444 89.684 89.3044 89.452C89.4724 89.22 89.5564 88.936 89.5564 88.6V88.168H87.6724C87.2804 88.168 86.9724 88.248 86.7484 88.408C86.5244 88.56 86.4124 88.804 86.4124 89.14C86.4124 89.436 86.5164 89.68 86.7244 89.872C86.9404 90.064 87.2764 90.16 87.7324 90.16ZM92.1776 92.8L92.6576 91V89.68H93.9776V91L92.7776 92.8H92.1776ZM118.987 91.12C118.451 91.12 117.947 91.004 117.475 90.772C117.011 90.54 116.635 90.184 116.347 89.704C116.067 89.224 115.927 88.616 115.927 87.88V87.64C115.927 86.936 116.063 86.356 116.335 85.9C116.607 85.436 116.967 85.092 117.415 84.868C117.863 84.636 118.347 84.52 118.867 84.52C119.803 84.52 120.527 84.776 121.039 85.288C121.551 85.8 121.807 86.524 121.807 87.46V88.132H116.983C116.983 88.628 117.083 89.024 117.283 89.32C117.491 89.616 117.747 89.832 118.051 89.968C118.363 90.096 118.675 90.16 118.987 90.16C119.467 90.16 119.835 90.08 120.091 89.92C120.355 89.76 120.543 89.54 120.655 89.26H121.687C121.559 89.868 121.243 90.332 120.739 90.652C120.243 90.964 119.659 91.12 118.987 91.12ZM118.927 85.48C118.599 85.48 118.287 85.544 117.991 85.672C117.695 85.792 117.451 85.984 117.259 86.248C117.075 86.512 116.983 86.852 116.983 87.268H120.811C120.803 86.828 120.711 86.48 120.535 86.224C120.367 85.96 120.143 85.772 119.863 85.66C119.583 85.54 119.271 85.48 118.927 85.48ZM123.308 91V84.64H124.292V85.84C124.428 85.448 124.66 85.132 124.988 84.892C125.324 84.644 125.704 84.52 126.128 84.52C126.68 84.52 127.104 84.64 127.4 84.88C127.696 85.112 127.9 85.412 128.012 85.78C128.22 85.388 128.484 85.08 128.804 84.856C129.132 84.632 129.524 84.52 129.98 84.52C130.636 84.52 131.148 84.72 131.516 85.12C131.884 85.512 132.068 86.132 132.068 86.98V91H131.012V87.22C131.012 86.588 130.9 86.14 130.676 85.876C130.46 85.612 130.128 85.48 129.68 85.48C129.424 85.48 129.184 85.552 128.96 85.696C128.736 85.832 128.556 86.032 128.42 86.296C128.284 86.552 128.216 86.86 128.216 87.22V91H127.16V87.22C127.16 86.588 127.048 86.14 126.824 85.876C126.6 85.612 126.268 85.48 125.828 85.48C125.572 85.48 125.332 85.552 125.108 85.696C124.884 85.832 124.704 86.032 124.568 86.296C124.432 86.552 124.364 86.86 124.364 87.22V91H123.308ZM135.737 91.12C135.273 91.12 134.877 91.036 134.549 90.868C134.229 90.692 133.985 90.456 133.817 90.16C133.649 89.856 133.565 89.516 133.565 89.14C133.565 88.508 133.749 88.052 134.117 87.772C134.493 87.492 135.029 87.352 135.725 87.352H137.789V86.92C137.789 86.376 137.665 86 137.417 85.792C137.177 85.584 136.813 85.48 136.325 85.48C135.869 85.48 135.537 85.568 135.329 85.744C135.121 85.912 135.005 86.104 134.981 86.32H133.925C133.949 85.976 134.065 85.672 134.273 85.408C134.481 85.136 134.765 84.92 135.125 84.76C135.485 84.6 135.905 84.52 136.385 84.52C136.889 84.52 137.325 84.6 137.693 84.76C138.061 84.912 138.345 85.156 138.545 85.492C138.745 85.82 138.845 86.256 138.845 86.8V89.38C138.845 89.716 138.845 90.012 138.845 90.268C138.853 90.516 138.873 90.76 138.905 91H137.981C137.957 90.816 137.941 90.644 137.933 90.484C137.925 90.316 137.921 90.128 137.921 89.92C137.753 90.256 137.481 90.54 137.105 90.772C136.729 91.004 136.273 91.12 135.737 91.12ZM135.965 90.16C136.301 90.16 136.605 90.1 136.877 89.98C137.157 89.86 137.377 89.684 137.537 89.452C137.705 89.22 137.789 88.936 137.789 88.6V88.168H135.905C135.513 88.168 135.205 88.248 134.981 88.408C134.757 88.56 134.645 88.804 134.645 89.14C134.645 89.436 134.749 89.68 134.957 89.872C135.173 90.064 135.509 90.16 135.965 90.16ZM140.83 91V84.64H141.886V91H140.83ZM141.358 83.8C141.15 83.8 140.978 83.732 140.842 83.596C140.706 83.46 140.638 83.288 140.638 83.08C140.638 82.872 140.706 82.7 140.842 82.564C140.978 82.428 141.15 82.36 141.358 82.36C141.566 82.36 141.738 82.428 141.874 82.564C142.01 82.7 142.078 82.872 142.078 83.08C142.078 83.288 142.01 83.46 141.874 83.596C141.738 83.732 141.566 83.8 141.358 83.8ZM145.841 91.06C145.401 91.06 145.041 90.992 144.761 90.856C144.489 90.712 144.289 90.492 144.161 90.196C144.041 89.892 143.981 89.5 143.981 89.02V82.6H145.037V89.02C145.037 89.436 145.105 89.72 145.241 89.872C145.377 90.024 145.617 90.1 145.961 90.1C146.049 90.1 146.125 90.1 146.189 90.1C146.253 90.092 146.317 90.084 146.381 90.076V91.012C146.341 91.02 146.285 91.028 146.213 91.036C146.149 91.044 146.081 91.048 146.009 91.048C145.945 91.056 145.889 91.06 145.841 91.06ZM148.062 92.8L148.542 91V89.68H149.862V91L148.662 92.8H148.062ZM11.42 105.12C10.876 105.12 10.384 105.004 9.944 104.772C9.512 104.532 9.168 104.172 8.912 103.692C8.664 103.212 8.54 102.608 8.54 101.88V101.64C8.54 100.952 8.676 100.376 8.948 99.912C9.22 99.448 9.576 99.1 10.016 98.868C10.456 98.636 10.924 98.52 11.42 98.52C11.924 98.52 12.356 98.612 12.716 98.796C13.084 98.972 13.38 99.216 13.604 99.528C13.828 99.832 13.98 100.176 14.06 100.56H12.98C12.852 100.256 12.672 100 12.44 99.792C12.216 99.584 11.876 99.48 11.42 99.48C11.108 99.48 10.816 99.556 10.544 99.708C10.272 99.852 10.048 100.084 9.872 100.404C9.704 100.716 9.62 101.128 9.62 101.64V101.88C9.62 102.424 9.704 102.864 9.872 103.2C10.048 103.536 10.272 103.78 10.544 103.932C10.816 104.084 11.108 104.16 11.42 104.16C11.812 104.16 12.14 104.064 12.404 103.872C12.676 103.68 12.868 103.416 12.98 103.08H14.06C13.964 103.496 13.792 103.86 13.544 104.172C13.296 104.476 12.992 104.712 12.632 104.88C12.272 105.04 11.868 105.12 11.42 105.12ZM17.9591 105.12C17.4151 105.12 16.9231 105.004 16.4831 104.772C16.0511 104.532 15.7071 104.172 15.4511 103.692C15.2031 103.212 15.0791 102.608 15.0791 101.88V101.64C15.0791 100.952 15.2151 100.376 15.4871 99.912C15.7591 99.448 16.1151 99.1 16.5551 98.868C16.9951 98.636 17.4631 98.52 17.9591 98.52C18.4631 98.52 18.8951 98.612 19.2551 98.796C19.6231 98.972 19.9191 99.216 20.1431 99.528C20.3671 99.832 20.5191 100.176 20.5991 100.56H19.5191C19.3911 100.256 19.2111 100 18.9791 99.792C18.7551 99.584 18.4151 99.48 17.9591 99.48C17.6471 99.48 17.3551 99.556 17.0831 99.708C16.8111 99.852 16.5871 100.084 16.4111 100.404C16.2431 100.716 16.1591 101.128 16.1591 101.64V101.88C16.1591 102.424 16.2431 102.864 16.4111 103.2C16.5871 103.536 16.8111 103.78 17.0831 103.932C17.3551 104.084 17.6471 104.16 17.9591 104.16C18.3511 104.16 18.6791 104.064 18.9431 103.872C19.2151 103.68 19.4071 103.416 19.5191 103.08H20.5991C20.5031 103.496 20.3311 103.86 20.0831 104.172C19.8351 104.476 19.5311 104.712 19.1711 104.88C18.8111 105.04 18.4071 105.12 17.9591 105.12ZM22.0381 105V98.64H23.0941V101.04H24.3781C25.1781 101.04 25.7661 101.216 26.1421 101.568C26.5261 101.92 26.7181 102.408 26.7181 103.032C26.7181 103.432 26.6341 103.78 26.4661 104.076C26.2981 104.372 26.0421 104.6 25.6981 104.76C25.3541 104.92 24.9141 105 24.3781 105H22.0381ZM23.0941 104.064H24.3181C24.8141 104.064 25.1621 103.976 25.3621 103.8C25.5621 103.624 25.6621 103.364 25.6621 103.02C25.6621 102.676 25.5621 102.416 25.3621 102.24C25.1621 102.064 24.8141 101.976 24.3181 101.976H23.0941V104.064ZM27.7021 105V98.64H28.7581V105H27.7021ZM30.5038 105.12C30.4478 105.12 30.3878 105.116 30.3238 105.108C30.2678 105.1 30.2078 105.092 30.1438 105.084V104.028C30.1678 104.036 30.2278 104.04 30.3238 104.04C30.5638 104.04 30.7598 103.936 30.9118 103.728C31.0638 103.512 31.1718 103.136 31.2358 102.6C31.3078 102.056 31.3438 101.296 31.3438 100.32V98.64H35.9037V105H34.8478V99.576H32.3998V100.56C32.3998 101.448 32.3598 102.188 32.2798 102.78C32.1998 103.364 32.0798 103.828 31.9198 104.172C31.7678 104.516 31.5718 104.76 31.3318 104.904C31.0918 105.048 30.8158 105.12 30.5038 105.12ZM37.8233 105V98.64H38.8793V101.304H39.7193L42.0953 98.64H43.3433L40.5833 101.688L43.4633 105H42.1193L39.7193 102.216H38.8793V105H37.8233ZM44.7256 105V98.64H45.7816V103.44L49.0696 98.64H50.1256V105H49.0696V100.2L45.7816 105H44.7256ZM56.1387 105V98.64H57.1947V101.292H60.4827V98.64H61.5387V105H60.4827V102.228H57.1947V105H56.1387ZM65.2749 105.12C64.8109 105.12 64.4149 105.036 64.0869 104.868C63.7669 104.692 63.5229 104.456 63.3549 104.16C63.1869 103.856 63.1029 103.516 63.1029 103.14C63.1029 102.508 63.2869 102.052 63.6549 101.772C64.0309 101.492 64.5669 101.352 65.2629 101.352H67.3269V100.92C67.3269 100.376 67.2029 100 66.9549 99.792C66.7149 99.584 66.3509 99.48 65.8629 99.48C65.4069 99.48 65.0749 99.568 64.8669 99.744C64.6589 99.912 64.5429 100.104 64.5189 100.32H63.4629C63.4869 99.976 63.6029 99.672 63.8109 99.408C64.0189 99.136 64.3029 98.92 64.6629 98.76C65.0229 98.6 65.4429 98.52 65.9229 98.52C66.4269 98.52 66.8629 98.6 67.2309 98.76C67.5989 98.912 67.8829 99.156 68.0829 99.492C68.2829 99.82 68.3829 100.256 68.3829 100.8V103.38C68.3829 103.716 68.3829 104.012 68.3829 104.268C68.3909 104.516 68.4109 104.76 68.4429 105H67.5189C67.4949 104.816 67.4789 104.644 67.4709 104.484C67.4629 104.316 67.4589 104.128 67.4589 103.92C67.2909 104.256 67.0189 104.54 66.6429 104.772C66.2669 105.004 65.8109 105.12 65.2749 105.12ZM65.5029 104.16C65.8389 104.16 66.1429 104.1 66.4149 103.98C66.6949 103.86 66.9149 103.684 67.0749 103.452C67.2429 103.22 67.3269 102.936 67.3269 102.6V102.168H65.4429C65.0509 102.168 64.7429 102.248 64.5189 102.408C64.2949 102.56 64.1829 102.804 64.1829 103.14C64.1829 103.436 64.2869 103.68 64.4949 103.872C64.7109 104.064 65.0469 104.16 65.5029 104.16ZM76.797 105.12C76.253 105.12 75.761 105.004 75.321 104.772C74.889 104.532 74.545 104.172 74.289 103.692C74.041 103.212 73.917 102.608 73.917 101.88V101.64C73.917 100.952 74.053 100.376 74.325 99.912C74.597 99.448 74.953 99.1 75.393 98.868C75.833 98.636 76.301 98.52 76.797 98.52C77.301 98.52 77.733 98.612 78.093 98.796C78.461 98.972 78.757 99.216 78.981 99.528C79.205 99.832 79.357 100.176 79.437 100.56H78.357C78.229 100.256 78.049 100 77.817 99.792C77.593 99.584 77.253 99.48 76.797 99.48C76.485 99.48 76.193 99.556 75.921 99.708C75.649 99.852 75.425 100.084 75.249 100.404C75.081 100.716 74.997 101.128 74.997 101.64V101.88C74.997 102.424 75.081 102.864 75.249 103.2C75.425 103.536 75.649 103.78 75.921 103.932C76.193 104.084 76.485 104.16 76.797 104.16C77.189 104.16 77.517 104.064 77.781 103.872C78.053 103.68 78.245 103.416 78.357 103.08H79.437C79.341 103.496 79.169 103.86 78.921 104.172C78.673 104.476 78.369 104.712 78.009 104.88C77.649 105.04 77.245 105.12 76.797 105.12ZM82.688 105.12C82.224 105.12 81.828 105.036 81.5 104.868C81.18 104.692 80.936 104.456 80.768 104.16C80.6 103.856 80.516 103.516 80.516 103.14C80.516 102.508 80.7 102.052 81.068 101.772C81.444 101.492 81.98 101.352 82.676 101.352H84.74V100.92C84.74 100.376 84.616 100 84.368 99.792C84.128 99.584 83.764 99.48 83.276 99.48C82.82 99.48 82.488 99.568 82.28 99.744C82.072 99.912 81.956 100.104 81.932 100.32H80.876C80.9 99.976 81.016 99.672 81.224 99.408C81.432 99.136 81.716 98.92 82.076 98.76C82.436 98.6 82.856 98.52 83.336 98.52C83.84 98.52 84.276 98.6 84.644 98.76C85.012 98.912 85.296 99.156 85.496 99.492C85.696 99.82 85.796 100.256 85.796 100.8V103.38C85.796 103.716 85.796 104.012 85.796 104.268C85.804 104.516 85.824 104.76 85.856 105H84.932C84.908 104.816 84.892 104.644 84.884 104.484C84.876 104.316 84.872 104.128 84.872 103.92C84.704 104.256 84.432 104.54 84.056 104.772C83.68 105.004 83.224 105.12 82.688 105.12ZM82.916 104.16C83.252 104.16 83.556 104.1 83.828 103.98C84.108 103.86 84.328 103.684 84.488 103.452C84.656 103.22 84.74 102.936 84.74 102.6V102.168H82.856C82.464 102.168 82.156 102.248 81.932 102.408C81.708 102.56 81.596 102.804 81.596 103.14C81.596 103.436 81.7 103.68 81.908 103.872C82.124 104.064 82.46 104.16 82.916 104.16ZM87.6612 105V98.64H88.7172V103.44L92.0052 98.64H93.0612V105H92.0052V100.2L88.7172 105H87.6612ZM90.3612 97.86C89.7372 97.86 89.2812 97.728 88.9932 97.464C88.7052 97.192 88.5612 96.804 88.5612 96.3H89.5932C89.5932 96.572 89.6572 96.776 89.7852 96.912C89.9132 97.048 90.1052 97.116 90.3612 97.116C90.6252 97.116 90.8212 97.048 90.9492 96.912C91.0852 96.776 91.1532 96.572 91.1532 96.3H92.1612C92.1612 96.804 92.0172 97.192 91.7292 97.464C91.4412 97.728 90.9852 97.86 90.3612 97.86ZM96.4374 105V99.576H94.2654V98.64H99.6654V99.576H97.4934V105H96.4374ZM100.868 105V98.64H101.924V101.04H103.208C104.008 101.04 104.596 101.216 104.972 101.568C105.356 101.92 105.548 102.408 105.548 103.032C105.548 103.432 105.464 103.78 105.296 104.076C105.128 104.372 104.872 104.6 104.528 104.76C104.184 104.92 103.744 105 103.208 105H100.868ZM101.924 104.064H103.148C103.644 104.064 103.992 103.976 104.192 103.8C104.392 103.624 104.492 103.364 104.492 103.02C104.492 102.676 104.392 102.416 104.192 102.24C103.992 102.064 103.644 101.976 103.148 101.976H101.924V104.064ZM106.532 105V98.64H107.588V105H106.532ZM116.183 105.12C115.639 105.12 115.147 105.004 114.707 104.772C114.275 104.532 113.931 104.172 113.675 103.692C113.427 103.212 113.303 102.608 113.303 101.88V101.64C113.303 100.952 113.439 100.376 113.711 99.912C113.983 99.448 114.339 99.1 114.779 98.868C115.219 98.636 115.687 98.52 116.183 98.52C116.687 98.52 117.119 98.612 117.479 98.796C117.847 98.972 118.143 99.216 118.367 99.528C118.591 99.832 118.743 100.176 118.823 100.56H117.743C117.615 100.256 117.435 100 117.203 99.792C116.979 99.584 116.639 99.48 116.183 99.48C115.871 99.48 115.579 99.556 115.307 99.708C115.035 99.852 114.811 100.084 114.635 100.404C114.467 100.716 114.383 101.128 114.383 101.64V101.88C114.383 102.424 114.467 102.864 114.635 103.2C114.811 103.536 115.035 103.78 115.307 103.932C115.579 104.084 115.871 104.16 116.183 104.16C116.575 104.16 116.903 104.064 117.167 103.872C117.439 103.68 117.631 103.416 117.743 103.08H118.823C118.727 103.496 118.555 103.86 118.307 104.172C118.059 104.476 117.755 104.712 117.395 104.88C117.035 105.04 116.631 105.12 116.183 105.12ZM120.867 107.52C120.747 107.52 120.627 107.508 120.507 107.484V106.524C120.627 106.548 120.747 106.56 120.867 106.56C121.027 106.56 121.159 106.52 121.263 106.44C121.375 106.368 121.487 106.22 121.599 105.996C121.711 105.772 121.847 105.44 122.007 105L119.307 98.64H120.483L122.547 103.8L124.419 98.64H125.547L123.147 105C122.923 105.6 122.707 106.084 122.499 106.452C122.299 106.82 122.071 107.088 121.815 107.256C121.567 107.432 121.251 107.52 120.867 107.52ZM125.659 106.5V104.064H126.439C126.559 103.904 126.663 103.636 126.751 103.26C126.839 102.876 126.907 102.428 126.955 101.916C127.011 101.404 127.039 100.872 127.039 100.32V98.64H131.479V104.064H132.379V106.5H131.371V105H126.667V106.5H125.659ZM127.519 104.064H130.423V99.576H128.071V100.56C128.071 101.232 128.023 101.884 127.927 102.516C127.839 103.14 127.703 103.656 127.519 104.064ZM135.574 105.12C135.11 105.12 134.714 105.036 134.386 104.868C134.066 104.692 133.822 104.456 133.654 104.16C133.486 103.856 133.402 103.516 133.402 103.14C133.402 102.508 133.586 102.052 133.954 101.772C134.33 101.492 134.866 101.352 135.562 101.352H137.626V100.92C137.626 100.376 137.502 100 137.254 99.792C137.014 99.584 136.65 99.48 136.162 99.48C135.706 99.48 135.374 99.568 135.166 99.744C134.958 99.912 134.842 100.104 134.818 100.32H133.762C133.786 99.976 133.902 99.672 134.11 99.408C134.318 99.136 134.602 98.92 134.962 98.76C135.322 98.6 135.742 98.52 136.222 98.52C136.726 98.52 137.162 98.6 137.53 98.76C137.898 98.912 138.182 99.156 138.382 99.492C138.582 99.82 138.682 100.256 138.682 100.8V103.38C138.682 103.716 138.682 104.012 138.682 104.268C138.69 104.516 138.71 104.76 138.742 105H137.818C137.794 104.816 137.778 104.644 137.77 104.484C137.762 104.316 137.758 104.128 137.758 103.92C137.59 104.256 137.318 104.54 136.942 104.772C136.566 105.004 136.11 105.12 135.574 105.12ZM135.802 104.16C136.138 104.16 136.442 104.1 136.714 103.98C136.994 103.86 137.214 103.684 137.374 103.452C137.542 103.22 137.626 102.936 137.626 102.6V102.168H135.742C135.35 102.168 135.042 102.248 134.818 102.408C134.594 102.56 134.482 102.804 134.482 103.14C134.482 103.436 134.586 103.68 134.794 103.872C135.01 104.064 135.346 104.16 135.802 104.16ZM144.636 105V98.64H145.692V103.44L148.98 98.64H150.036V105H148.98V100.2L145.692 105H144.636ZM9.2 119V110.6H10.328V114.212H11.288L14.576 110.6H15.92L12.248 114.608L16.04 119H14.6L11.288 115.148H10.328V119H9.2ZM19.0572 119.12C18.5932 119.12 18.1972 119.036 17.8692 118.868C17.5492 118.692 17.3052 118.456 17.1372 118.16C16.9692 117.856 16.8852 117.516 16.8852 117.14C16.8852 116.508 17.0692 116.052 17.4372 115.772C17.8132 115.492 18.3492 115.352 19.0452 115.352H21.1092V114.92C21.1092 114.376 20.9852 114 20.7372 113.792C20.4972 113.584 20.1332 113.48 19.6452 113.48C19.1892 113.48 18.8572 113.568 18.6492 113.744C18.4412 113.912 18.3252 114.104 18.3012 114.32H17.2452C17.2692 113.976 17.3852 113.672 17.5932 113.408C17.8012 113.136 18.0852 112.92 18.4452 112.76C18.8052 112.6 19.2252 112.52 19.7052 112.52C20.2092 112.52 20.6452 112.6 21.0132 112.76C21.3812 112.912 21.6652 113.156 21.8652 113.492C22.0652 113.82 22.1652 114.256 22.1652 114.8V117.38C22.1652 117.716 22.1652 118.012 22.1652 118.268C22.1732 118.516 22.1932 118.76 22.2252 119H21.3012C21.2772 118.816 21.2612 118.644 21.2532 118.484C21.2452 118.316 21.2412 118.128 21.2412 117.92C21.0732 118.256 20.8012 118.54 20.4252 118.772C20.0492 119.004 19.5932 119.12 19.0572 119.12ZM19.2852 118.16C19.6212 118.16 19.9252 118.1 20.1972 117.98C20.4772 117.86 20.6972 117.684 20.8572 117.452C21.0252 117.22 21.1092 116.936 21.1092 116.6V116.168H19.2252C18.8332 116.168 18.5252 116.248 18.3012 116.408C18.0772 116.56 17.9652 116.804 17.9652 117.14C17.9652 117.436 18.0692 117.68 18.2772 117.872C18.4932 118.064 18.8292 118.16 19.2852 118.16ZM24.0303 121.4V112.64H25.0143V113.84C25.2303 113.416 25.5303 113.092 25.9143 112.868C26.3063 112.636 26.7583 112.52 27.2703 112.52C28.0703 112.52 28.7103 112.784 29.1903 113.312C29.6703 113.832 29.9103 114.608 29.9103 115.64V115.88C29.9103 116.6 29.7983 117.2 29.5743 117.68C29.3583 118.16 29.0503 118.52 28.6503 118.76C28.2583 119 27.7983 119.12 27.2703 119.12C26.7263 119.12 26.2703 119 25.9023 118.76C25.5423 118.52 25.2703 118.22 25.0863 117.86V121.4H24.0303ZM27.0303 118.184C27.5503 118.184 27.9823 117.988 28.3263 117.596C28.6783 117.204 28.8543 116.632 28.8543 115.88V115.64C28.8543 114.944 28.6783 114.408 28.3263 114.032C27.9823 113.648 27.5503 113.456 27.0303 113.456C26.6463 113.456 26.3063 113.536 26.0103 113.696C25.7223 113.856 25.4943 114.076 25.3263 114.356C25.1663 114.628 25.0863 114.936 25.0863 115.28V116.24C25.0863 116.624 25.1663 116.964 25.3263 117.26C25.4943 117.548 25.7223 117.776 26.0103 117.944C26.3063 118.104 26.6463 118.184 27.0303 118.184ZM32.7479 119V113.576H30.5759V112.64H35.9759V113.576H33.8039V119H32.7479ZM39.7016 119.12C39.1656 119.12 38.6616 119.004 38.1896 118.772C37.7256 118.532 37.3496 118.172 37.0616 117.692C36.7816 117.212 36.6416 116.608 36.6416 115.88V115.64C36.6416 114.952 36.7816 114.376 37.0616 113.912C37.3496 113.448 37.7256 113.1 38.1896 112.868C38.6616 112.636 39.1656 112.52 39.7016 112.52C40.2456 112.52 40.7496 112.636 41.2136 112.868C41.6776 113.1 42.0496 113.448 42.3296 113.912C42.6176 114.376 42.7616 114.952 42.7616 115.64V115.88C42.7616 116.608 42.6176 117.212 42.3296 117.692C42.0496 118.172 41.6776 118.532 41.2136 118.772C40.7496 119.004 40.2456 119.12 39.7016 119.12ZM39.7016 118.16C40.0296 118.16 40.3416 118.088 40.6376 117.944C40.9416 117.792 41.1896 117.548 41.3816 117.212C41.5816 116.876 41.6816 116.432 41.6816 115.88V115.64C41.6816 115.128 41.5816 114.716 41.3816 114.404C41.1896 114.084 40.9416 113.852 40.6376 113.708C40.3416 113.556 40.0296 113.48 39.7016 113.48C39.3816 113.48 39.0696 113.556 38.7656 113.708C38.4616 113.852 38.2096 114.084 38.0096 114.404C37.8176 114.716 37.7216 115.128 37.7216 115.64V115.88C37.7216 116.432 37.8176 116.876 38.0096 117.212C38.2096 117.548 38.4616 117.792 38.7656 117.944C39.0696 118.088 39.3816 118.16 39.7016 118.16ZM45.5917 119V113.576H43.4197V112.64H48.8197V113.576H46.6477V119H45.5917ZM52.5453 119.12C52.0093 119.12 51.5053 119.004 51.0333 118.772C50.5693 118.54 50.1933 118.184 49.9053 117.704C49.6253 117.224 49.4853 116.616 49.4853 115.88V115.64C49.4853 114.936 49.6213 114.356 49.8933 113.9C50.1653 113.436 50.5253 113.092 50.9733 112.868C51.4213 112.636 51.9053 112.52 52.4253 112.52C53.3613 112.52 54.0853 112.776 54.5973 113.288C55.1093 113.8 55.3653 114.524 55.3653 115.46V116.132H50.5413C50.5413 116.628 50.6413 117.024 50.8413 117.32C51.0493 117.616 51.3053 117.832 51.6093 117.968C51.9213 118.096 52.2333 118.16 52.5453 118.16C53.0253 118.16 53.3933 118.08 53.6493 117.92C53.9133 117.76 54.1013 117.54 54.2133 117.26H55.2453C55.1173 117.868 54.8013 118.332 54.2973 118.652C53.8013 118.964 53.2173 119.12 52.5453 119.12ZM52.4853 113.48C52.1573 113.48 51.8453 113.544 51.5493 113.672C51.2533 113.792 51.0093 113.984 50.8173 114.248C50.6333 114.512 50.5413 114.852 50.5413 115.268H54.3693C54.3613 114.828 54.2693 114.48 54.0933 114.224C53.9253 113.96 53.7013 113.772 53.4213 113.66C53.1413 113.54 52.8293 113.48 52.4853 113.48ZM56.8663 119V112.64H57.9223V115.304H58.7623L61.1383 112.64H62.3863L59.6263 115.688L62.5063 119H61.1623L58.7623 116.216H57.9223V119H56.8663ZM63.7686 119V112.64H64.8246V117.44L68.1126 112.64H69.1686V119H68.1126V114.2L64.8246 119H63.7686ZM71.9328 119.12C71.7808 119.12 71.6408 119.08 71.5128 119C71.3848 118.928 71.2808 118.828 71.2008 118.7C71.1288 118.572 71.0928 118.432 71.0928 118.28C71.0928 118.04 71.1728 117.84 71.3328 117.68C71.5008 117.52 71.7008 117.44 71.9328 117.44C72.1648 117.44 72.3608 117.52 72.5208 117.68C72.6888 117.84 72.7728 118.04 72.7728 118.28C72.7728 118.432 72.7328 118.572 72.6528 118.7C72.5808 118.828 72.4808 118.928 72.3528 119C72.2328 119.08 72.0928 119.12 71.9328 119.12Z" fill="white"/>
</svg>
