<svg width="160" height="130" viewBox="0 0 160 130" fill="none" xmlns="http://www.w3.org/2000/svg">
<rect width="160" height="130" rx="10" fill="#6F7B8C"/>
<path d="M16.5852 37.24C15.3718 37.24 14.2852 37 13.3252 36.52C12.3785 36.0267 11.6318 35.26 11.0852 34.22C10.5518 33.1667 10.2852 31.7933 10.2852 30.1V29.7C10.2852 28.4733 10.4452 27.4267 10.7652 26.56C11.0852 25.68 11.5318 24.96 12.1052 24.4C12.6918 23.84 13.3652 23.4267 14.1252 23.16C14.8852 22.8933 15.7052 22.76 16.5852 22.76C17.3718 22.76 18.1052 22.86 18.7852 23.06C19.4785 23.2467 20.0918 23.5333 20.6252 23.92C21.1585 24.3067 21.5852 24.8067 21.9052 25.42C22.2385 26.0333 22.4318 26.7533 22.4852 27.58H19.3652C19.2185 26.7933 18.8985 26.2133 18.4052 25.84C17.9118 25.4667 17.3052 25.28 16.5852 25.28C16.0252 25.28 15.5052 25.42 15.0252 25.7C14.5452 25.9667 14.1518 26.42 13.8452 27.06C13.5518 27.7 13.4052 28.58 13.4052 29.7V30.1C13.4052 30.98 13.4985 31.72 13.6852 32.32C13.8718 32.9067 14.1185 33.38 14.4252 33.74C14.7318 34.0867 15.0718 34.34 15.4452 34.5C15.8185 34.6467 16.1985 34.72 16.5852 34.72C17.3452 34.72 17.9718 34.5267 18.4652 34.14C18.9585 33.74 19.2585 33.1667 19.3652 32.42H22.4852C22.4185 33.2867 22.2252 34.0333 21.9052 34.66C21.5852 35.2733 21.1652 35.7733 20.6452 36.16C20.1252 36.5333 19.5185 36.8067 18.8252 36.98C18.1318 37.1533 17.3852 37.24 16.5852 37.24ZM27.0495 37V28.6H23.6695V26.4H33.0495V28.6H29.6895V37H27.0495ZM37.4152 37.24C36.6552 37.24 36.0085 37.1 35.4752 36.82C34.9418 36.5267 34.5352 36.1267 34.2552 35.62C33.9752 35.1133 33.8352 34.54 33.8352 33.9C33.8352 32.8333 34.1485 32.0333 34.7752 31.5C35.4152 30.9667 36.3685 30.7 37.6352 30.7H40.7952V30.2C40.7952 29.5067 40.6352 29.02 40.3152 28.74C40.0085 28.46 39.5152 28.32 38.8352 28.32C38.2352 28.32 37.8018 28.4267 37.5352 28.64C37.2685 28.84 37.1152 29.0933 37.0752 29.4H34.4352C34.4752 28.7867 34.6685 28.24 35.0152 27.76C35.3752 27.2667 35.8818 26.88 36.5352 26.6C37.2018 26.3067 38.0018 26.16 38.9352 26.16C39.8418 26.16 40.6285 26.2933 41.2952 26.56C41.9752 26.8267 42.5018 27.26 42.8752 27.86C43.2485 28.4467 43.4352 29.24 43.4352 30.24V34.3C43.4352 34.86 43.4418 35.3533 43.4552 35.78C43.4818 36.1933 43.5218 36.6 43.5752 37H41.1152C41.0618 36.7067 41.0285 36.4867 41.0152 36.34C41.0152 36.18 41.0152 35.9467 41.0152 35.64C40.7352 36.0667 40.2952 36.44 39.6952 36.76C39.0952 37.08 38.3352 37.24 37.4152 37.24ZM38.2352 35.2C38.6618 35.2 39.0685 35.1267 39.4552 34.98C39.8552 34.82 40.1752 34.58 40.4152 34.26C40.6685 33.9267 40.7952 33.5067 40.7952 33V32.5H38.1352C37.6285 32.5 37.2285 32.62 36.9352 32.86C36.6552 33.0867 36.5152 33.4 36.5152 33.8C36.5152 34.2267 36.6618 34.5667 36.9552 34.82C37.2485 35.0733 37.6752 35.2 38.2352 35.2ZM48.1433 37V28.6H44.7633V26.4H54.1433V28.6H50.7833V37H48.1433ZM57.9297 41.24C57.7297 41.24 57.5297 41.22 57.3297 41.18V38.94C57.5297 38.98 57.7297 39 57.9297 39C58.1964 39 58.4164 38.9333 58.5897 38.8C58.7764 38.6667 58.943 38.4533 59.0897 38.16C59.2497 37.8667 59.423 37.48 59.6097 37L55.1297 26.4H58.0897L60.9697 33.72L63.6097 26.4H66.3297L62.2497 37C61.863 38 61.4897 38.8067 61.1297 39.42C60.7697 40.0467 60.343 40.5067 59.8497 40.8C59.3697 41.0933 58.7297 41.24 57.9297 41.24ZM72.0406 37.24C71.0673 37.24 70.1873 37.04 69.4006 36.64C68.614 36.2267 67.9873 35.62 67.5206 34.82C67.0673 34.0067 66.8406 33 66.8406 31.8V31.4C66.8406 30.2533 67.0806 29.2933 67.5606 28.52C68.0406 27.7467 68.674 27.16 69.4606 26.76C70.2473 26.36 71.1073 26.16 72.0406 26.16C73.0406 26.16 73.8873 26.3267 74.5806 26.66C75.274 26.9933 75.8073 27.4533 76.1806 28.04C76.5673 28.6267 76.7873 29.2733 76.8406 29.98H74.1606C74.054 29.5 73.834 29.12 73.5006 28.84C73.1806 28.5467 72.694 28.4 72.0406 28.4C71.5873 28.4 71.1673 28.5067 70.7806 28.72C70.4073 28.9333 70.1006 29.26 69.8606 29.7C69.634 30.14 69.5206 30.7067 69.5206 31.4V31.8C69.5206 32.5467 69.6273 33.16 69.8406 33.64C70.0673 34.1067 70.3673 34.4533 70.7406 34.68C71.1273 34.8933 71.5606 35 72.0406 35C72.5606 35 73.0073 34.8667 73.3806 34.6C73.7673 34.32 74.0273 33.9267 74.1606 33.42H76.8406C76.7606 34.18 76.5073 34.8533 76.0806 35.44C75.654 36.0267 75.0873 36.4733 74.3806 36.78C73.6873 37.0867 72.9073 37.24 72.0406 37.24ZM82.8297 39.5V34.8H84.0297C84.2164 34.52 84.363 34.1 84.4697 33.54C84.5897 32.98 84.6764 32.3533 84.7297 31.66C84.7964 30.9533 84.8297 30.26 84.8297 29.58V26.4H93.1297V34.8H94.4097V39.5H92.1097V37H85.1297V39.5H82.8297ZM86.6097 34.8H90.4897V28.6H87.2297V29.98C87.2297 30.9133 87.183 31.82 87.0897 32.7C87.0097 33.5667 86.8497 34.2667 86.6097 34.8ZM100.91 37.24C99.9502 37.24 99.0635 37.0467 98.2502 36.66C97.4502 36.26 96.8102 35.66 96.3302 34.86C95.8502 34.0467 95.6102 33.0267 95.6102 31.8V31.4C95.6102 30.2267 95.8368 29.2533 96.2902 28.48C96.7568 27.7067 97.3768 27.1267 98.1502 26.74C98.9235 26.3533 99.7768 26.16 100.71 26.16C102.377 26.16 103.643 26.6 104.51 27.48C105.377 28.36 105.81 29.6333 105.81 31.3V32.42H98.3102C98.3368 33.0467 98.4702 33.56 98.7102 33.96C98.9635 34.3467 99.2835 34.6333 99.6702 34.82C100.057 34.9933 100.47 35.08 100.91 35.08C101.59 35.08 102.103 34.98 102.45 34.78C102.797 34.58 103.043 34.2867 103.19 33.9H105.61C105.397 35.0067 104.87 35.84 104.03 36.4C103.19 36.96 102.15 37.24 100.91 37.24ZM100.81 28.32C100.397 28.32 99.9968 28.3867 99.6102 28.52C99.2235 28.6533 98.9168 28.8933 98.6902 29.24C98.4635 29.5733 98.3368 30.02 98.3102 30.58H103.25C103.237 29.98 103.117 29.52 102.89 29.2C102.677 28.8667 102.39 28.64 102.03 28.52C101.67 28.3867 101.263 28.32 100.81 28.32ZM107.616 37.24C107.51 37.24 107.376 37.2333 107.216 37.22C107.056 37.22 106.923 37.2067 106.816 37.18V34.8C106.856 34.8133 106.956 34.82 107.116 34.82C107.463 34.82 107.743 34.68 107.956 34.4C108.183 34.1067 108.35 33.6067 108.456 32.9C108.563 32.1933 108.616 31.2267 108.616 30V26.4H117.016V37H114.376V28.6H111.056V30.4C111.056 31.7733 110.983 32.9067 110.836 33.8C110.703 34.6933 110.49 35.3933 110.196 35.9C109.916 36.3933 109.563 36.74 109.136 36.94C108.71 37.14 108.203 37.24 107.616 37.24ZM122.591 37.24C121.831 37.24 121.184 37.1 120.651 36.82C120.118 36.5267 119.711 36.1267 119.431 35.62C119.151 35.1133 119.011 34.54 119.011 33.9C119.011 32.8333 119.324 32.0333 119.951 31.5C120.591 30.9667 121.544 30.7 122.811 30.7H125.971V30.2C125.971 29.5067 125.811 29.02 125.491 28.74C125.184 28.46 124.691 28.32 124.011 28.32C123.411 28.32 122.978 28.4267 122.711 28.64C122.444 28.84 122.291 29.0933 122.251 29.4H119.611C119.651 28.7867 119.844 28.24 120.191 27.76C120.551 27.2667 121.058 26.88 121.711 26.6C122.378 26.3067 123.178 26.16 124.111 26.16C125.018 26.16 125.804 26.2933 126.471 26.56C127.151 26.8267 127.678 27.26 128.051 27.86C128.424 28.4467 128.611 29.24 128.611 30.24V34.3C128.611 34.86 128.618 35.3533 128.631 35.78C128.658 36.1933 128.698 36.6 128.751 37H126.291C126.238 36.7067 126.204 36.4867 126.191 36.34C126.191 36.18 126.191 35.9467 126.191 35.64C125.911 36.0667 125.471 36.44 124.871 36.76C124.271 37.08 123.511 37.24 122.591 37.24ZM123.411 35.2C123.838 35.2 124.244 35.1267 124.631 34.98C125.031 34.82 125.351 34.58 125.591 34.26C125.844 33.9267 125.971 33.5067 125.971 33V32.5H123.311C122.804 32.5 122.404 32.62 122.111 32.86C121.831 33.0867 121.691 33.4 121.691 33.8C121.691 34.2267 121.838 34.5667 122.131 34.82C122.424 35.0733 122.851 35.2 123.411 35.2Z" fill="white"/>
<path d="M10.2 60V51.6H16.8V60H15.672V52.584H11.328V60H10.2ZM18.96 62.4V53.64H19.944V54.84C20.16 54.416 20.46 54.092 20.844 53.868C21.236 53.636 21.688 53.52 22.2 53.52C23 53.52 23.64 53.784 24.12 54.312C24.6 54.832 24.84 55.608 24.84 56.64V56.88C24.84 57.6 24.728 58.2 24.504 58.68C24.288 59.16 23.98 59.52 23.58 59.76C23.188 60 22.728 60.12 22.2 60.12C21.656 60.12 21.2 60 20.832 59.76C20.472 59.52 20.2 59.22 20.016 58.86V62.4H18.96ZM21.96 59.184C22.48 59.184 22.912 58.988 23.256 58.596C23.608 58.204 23.784 57.632 23.784 56.88V56.64C23.784 55.944 23.608 55.408 23.256 55.032C22.912 54.648 22.48 54.456 21.96 54.456C21.576 54.456 21.236 54.536 20.94 54.696C20.652 54.856 20.424 55.076 20.256 55.356C20.096 55.628 20.016 55.936 20.016 56.28V57.24C20.016 57.624 20.096 57.964 20.256 58.26C20.424 58.548 20.652 58.776 20.94 58.944C21.236 59.104 21.576 59.184 21.96 59.184ZM28.9828 60.12C28.4468 60.12 27.9428 60.004 27.4708 59.772C27.0068 59.532 26.6308 59.172 26.3428 58.692C26.0628 58.212 25.9228 57.608 25.9228 56.88V56.64C25.9228 55.952 26.0628 55.376 26.3428 54.912C26.6308 54.448 27.0068 54.1 27.4708 53.868C27.9428 53.636 28.4468 53.52 28.9828 53.52C29.5268 53.52 30.0308 53.636 30.4948 53.868C30.9588 54.1 31.3308 54.448 31.6108 54.912C31.8988 55.376 32.0428 55.952 32.0428 56.64V56.88C32.0428 57.608 31.8988 58.212 31.6108 58.692C31.3308 59.172 30.9588 59.532 30.4948 59.772C30.0308 60.004 29.5268 60.12 28.9828 60.12ZM28.9828 59.16C29.3108 59.16 29.6228 59.088 29.9188 58.944C30.2228 58.792 30.4708 58.548 30.6628 58.212C30.8628 57.876 30.9628 57.432 30.9628 56.88V56.64C30.9628 56.128 30.8628 55.716 30.6628 55.404C30.4708 55.084 30.2228 54.852 29.9188 54.708C29.6228 54.556 29.3108 54.48 28.9828 54.48C28.6628 54.48 28.3508 54.556 28.0468 54.708C27.7428 54.852 27.4908 55.084 27.2908 55.404C27.0988 55.716 27.0028 56.128 27.0028 56.64V56.88C27.0028 57.432 27.0988 57.876 27.2908 58.212C27.4908 58.548 27.7428 58.792 28.0468 58.944C28.3508 59.088 28.6628 59.16 28.9828 59.16ZM33.5381 60V53.64H36.2981C36.8261 53.64 37.2581 53.716 37.5941 53.868C37.9301 54.012 38.1781 54.216 38.3381 54.48C38.4981 54.736 38.5781 55.036 38.5781 55.38C38.5781 55.66 38.4861 55.928 38.3021 56.184C38.1261 56.432 37.8981 56.604 37.6181 56.7C38.0101 56.796 38.3061 56.98 38.5061 57.252C38.7141 57.516 38.8181 57.828 38.8181 58.188C38.8181 58.74 38.6341 59.18 38.2661 59.508C37.8981 59.836 37.3221 60 36.5381 60H33.5381ZM34.5941 59.064H36.5381C36.9861 59.064 37.3021 58.984 37.4861 58.824C37.6701 58.664 37.7621 58.436 37.7621 58.14C37.7621 57.836 37.6701 57.604 37.4861 57.444C37.3021 57.276 36.9861 57.192 36.5381 57.192H34.5941V59.064ZM34.5941 56.328H36.2981C36.7541 56.328 37.0701 56.248 37.2461 56.088C37.4301 55.928 37.5221 55.708 37.5221 55.428C37.5221 55.164 37.4301 54.956 37.2461 54.804C37.0701 54.652 36.7541 54.576 36.2981 54.576H34.5941V56.328ZM42.9633 60.12C42.4273 60.12 41.9233 60.004 41.4513 59.772C40.9873 59.54 40.6113 59.184 40.3233 58.704C40.0433 58.224 39.9033 57.616 39.9033 56.88V56.64C39.9033 55.936 40.0393 55.356 40.3113 54.9C40.5833 54.436 40.9433 54.092 41.3913 53.868C41.8393 53.636 42.3233 53.52 42.8433 53.52C43.7793 53.52 44.5033 53.776 45.0153 54.288C45.5273 54.8 45.7833 55.524 45.7833 56.46V57.132H40.9593C40.9593 57.628 41.0593 58.024 41.2593 58.32C41.4673 58.616 41.7233 58.832 42.0273 58.968C42.3393 59.096 42.6513 59.16 42.9633 59.16C43.4433 59.16 43.8113 59.08 44.0673 58.92C44.3313 58.76 44.5193 58.54 44.6313 58.26H45.6633C45.5353 58.868 45.2193 59.332 44.7153 59.652C44.2193 59.964 43.6353 60.12 42.9633 60.12ZM42.9033 54.48C42.5753 54.48 42.2633 54.544 41.9673 54.672C41.6713 54.792 41.4273 54.984 41.2353 55.248C41.0513 55.512 40.9593 55.852 40.9593 56.268H44.7873C44.7793 55.828 44.6873 55.48 44.5113 55.224C44.3433 54.96 44.1193 54.772 43.8393 54.66C43.5593 54.54 43.2473 54.48 42.9033 54.48ZM47.2842 62.4V53.64H48.2682V54.84C48.4842 54.416 48.7842 54.092 49.1682 53.868C49.5602 53.636 50.0122 53.52 50.5242 53.52C51.3242 53.52 51.9642 53.784 52.4442 54.312C52.9242 54.832 53.1642 55.608 53.1642 56.64V56.88C53.1642 57.6 53.0522 58.2 52.8282 58.68C52.6122 59.16 52.3042 59.52 51.9042 59.76C51.5122 60 51.0522 60.12 50.5242 60.12C49.9802 60.12 49.5242 60 49.1562 59.76C48.7962 59.52 48.5242 59.22 48.3402 58.86V62.4H47.2842ZM50.2842 59.184C50.8042 59.184 51.2362 58.988 51.5802 58.596C51.9322 58.204 52.1082 57.632 52.1082 56.88V56.64C52.1082 55.944 51.9322 55.408 51.5802 55.032C51.2362 54.648 50.8042 54.456 50.2842 54.456C49.9002 54.456 49.5602 54.536 49.2642 54.696C48.9762 54.856 48.7482 55.076 48.5802 55.356C48.4202 55.628 48.3402 55.936 48.3402 56.28V57.24C48.3402 57.624 48.4202 57.964 48.5802 58.26C48.7482 58.548 48.9762 58.776 49.2642 58.944C49.5602 59.104 49.9002 59.184 50.2842 59.184ZM54.667 60V53.64H55.723V56.04H57.247C58.047 56.04 58.635 56.216 59.011 56.568C59.395 56.92 59.587 57.408 59.587 58.032C59.587 58.432 59.503 58.78 59.335 59.076C59.167 59.372 58.911 59.6 58.567 59.76C58.223 59.92 57.783 60 57.247 60H54.667ZM55.723 59.064H57.187C57.683 59.064 58.031 58.976 58.231 58.8C58.431 58.624 58.531 58.364 58.531 58.02C58.531 57.676 58.431 57.416 58.231 57.24C58.031 57.064 57.683 56.976 57.187 56.976H55.723V59.064ZM61.8261 60V54.576H59.6541V53.64H65.0541V54.576H62.8821V60H61.8261ZM68.7797 60.12C68.2437 60.12 67.7397 60.004 67.2677 59.772C66.8037 59.54 66.4277 59.184 66.1397 58.704C65.8597 58.224 65.7197 57.616 65.7197 56.88V56.64C65.7197 55.936 65.8557 55.356 66.1277 54.9C66.3997 54.436 66.7597 54.092 67.2077 53.868C67.6557 53.636 68.1397 53.52 68.6597 53.52C69.5957 53.52 70.3197 53.776 70.8317 54.288C71.3437 54.8 71.5997 55.524 71.5997 56.46V57.132H66.7757C66.7757 57.628 66.8757 58.024 67.0757 58.32C67.2837 58.616 67.5397 58.832 67.8437 58.968C68.1557 59.096 68.4677 59.16 68.7797 59.16C69.2597 59.16 69.6277 59.08 69.8837 58.92C70.1477 58.76 70.3357 58.54 70.4477 58.26H71.4797C71.3517 58.868 71.0357 59.332 70.5317 59.652C70.0357 59.964 69.4517 60.12 68.7797 60.12ZM68.7197 54.48C68.3917 54.48 68.0797 54.544 67.7837 54.672C67.4877 54.792 67.2437 54.984 67.0517 55.248C66.8677 55.512 66.7757 55.852 66.7757 56.268H70.6037C70.5957 55.828 70.5037 55.48 70.3277 55.224C70.1597 54.96 69.9357 54.772 69.6557 54.66C69.3757 54.54 69.0637 54.48 68.7197 54.48ZM117.428 60.12C116.884 60.12 116.392 60.004 115.952 59.772C115.52 59.532 115.176 59.172 114.92 58.692C114.672 58.212 114.548 57.608 114.548 56.88V56.64C114.548 55.952 114.684 55.376 114.956 54.912C115.228 54.448 115.584 54.1 116.024 53.868C116.464 53.636 116.932 53.52 117.428 53.52C117.932 53.52 118.364 53.612 118.724 53.796C119.092 53.972 119.388 54.216 119.612 54.528C119.836 54.832 119.988 55.176 120.068 55.56H118.988C118.86 55.256 118.68 55 118.448 54.792C118.224 54.584 117.884 54.48 117.428 54.48C117.116 54.48 116.824 54.556 116.552 54.708C116.28 54.852 116.056 55.084 115.88 55.404C115.712 55.716 115.628 56.128 115.628 56.64V56.88C115.628 57.424 115.712 57.864 115.88 58.2C116.056 58.536 116.28 58.78 116.552 58.932C116.824 59.084 117.116 59.16 117.428 59.16C117.82 59.16 118.148 59.064 118.412 58.872C118.684 58.68 118.876 58.416 118.988 58.08H120.068C119.972 58.496 119.8 58.86 119.552 59.172C119.304 59.476 119 59.712 118.64 59.88C118.28 60.04 117.876 60.12 117.428 60.12ZM122.959 60V54.576H120.787V53.64H126.187V54.576H124.015V60H122.959ZM128.967 60.12C128.503 60.12 128.107 60.036 127.779 59.868C127.459 59.692 127.215 59.456 127.047 59.16C126.879 58.856 126.795 58.516 126.795 58.14C126.795 57.508 126.979 57.052 127.347 56.772C127.723 56.492 128.259 56.352 128.955 56.352H131.019V55.92C131.019 55.376 130.895 55 130.647 54.792C130.407 54.584 130.043 54.48 129.555 54.48C129.099 54.48 128.767 54.568 128.559 54.744C128.351 54.912 128.235 55.104 128.211 55.32H127.155C127.179 54.976 127.295 54.672 127.503 54.408C127.711 54.136 127.995 53.92 128.355 53.76C128.715 53.6 129.135 53.52 129.615 53.52C130.119 53.52 130.555 53.6 130.923 53.76C131.291 53.912 131.575 54.156 131.775 54.492C131.975 54.82 132.075 55.256 132.075 55.8V58.38C132.075 58.716 132.075 59.012 132.075 59.268C132.083 59.516 132.103 59.76 132.135 60H131.211C131.187 59.816 131.171 59.644 131.163 59.484C131.155 59.316 131.151 59.128 131.151 58.92C130.983 59.256 130.711 59.54 130.335 59.772C129.959 60.004 129.503 60.12 128.967 60.12ZM129.195 59.16C129.531 59.16 129.835 59.1 130.107 58.98C130.387 58.86 130.607 58.684 130.767 58.452C130.935 58.22 131.019 57.936 131.019 57.6V57.168H129.135C128.743 57.168 128.435 57.248 128.211 57.408C127.987 57.56 127.875 57.804 127.875 58.14C127.875 58.436 127.979 58.68 128.187 58.872C128.403 59.064 128.739 59.16 129.195 59.16ZM135.275 60V54.576H133.103V53.64H138.503V54.576H136.331V60H135.275ZM140.78 62.52C140.66 62.52 140.54 62.508 140.42 62.484V61.524C140.54 61.548 140.66 61.56 140.78 61.56C140.94 61.56 141.072 61.52 141.176 61.44C141.288 61.368 141.4 61.22 141.512 60.996C141.624 60.772 141.76 60.44 141.92 60L139.22 53.64H140.396L142.46 58.8L144.332 53.64H145.46L143.06 60C142.836 60.6 142.62 61.084 142.412 61.452C142.212 61.82 141.984 62.088 141.728 62.256C141.48 62.432 141.164 62.52 140.78 62.52ZM148.881 60.12C148.337 60.12 147.845 60.004 147.405 59.772C146.973 59.532 146.629 59.172 146.373 58.692C146.125 58.212 146.001 57.608 146.001 56.88V56.64C146.001 55.952 146.137 55.376 146.409 54.912C146.681 54.448 147.037 54.1 147.477 53.868C147.917 53.636 148.385 53.52 148.881 53.52C149.385 53.52 149.817 53.612 150.177 53.796C150.545 53.972 150.841 54.216 151.065 54.528C151.289 54.832 151.441 55.176 151.521 55.56H150.441C150.313 55.256 150.133 55 149.901 54.792C149.677 54.584 149.337 54.48 148.881 54.48C148.569 54.48 148.277 54.556 148.005 54.708C147.733 54.852 147.509 55.084 147.333 55.404C147.165 55.716 147.081 56.128 147.081 56.64V56.88C147.081 57.424 147.165 57.864 147.333 58.2C147.509 58.536 147.733 58.78 148.005 58.932C148.277 59.084 148.569 59.16 148.881 59.16C149.273 59.16 149.601 59.064 149.865 58.872C150.137 58.68 150.329 58.416 150.441 58.08H151.521C151.425 58.496 151.253 58.86 151.005 59.172C150.757 59.476 150.453 59.712 150.093 59.88C149.733 60.04 149.329 60.12 148.881 60.12ZM12.42 74.12C11.876 74.12 11.384 74.004 10.944 73.772C10.512 73.532 10.168 73.172 9.912 72.692C9.664 72.212 9.54 71.608 9.54 70.88V70.64C9.54 69.952 9.676 69.376 9.948 68.912C10.22 68.448 10.576 68.1 11.016 67.868C11.456 67.636 11.924 67.52 12.42 67.52C12.924 67.52 13.356 67.612 13.716 67.796C14.084 67.972 14.38 68.216 14.604 68.528C14.828 68.832 14.98 69.176 15.06 69.56H13.98C13.852 69.256 13.672 69 13.44 68.792C13.216 68.584 12.876 68.48 12.42 68.48C12.108 68.48 11.816 68.556 11.544 68.708C11.272 68.852 11.048 69.084 10.872 69.404C10.704 69.716 10.62 70.128 10.62 70.64V70.88C10.62 71.424 10.704 71.864 10.872 72.2C11.048 72.536 11.272 72.78 11.544 72.932C11.816 73.084 12.108 73.16 12.42 73.16C12.812 73.16 13.14 73.064 13.404 72.872C13.676 72.68 13.868 72.416 13.98 72.08H15.06C14.964 72.496 14.792 72.86 14.544 73.172C14.296 73.476 13.992 73.712 13.632 73.88C13.272 74.04 12.868 74.12 12.42 74.12ZM17.1047 76.52C16.9847 76.52 16.8647 76.508 16.7447 76.484V75.524C16.8647 75.548 16.9847 75.56 17.1047 75.56C17.2647 75.56 17.3967 75.52 17.5007 75.44C17.6127 75.368 17.7247 75.22 17.8367 74.996C17.9487 74.772 18.0847 74.44 18.2447 74L15.5447 67.64H16.7207L18.7847 72.8L20.6567 67.64H21.7847L19.3847 74C19.1607 74.6 18.9447 75.084 18.7367 75.452C18.5367 75.82 18.3087 76.088 18.0527 76.256C17.8047 76.432 17.4887 76.52 17.1047 76.52ZM21.8963 75.5V73.064H22.6763C22.7963 72.904 22.9003 72.636 22.9883 72.26C23.0763 71.876 23.1443 71.428 23.1923 70.916C23.2483 70.404 23.2763 69.872 23.2763 69.32V67.64H27.7162V73.064H28.6163V75.5H27.6083V74H22.9043V75.5H21.8963ZM23.7563 73.064H26.6603V68.576H24.3083V69.56C24.3083 70.232 24.2603 70.884 24.1643 71.516C24.0763 72.14 23.9403 72.656 23.7563 73.064ZM32.5219 74.12C31.9859 74.12 31.4819 74.004 31.0099 73.772C30.5459 73.54 30.1699 73.184 29.8819 72.704C29.6019 72.224 29.4619 71.616 29.4619 70.88V70.64C29.4619 69.936 29.5979 69.356 29.8699 68.9C30.1419 68.436 30.5019 68.092 30.9499 67.868C31.3979 67.636 31.8819 67.52 32.4019 67.52C33.3379 67.52 34.0619 67.776 34.5739 68.288C35.0859 68.8 35.3419 69.524 35.3419 70.46V71.132H30.5179C30.5179 71.628 30.6179 72.024 30.8179 72.32C31.0259 72.616 31.2819 72.832 31.5859 72.968C31.8979 73.096 32.2099 73.16 32.5219 73.16C33.0019 73.16 33.3699 73.08 33.6259 72.92C33.8899 72.76 34.0779 72.54 34.1899 72.26H35.2219C35.0939 72.868 34.7779 73.332 34.2739 73.652C33.7779 73.964 33.1939 74.12 32.5219 74.12ZM32.4619 68.48C32.1339 68.48 31.8219 68.544 31.5259 68.672C31.2299 68.792 30.9859 68.984 30.7939 69.248C30.6099 69.512 30.5179 69.852 30.5179 70.268H34.3459C34.3379 69.828 34.2459 69.48 34.0699 69.224C33.9019 68.96 33.6779 68.772 33.3979 68.66C33.1179 68.54 32.8059 68.48 32.4619 68.48ZM39.4828 74.12C38.9228 74.12 38.4148 73.98 37.9588 73.7C37.5108 73.412 37.1508 73 36.8788 72.464C36.6148 71.928 36.4828 71.28 36.4828 70.52V70.28C36.4828 69.32 36.5788 68.5 36.7708 67.82C36.9708 67.14 37.3068 66.612 37.7788 66.236C38.2508 65.852 38.8988 65.64 39.7228 65.6C40.0588 65.584 40.3668 65.572 40.6468 65.564C40.9268 65.548 41.1788 65.524 41.4028 65.492C41.6268 65.452 41.8268 65.388 42.0028 65.3V66.32C41.9228 66.368 41.7908 66.408 41.6068 66.44C41.4308 66.472 41.2028 66.5 40.9228 66.524C40.6428 66.54 40.3028 66.556 39.9028 66.572C39.3908 66.58 38.9588 66.664 38.6068 66.824C38.2628 66.984 37.9948 67.24 37.8028 67.592C37.6108 67.944 37.4908 68.42 37.4428 69.02C37.5708 68.732 37.7468 68.488 37.9708 68.288C38.1948 68.08 38.4548 67.92 38.7508 67.808C39.0468 67.696 39.3708 67.64 39.7228 67.64C40.2668 67.64 40.7428 67.76 41.1508 68C41.5668 68.24 41.8908 68.584 42.1228 69.032C42.3628 69.48 42.4828 70.016 42.4828 70.64V70.88C42.4828 71.536 42.3508 72.108 42.0868 72.596C41.8308 73.076 41.4748 73.452 41.0188 73.724C40.5708 73.988 40.0588 74.12 39.4828 74.12ZM39.4828 73.16C40.0428 73.16 40.5028 72.968 40.8628 72.584C41.2228 72.192 41.4028 71.624 41.4028 70.88V70.64C41.4028 70.024 41.2228 69.532 40.8628 69.164C40.5028 68.788 40.0428 68.6 39.4828 68.6C38.9228 68.6 38.4628 68.788 38.1028 69.164C37.7428 69.532 37.5628 70.024 37.5628 70.64V70.88C37.5628 71.352 37.6468 71.76 37.8148 72.104C37.9908 72.44 38.2228 72.7 38.5108 72.884C38.8068 73.068 39.1308 73.16 39.4828 73.16ZM43.9795 74V67.64H45.0355V70.292H48.3235V67.64H49.3795V74H48.3235V71.228H45.0355V74H43.9795ZM53.9438 74.12C53.4078 74.12 52.9038 74.004 52.4318 73.772C51.9678 73.532 51.5918 73.172 51.3038 72.692C51.0238 72.212 50.8838 71.608 50.8838 70.88V70.64C50.8838 69.952 51.0238 69.376 51.3038 68.912C51.5918 68.448 51.9678 68.1 52.4318 67.868C52.9038 67.636 53.4078 67.52 53.9438 67.52C54.4878 67.52 54.9918 67.636 55.4558 67.868C55.9198 68.1 56.2918 68.448 56.5718 68.912C56.8598 69.376 57.0038 69.952 57.0038 70.64V70.88C57.0038 71.608 56.8598 72.212 56.5718 72.692C56.2918 73.172 55.9198 73.532 55.4558 73.772C54.9918 74.004 54.4878 74.12 53.9438 74.12ZM53.9438 73.16C54.2718 73.16 54.5838 73.088 54.8798 72.944C55.1838 72.792 55.4318 72.548 55.6238 72.212C55.8238 71.876 55.9238 71.432 55.9238 70.88V70.64C55.9238 70.128 55.8238 69.716 55.6238 69.404C55.4318 69.084 55.1838 68.852 54.8798 68.708C54.5838 68.556 54.2718 68.48 53.9438 68.48C53.6238 68.48 53.3118 68.556 53.0078 68.708C52.7038 68.852 52.4518 69.084 52.2518 69.404C52.0598 69.716 51.9638 70.128 51.9638 70.64V70.88C51.9638 71.432 52.0598 71.876 52.2518 72.212C52.4518 72.548 52.7038 72.792 53.0078 72.944C53.3118 73.088 53.6238 73.16 53.9438 73.16ZM58.4991 74V67.64H62.8191V68.576H59.5551V74H58.4991ZM66.5414 74.12C66.0054 74.12 65.5014 74.004 65.0294 73.772C64.5654 73.532 64.1894 73.172 63.9014 72.692C63.6214 72.212 63.4814 71.608 63.4814 70.88V70.64C63.4814 69.952 63.6214 69.376 63.9014 68.912C64.1894 68.448 64.5654 68.1 65.0294 67.868C65.5014 67.636 66.0054 67.52 66.5414 67.52C67.0854 67.52 67.5894 67.636 68.0534 67.868C68.5174 68.1 68.8894 68.448 69.1694 68.912C69.4574 69.376 69.6014 69.952 69.6014 70.64V70.88C69.6014 71.608 69.4574 72.212 69.1694 72.692C68.8894 73.172 68.5174 73.532 68.0534 73.772C67.5894 74.004 67.0854 74.12 66.5414 74.12ZM66.5414 73.16C66.8694 73.16 67.1814 73.088 67.4774 72.944C67.7814 72.792 68.0294 72.548 68.2214 72.212C68.4214 71.876 68.5214 71.432 68.5214 70.88V70.64C68.5214 70.128 68.4214 69.716 68.2214 69.404C68.0294 69.084 67.7814 68.852 67.4774 68.708C67.1814 68.556 66.8694 68.48 66.5414 68.48C66.2214 68.48 65.9094 68.556 65.6054 68.708C65.3014 68.852 65.0494 69.084 64.8494 69.404C64.6574 69.716 64.5614 70.128 64.5614 70.64V70.88C64.5614 71.432 64.6574 71.876 64.8494 72.212C65.0494 72.548 65.3014 72.792 65.6054 72.944C65.9094 73.088 66.2214 73.16 66.5414 73.16ZM90.156 75.5V73.064H90.936C91.056 72.904 91.16 72.636 91.248 72.26C91.336 71.876 91.404 71.428 91.452 70.916C91.508 70.404 91.536 69.872 91.536 69.32V67.64H95.976V73.064H96.876V75.5H95.868V74H91.164V75.5H90.156ZM92.016 73.064H94.92V68.576H92.568V69.56C92.568 70.232 92.52 70.884 92.424 71.516C92.336 72.14 92.2 72.656 92.016 73.064ZM100.782 74.12C100.246 74.12 99.7416 74.004 99.2696 73.772C98.8056 73.54 98.4296 73.184 98.1416 72.704C97.8616 72.224 97.7216 71.616 97.7216 70.88V70.64C97.7216 69.936 97.8576 69.356 98.1296 68.9C98.4016 68.436 98.7616 68.092 99.2096 67.868C99.6576 67.636 100.142 67.52 100.662 67.52C101.598 67.52 102.322 67.776 102.834 68.288C103.346 68.8 103.602 69.524 103.602 70.46V71.132H98.7776C98.7776 71.628 98.8776 72.024 99.0776 72.32C99.2856 72.616 99.5416 72.832 99.8456 72.968C100.158 73.096 100.47 73.16 100.782 73.16C101.262 73.16 101.63 73.08 101.886 72.92C102.15 72.76 102.338 72.54 102.45 72.26H103.482C103.354 72.868 103.038 73.332 102.534 73.652C102.038 73.964 101.454 74.12 100.782 74.12ZM100.722 68.48C100.394 68.48 100.082 68.544 99.7856 68.672C99.4896 68.792 99.2456 68.984 99.0536 69.248C98.8696 69.512 98.7776 69.852 98.7776 70.268H102.606C102.598 69.828 102.506 69.48 102.33 69.224C102.162 68.96 101.938 68.772 101.658 68.66C101.378 68.54 101.066 68.48 100.722 68.48ZM104.685 74.12C104.629 74.12 104.569 74.116 104.505 74.108C104.449 74.1 104.389 74.092 104.325 74.084V73.028C104.349 73.036 104.409 73.04 104.505 73.04C104.745 73.04 104.941 72.936 105.093 72.728C105.245 72.512 105.353 72.136 105.417 71.6C105.489 71.056 105.525 70.296 105.525 69.32V67.64H110.085V74H109.029V68.576H106.581V69.56C106.581 70.448 106.541 71.188 106.461 71.78C106.381 72.364 106.261 72.828 106.101 73.172C105.949 73.516 105.753 73.76 105.513 73.904C105.273 74.048 104.997 74.12 104.685 74.12ZM113.817 74.12C113.353 74.12 112.957 74.036 112.629 73.868C112.309 73.692 112.065 73.456 111.897 73.16C111.729 72.856 111.645 72.516 111.645 72.14C111.645 71.508 111.829 71.052 112.197 70.772C112.573 70.492 113.109 70.352 113.805 70.352H115.869V69.92C115.869 69.376 115.745 69 115.497 68.792C115.257 68.584 114.893 68.48 114.405 68.48C113.949 68.48 113.617 68.568 113.409 68.744C113.201 68.912 113.085 69.104 113.061 69.32H112.005C112.029 68.976 112.145 68.672 112.353 68.408C112.561 68.136 112.845 67.92 113.205 67.76C113.565 67.6 113.985 67.52 114.465 67.52C114.969 67.52 115.405 67.6 115.773 67.76C116.141 67.912 116.425 68.156 116.625 68.492C116.825 68.82 116.925 69.256 116.925 69.8V72.38C116.925 72.716 116.925 73.012 116.925 73.268C116.933 73.516 116.953 73.76 116.985 74H116.061C116.037 73.816 116.021 73.644 116.013 73.484C116.005 73.316 116.001 73.128 116.001 72.92C115.833 73.256 115.561 73.54 115.185 73.772C114.809 74.004 114.353 74.12 113.817 74.12ZM114.045 73.16C114.381 73.16 114.685 73.1 114.957 72.98C115.237 72.86 115.457 72.684 115.617 72.452C115.785 72.22 115.869 71.936 115.869 71.6V71.168H113.985C113.593 71.168 113.285 71.248 113.061 71.408C112.837 71.56 112.725 71.804 112.725 72.14C112.725 72.436 112.829 72.68 113.037 72.872C113.253 73.064 113.589 73.16 114.045 73.16ZM138.569 74V67.64H143.849V74H142.793V68.576H139.625V74H138.569ZM148.405 74.12C147.869 74.12 147.365 74.004 146.893 73.772C146.429 73.532 146.053 73.172 145.765 72.692C145.485 72.212 145.345 71.608 145.345 70.88V70.64C145.345 69.952 145.485 69.376 145.765 68.912C146.053 68.448 146.429 68.1 146.893 67.868C147.365 67.636 147.869 67.52 148.405 67.52C148.949 67.52 149.453 67.636 149.917 67.868C150.381 68.1 150.753 68.448 151.033 68.912C151.321 69.376 151.465 69.952 151.465 70.64V70.88C151.465 71.608 151.321 72.212 151.033 72.692C150.753 73.172 150.381 73.532 149.917 73.772C149.453 74.004 148.949 74.12 148.405 74.12ZM148.405 73.16C148.733 73.16 149.045 73.088 149.341 72.944C149.645 72.792 149.893 72.548 150.085 72.212C150.285 71.876 150.385 71.432 150.385 70.88V70.64C150.385 70.128 150.285 69.716 150.085 69.404C149.893 69.084 149.645 68.852 149.341 68.708C149.045 68.556 148.733 68.48 148.405 68.48C148.085 68.48 147.773 68.556 147.469 68.708C147.165 68.852 146.913 69.084 146.713 69.404C146.521 69.716 146.425 70.128 146.425 70.64V70.88C146.425 71.432 146.521 71.876 146.713 72.212C146.913 72.548 147.165 72.792 147.469 72.944C147.773 73.088 148.085 73.16 148.405 73.16ZM9.96 88V81.64H11.016V84.292H14.304V81.64H15.36V88H14.304V85.228H11.016V88H9.96ZM19.9242 88.12C19.3882 88.12 18.8842 88.004 18.4122 87.772C17.9482 87.532 17.5722 87.172 17.2842 86.692C17.0042 86.212 16.8642 85.608 16.8642 84.88V84.64C16.8642 83.952 17.0042 83.376 17.2842 82.912C17.5722 82.448 17.9482 82.1 18.4122 81.868C18.8842 81.636 19.3882 81.52 19.9242 81.52C20.4682 81.52 20.9722 81.636 21.4362 81.868C21.9002 82.1 22.2722 82.448 22.5522 82.912C22.8402 83.376 22.9842 83.952 22.9842 84.64V84.88C22.9842 85.608 22.8402 86.212 22.5522 86.692C22.2722 87.172 21.9002 87.532 21.4362 87.772C20.9722 88.004 20.4682 88.12 19.9242 88.12ZM19.9242 87.16C20.2522 87.16 20.5642 87.088 20.8602 86.944C21.1642 86.792 21.4122 86.548 21.6042 86.212C21.8042 85.876 21.9042 85.432 21.9042 84.88V84.64C21.9042 84.128 21.8042 83.716 21.6042 83.404C21.4122 83.084 21.1642 82.852 20.8602 82.708C20.5642 82.556 20.2522 82.48 19.9242 82.48C19.6042 82.48 19.2922 82.556 18.9882 82.708C18.6842 82.852 18.4322 83.084 18.2322 83.404C18.0402 83.716 17.9442 84.128 17.9442 84.64V84.88C17.9442 85.432 18.0402 85.876 18.2322 86.212C18.4322 86.548 18.6842 86.792 18.9882 86.944C19.2922 87.088 19.6042 87.16 19.9242 87.16ZM24.4795 88V81.64H25.6075L27.8755 85.6L30.1435 81.64H31.1995V88H30.1435V83.38L28.2595 86.62H27.4195L25.5355 83.38V88H24.4795ZM35.7563 88.12C35.2203 88.12 34.7163 88.004 34.2443 87.772C33.7803 87.54 33.4043 87.184 33.1163 86.704C32.8363 86.224 32.6963 85.616 32.6963 84.88V84.64C32.6963 83.936 32.8323 83.356 33.1043 82.9C33.3763 82.436 33.7363 82.092 34.1843 81.868C34.6323 81.636 35.1163 81.52 35.6363 81.52C36.5723 81.52 37.2963 81.776 37.8083 82.288C38.3203 82.8 38.5763 83.524 38.5763 84.46V85.132H33.7523C33.7523 85.628 33.8523 86.024 34.0523 86.32C34.2603 86.616 34.5163 86.832 34.8203 86.968C35.1323 87.096 35.4443 87.16 35.7563 87.16C36.2363 87.16 36.6043 87.08 36.8603 86.92C37.1243 86.76 37.3123 86.54 37.4243 86.26H38.4563C38.3283 86.868 38.0123 87.332 37.5083 87.652C37.0123 87.964 36.4283 88.12 35.7563 88.12ZM35.6963 82.48C35.3683 82.48 35.0563 82.544 34.7603 82.672C34.4643 82.792 34.2203 82.984 34.0283 83.248C33.8443 83.512 33.7523 83.852 33.7523 84.268H37.5803C37.5723 83.828 37.4803 83.48 37.3043 83.224C37.1363 82.96 36.9123 82.772 36.6323 82.66C36.3523 82.54 36.0403 82.48 35.6963 82.48ZM40.0772 90.4V81.64H41.0612V82.84C41.2772 82.416 41.5772 82.092 41.9612 81.868C42.3532 81.636 42.8052 81.52 43.3172 81.52C44.1172 81.52 44.7572 81.784 45.2372 82.312C45.7172 82.832 45.9572 83.608 45.9572 84.64V84.88C45.9572 85.6 45.8452 86.2 45.6212 86.68C45.4052 87.16 45.0972 87.52 44.6972 87.76C44.3052 88 43.8452 88.12 43.3172 88.12C42.7732 88.12 42.3172 88 41.9492 87.76C41.5892 87.52 41.3172 87.22 41.1332 86.86V90.4H40.0772ZM43.0772 87.184C43.5972 87.184 44.0292 86.988 44.3732 86.596C44.7252 86.204 44.9012 85.632 44.9012 84.88V84.64C44.9012 83.944 44.7252 83.408 44.3732 83.032C44.0292 82.648 43.5972 82.456 43.0772 82.456C42.6932 82.456 42.3532 82.536 42.0572 82.696C41.7692 82.856 41.5412 83.076 41.3732 83.356C41.2132 83.628 41.1332 83.936 41.1332 84.28V85.24C41.1332 85.624 41.2132 85.964 41.3732 86.26C41.5412 86.548 41.7692 86.776 42.0572 86.944C42.3532 87.104 42.6932 87.184 43.0772 87.184ZM48.0656 90.52C47.9456 90.52 47.8256 90.508 47.7056 90.484V89.524C47.8256 89.548 47.9456 89.56 48.0656 89.56C48.2256 89.56 48.3576 89.52 48.4616 89.44C48.5736 89.368 48.6856 89.22 48.7976 88.996C48.9096 88.772 49.0456 88.44 49.2056 88L46.5056 81.64H47.6816L49.7456 86.8L51.6176 81.64H52.7456L50.3456 88C50.1216 88.6 49.9056 89.084 49.6976 89.452C49.4976 89.82 49.2696 90.088 49.0136 90.256C48.7656 90.432 48.4496 90.52 48.0656 90.52ZM68.2413 88V81.64H69.2973V86.44L72.5853 81.64H73.6413V88H72.5853V83.2L69.2973 88H68.2413ZM75.2655 88.12C75.2095 88.12 75.1495 88.116 75.0855 88.108C75.0295 88.1 74.9695 88.092 74.9055 88.084V87.028C74.9295 87.036 74.9895 87.04 75.0855 87.04C75.3255 87.04 75.5215 86.936 75.6735 86.728C75.8255 86.512 75.9335 86.136 75.9975 85.6C76.0695 85.056 76.1055 84.296 76.1055 83.32V81.64H80.6655V88H79.6095V82.576H77.1615V83.56C77.1615 84.448 77.1215 85.188 77.0415 85.78C76.9615 86.364 76.8415 86.828 76.6815 87.172C76.5295 87.516 76.3335 87.76 76.0935 87.904C75.8535 88.048 75.5775 88.12 75.2655 88.12ZM82.585 88V81.64H83.641V86.44L86.929 81.64H87.985V88H86.929V83.2L83.641 88H82.585ZM104.21 88V81.64H105.266V84.292H108.554V81.64H109.61V88H108.554V85.228H105.266V88H104.21ZM113.346 88.12C112.882 88.12 112.486 88.036 112.158 87.868C111.838 87.692 111.594 87.456 111.426 87.16C111.258 86.856 111.174 86.516 111.174 86.14C111.174 85.508 111.358 85.052 111.726 84.772C112.102 84.492 112.638 84.352 113.334 84.352H115.398V83.92C115.398 83.376 115.274 83 115.026 82.792C114.786 82.584 114.422 82.48 113.934 82.48C113.478 82.48 113.146 82.568 112.938 82.744C112.73 82.912 112.614 83.104 112.59 83.32H111.534C111.558 82.976 111.674 82.672 111.882 82.408C112.09 82.136 112.374 81.92 112.734 81.76C113.094 81.6 113.514 81.52 113.994 81.52C114.498 81.52 114.934 81.6 115.302 81.76C115.67 81.912 115.954 82.156 116.154 82.492C116.354 82.82 116.454 83.256 116.454 83.8V86.38C116.454 86.716 116.454 87.012 116.454 87.268C116.462 87.516 116.482 87.76 116.514 88H115.59C115.566 87.816 115.55 87.644 115.542 87.484C115.534 87.316 115.53 87.128 115.53 86.92C115.362 87.256 115.09 87.54 114.714 87.772C114.338 88.004 113.882 88.12 113.346 88.12ZM113.574 87.16C113.91 87.16 114.214 87.1 114.486 86.98C114.766 86.86 114.986 86.684 115.146 86.452C115.314 86.22 115.398 85.936 115.398 85.6V85.168H113.514C113.122 85.168 112.814 85.248 112.59 85.408C112.366 85.56 112.254 85.804 112.254 86.14C112.254 86.436 112.358 86.68 112.566 86.872C112.782 87.064 113.118 87.16 113.574 87.16ZM118.319 88V81.64H119.375V86.44L122.663 81.64H123.719V88H122.663V83.2L119.375 88H118.319ZM121.019 80.86C120.395 80.86 119.939 80.728 119.651 80.464C119.363 80.192 119.219 79.804 119.219 79.3H120.251C120.251 79.572 120.315 79.776 120.443 79.912C120.571 80.048 120.763 80.116 121.019 80.116C121.283 80.116 121.479 80.048 121.607 79.912C121.743 79.776 121.811 79.572 121.811 79.3H122.819C122.819 79.804 122.675 80.192 122.387 80.464C122.099 80.728 121.643 80.86 121.019 80.86ZM124.924 89.5V87.064H125.704C125.824 86.904 125.928 86.636 126.016 86.26C126.104 85.876 126.172 85.428 126.22 84.916C126.276 84.404 126.304 83.872 126.304 83.32V81.64H130.744V87.064H131.644V89.5H130.636V88H125.932V89.5H124.924ZM126.784 87.064H129.688V82.576H127.336V83.56C127.336 84.232 127.288 84.884 127.192 85.516C127.104 86.14 126.968 86.656 126.784 87.064ZM132.909 88V81.64H133.965V86.44L137.253 81.64H138.309V88H137.253V83.2L133.965 88H132.909ZM141.685 88V82.576H139.513V81.64H144.913V82.576H142.741V88H141.685ZM148.639 88.12C148.103 88.12 147.599 88.004 147.127 87.772C146.663 87.54 146.287 87.184 145.999 86.704C145.719 86.224 145.579 85.616 145.579 84.88V84.64C145.579 83.936 145.715 83.356 145.987 82.9C146.259 82.436 146.619 82.092 147.067 81.868C147.515 81.636 147.999 81.52 148.519 81.52C149.455 81.52 150.179 81.776 150.691 82.288C151.203 82.8 151.459 83.524 151.459 84.46V85.132H146.635C146.635 85.628 146.735 86.024 146.935 86.32C147.143 86.616 147.399 86.832 147.703 86.968C148.015 87.096 148.327 87.16 148.639 87.16C149.119 87.16 149.487 87.08 149.743 86.92C150.007 86.76 150.195 86.54 150.307 86.26H151.339C151.211 86.868 150.895 87.332 150.391 87.652C149.895 87.964 149.311 88.12 148.639 88.12ZM148.579 82.48C148.251 82.48 147.939 82.544 147.643 82.672C147.347 82.792 147.103 82.984 146.911 83.248C146.727 83.512 146.635 83.852 146.635 84.268H150.463C150.455 83.828 150.363 83.48 150.187 83.224C150.019 82.96 149.795 82.772 149.515 82.66C149.235 82.54 148.923 82.48 148.579 82.48ZM9.96 102V95.64H12.72C13.248 95.64 13.68 95.716 14.016 95.868C14.352 96.012 14.6 96.216 14.76 96.48C14.92 96.736 15 97.036 15 97.38C15 97.66 14.908 97.928 14.724 98.184C14.548 98.432 14.32 98.604 14.04 98.7C14.432 98.796 14.728 98.98 14.928 99.252C15.136 99.516 15.24 99.828 15.24 100.188C15.24 100.74 15.056 101.18 14.688 101.508C14.32 101.836 13.744 102 12.96 102H9.96ZM11.016 101.064H12.96C13.408 101.064 13.724 100.984 13.908 100.824C14.092 100.664 14.184 100.436 14.184 100.14C14.184 99.836 14.092 99.604 13.908 99.444C13.724 99.276 13.408 99.192 12.96 99.192H11.016V101.064ZM11.016 98.328H12.72C13.176 98.328 13.492 98.248 13.668 98.088C13.852 97.928 13.944 97.708 13.944 97.428C13.944 97.164 13.852 96.956 13.668 96.804C13.492 96.652 13.176 96.576 12.72 96.576H11.016V98.328ZM19.2052 102.12C18.6612 102.12 18.1692 102.004 17.7292 101.772C17.2972 101.532 16.9532 101.172 16.6972 100.692C16.4492 100.212 16.3252 99.608 16.3252 98.88V98.64C16.3252 97.952 16.4612 97.376 16.7332 96.912C17.0052 96.448 17.3612 96.1 17.8012 95.868C18.2412 95.636 18.7092 95.52 19.2052 95.52C19.7092 95.52 20.1412 95.612 20.5012 95.796C20.8692 95.972 21.1652 96.216 21.3892 96.528C21.6132 96.832 21.7652 97.176 21.8452 97.56H20.7652C20.6372 97.256 20.4572 97 20.2252 96.792C20.0012 96.584 19.6612 96.48 19.2052 96.48C18.8932 96.48 18.6012 96.556 18.3292 96.708C18.0572 96.852 17.8332 97.084 17.6572 97.404C17.4892 97.716 17.4052 98.128 17.4052 98.64V98.88C17.4052 99.424 17.4892 99.864 17.6572 100.2C17.8332 100.536 18.0572 100.78 18.3292 100.932C18.6012 101.084 18.8932 101.16 19.2052 101.16C19.5972 101.16 19.9252 101.064 20.1892 100.872C20.4612 100.68 20.6532 100.416 20.7652 100.08H21.8452C21.7492 100.496 21.5772 100.86 21.3292 101.172C21.0812 101.476 20.7772 101.712 20.4172 101.88C20.0572 102.04 19.6532 102.12 19.2052 102.12ZM25.9242 102.12C25.3882 102.12 24.8842 102.004 24.4122 101.772C23.9482 101.54 23.5722 101.184 23.2842 100.704C23.0042 100.224 22.8642 99.616 22.8642 98.88V98.64C22.8642 97.936 23.0002 97.356 23.2722 96.9C23.5442 96.436 23.9042 96.092 24.3522 95.868C24.8002 95.636 25.2842 95.52 25.8042 95.52C26.7402 95.52 27.4642 95.776 27.9762 96.288C28.4882 96.8 28.7442 97.524 28.7442 98.46V99.132H23.9202C23.9202 99.628 24.0202 100.024 24.2202 100.32C24.4282 100.616 24.6842 100.832 24.9882 100.968C25.3002 101.096 25.6122 101.16 25.9242 101.16C26.4042 101.16 26.7722 101.08 27.0282 100.92C27.2922 100.76 27.4802 100.54 27.5922 100.26H28.6242C28.4962 100.868 28.1802 101.332 27.6762 101.652C27.1802 101.964 26.5962 102.12 25.9242 102.12ZM25.8642 96.48C25.5362 96.48 25.2242 96.544 24.9282 96.672C24.6322 96.792 24.3882 96.984 24.1962 97.248C24.0122 97.512 23.9202 97.852 23.9202 98.268H27.7482C27.7402 97.828 27.6482 97.48 27.4722 97.224C27.3042 96.96 27.0802 96.772 26.8002 96.66C26.5202 96.54 26.2082 96.48 25.8642 96.48ZM36.0239 103.5V101.064H36.8039C36.9239 100.904 37.0279 100.636 37.1159 100.26C37.2039 99.876 37.2719 99.428 37.3199 98.916C37.3759 98.404 37.4039 97.872 37.4039 97.32V95.64H41.8439V101.064H42.7439V103.5H41.7359V102H37.0319V103.5H36.0239ZM37.8839 101.064H40.7879V96.576H38.4359V97.56C38.4359 98.232 38.3879 98.884 38.2919 99.516C38.2039 100.14 38.0679 100.656 37.8839 101.064ZM46.6495 102.12C46.1135 102.12 45.6095 102.004 45.1375 101.772C44.6735 101.54 44.2975 101.184 44.0095 100.704C43.7295 100.224 43.5895 99.616 43.5895 98.88V98.64C43.5895 97.936 43.7255 97.356 43.9975 96.9C44.2695 96.436 44.6295 96.092 45.0775 95.868C45.5255 95.636 46.0095 95.52 46.5295 95.52C47.4655 95.52 48.1895 95.776 48.7015 96.288C49.2135 96.8 49.4695 97.524 49.4695 98.46V99.132H44.6455C44.6455 99.628 44.7455 100.024 44.9455 100.32C45.1535 100.616 45.4095 100.832 45.7135 100.968C46.0255 101.096 46.3375 101.16 46.6495 101.16C47.1295 101.16 47.4975 101.08 47.7535 100.92C48.0175 100.76 48.2055 100.54 48.3175 100.26H49.3495C49.2215 100.868 48.9055 101.332 48.4015 101.652C47.9055 101.964 47.3215 102.12 46.6495 102.12ZM46.5895 96.48C46.2615 96.48 45.9495 96.544 45.6535 96.672C45.3575 96.792 45.1135 96.984 44.9215 97.248C44.7375 97.512 44.6455 97.852 44.6455 98.268H48.4735C48.4655 97.828 48.3735 97.48 48.1975 97.224C48.0295 96.96 47.8055 96.772 47.5255 96.66C47.2455 96.54 46.9335 96.48 46.5895 96.48ZM50.5532 102.12C50.4972 102.12 50.4372 102.116 50.3732 102.108C50.3172 102.1 50.2572 102.092 50.1932 102.084V101.028C50.2172 101.036 50.2772 101.04 50.3732 101.04C50.6132 101.04 50.8092 100.936 50.9612 100.728C51.1132 100.512 51.2212 100.136 51.2852 99.6C51.3572 99.056 51.3932 98.296 51.3932 97.32V95.64H55.9532V102H54.8972V96.576H52.4492V97.56C52.4492 98.448 52.4092 99.188 52.3292 99.78C52.2492 100.364 52.1292 100.828 51.9692 101.172C51.8172 101.516 51.6212 101.76 51.3812 101.904C51.1412 102.048 50.8652 102.12 50.5532 102.12ZM59.6848 102.12C59.2208 102.12 58.8248 102.036 58.4968 101.868C58.1768 101.692 57.9328 101.456 57.7648 101.16C57.5968 100.856 57.5128 100.516 57.5128 100.14C57.5128 99.508 57.6968 99.052 58.0648 98.772C58.4408 98.492 58.9768 98.352 59.6728 98.352H61.7368V97.92C61.7368 97.376 61.6128 97 61.3648 96.792C61.1248 96.584 60.7608 96.48 60.2728 96.48C59.8168 96.48 59.4848 96.568 59.2768 96.744C59.0688 96.912 58.9528 97.104 58.9288 97.32H57.8728C57.8968 96.976 58.0128 96.672 58.2208 96.408C58.4288 96.136 58.7128 95.92 59.0728 95.76C59.4328 95.6 59.8528 95.52 60.3328 95.52C60.8368 95.52 61.2728 95.6 61.6408 95.76C62.0088 95.912 62.2928 96.156 62.4928 96.492C62.6928 96.82 62.7928 97.256 62.7928 97.8V100.38C62.7928 100.716 62.7928 101.012 62.7928 101.268C62.8008 101.516 62.8208 101.76 62.8528 102H61.9288C61.9048 101.816 61.8888 101.644 61.8808 101.484C61.8728 101.316 61.8688 101.128 61.8688 100.92C61.7008 101.256 61.4288 101.54 61.0528 101.772C60.6768 102.004 60.2208 102.12 59.6848 102.12ZM59.9128 101.16C60.2488 101.16 60.5528 101.1 60.8248 100.98C61.1048 100.86 61.3248 100.684 61.4848 100.452C61.6528 100.22 61.7368 99.936 61.7368 99.6V99.168H59.8528C59.4608 99.168 59.1528 99.248 58.9288 99.408C58.7048 99.56 58.5928 99.804 58.5928 100.14C58.5928 100.436 58.6968 100.68 58.9048 100.872C59.1208 101.064 59.4568 101.16 59.9128 101.16ZM71.9966 104.52C71.8766 104.52 71.7566 104.508 71.6366 104.484V103.524C71.7566 103.548 71.8766 103.56 71.9966 103.56C72.1566 103.56 72.2886 103.52 72.3926 103.44C72.5046 103.368 72.6166 103.22 72.7286 102.996C72.8406 102.772 72.9766 102.44 73.1366 102L70.4366 95.64H71.6126L73.6766 100.8L75.5486 95.64H76.6766L74.2766 102C74.0526 102.6 73.8366 103.084 73.6286 103.452C73.4286 103.82 73.2006 104.088 72.9446 104.256C72.6966 104.432 72.3806 104.52 71.9966 104.52ZM81.6726 102V99.468C81.4886 99.58 81.2646 99.68 81.0006 99.768C80.7446 99.856 80.4206 99.9 80.0286 99.9C79.2846 99.9 78.7086 99.732 78.3006 99.396C77.8926 99.06 77.6886 98.488 77.6886 97.68V95.64H78.7446V97.5C78.7446 98.044 78.8566 98.42 79.0806 98.628C79.3046 98.836 79.6806 98.94 80.2086 98.94C80.5686 98.94 80.8766 98.904 81.1326 98.832C81.3886 98.76 81.5686 98.684 81.6726 98.604V95.64H82.7286V102H81.6726ZM86.4569 102.12C85.9929 102.12 85.5969 102.036 85.2689 101.868C84.9489 101.692 84.7049 101.456 84.5369 101.16C84.3689 100.856 84.2849 100.516 84.2849 100.14C84.2849 99.508 84.4689 99.052 84.8369 98.772C85.2129 98.492 85.7489 98.352 86.4449 98.352H88.5089V97.92C88.5089 97.376 88.3849 97 88.1369 96.792C87.8969 96.584 87.5329 96.48 87.0449 96.48C86.5889 96.48 86.2569 96.568 86.0489 96.744C85.8409 96.912 85.7249 97.104 85.7009 97.32H84.6449C84.6689 96.976 84.7849 96.672 84.9929 96.408C85.2009 96.136 85.4849 95.92 85.8449 95.76C86.2049 95.6 86.6249 95.52 87.1049 95.52C87.6089 95.52 88.0449 95.6 88.4129 95.76C88.7809 95.912 89.0649 96.156 89.2649 96.492C89.4649 96.82 89.5649 97.256 89.5649 97.8V100.38C89.5649 100.716 89.5649 101.012 89.5649 101.268C89.5729 101.516 89.5929 101.76 89.6249 102H88.7009C88.6769 101.816 88.6609 101.644 88.6529 101.484C88.6449 101.316 88.6409 101.128 88.6409 100.92C88.4729 101.256 88.2009 101.54 87.8249 101.772C87.4489 102.004 86.9929 102.12 86.4569 102.12ZM86.6849 101.16C87.0209 101.16 87.3249 101.1 87.5969 100.98C87.8769 100.86 88.0969 100.684 88.2569 100.452C88.4249 100.22 88.5089 99.936 88.5089 99.6V99.168H86.6249C86.2329 99.168 85.9249 99.248 85.7009 99.408C85.4769 99.56 85.3649 99.804 85.3649 100.14C85.3649 100.436 85.4689 100.68 85.6769 100.872C85.8929 101.064 86.2289 101.16 86.6849 101.16ZM93.8901 102.12C93.3461 102.12 92.8541 102.004 92.4141 101.772C91.9821 101.532 91.6381 101.172 91.3821 100.692C91.1341 100.212 91.0101 99.608 91.0101 98.88V98.64C91.0101 97.952 91.1461 97.376 91.4181 96.912C91.6901 96.448 92.0461 96.1 92.4861 95.868C92.9261 95.636 93.3941 95.52 93.8901 95.52C94.3941 95.52 94.8261 95.612 95.1861 95.796C95.5541 95.972 95.8501 96.216 96.0741 96.528C96.2981 96.832 96.4501 97.176 96.5301 97.56H95.4501C95.3221 97.256 95.1421 97 94.9101 96.792C94.6861 96.584 94.3461 96.48 93.8901 96.48C93.5781 96.48 93.2861 96.556 93.0141 96.708C92.7421 96.852 92.5181 97.084 92.3421 97.404C92.1741 97.716 92.0901 98.128 92.0901 98.64V98.88C92.0901 99.424 92.1741 99.864 92.3421 100.2C92.5181 100.536 92.7421 100.78 93.0141 100.932C93.2861 101.084 93.5781 101.16 93.8901 101.16C94.2821 101.16 94.6101 101.064 94.8741 100.872C95.1461 100.68 95.3381 100.416 95.4501 100.08H96.5301C96.4341 100.496 96.2621 100.86 96.0141 101.172C95.7661 101.476 95.4621 101.712 95.1021 101.88C94.7421 102.04 94.3381 102.12 93.8901 102.12ZM99.4211 102V96.576H97.2491V95.64H102.649V96.576H100.477V102H99.4211ZM103.852 102V95.64H104.908V98.292H108.196V95.64H109.252V102H108.196V99.228H104.908V102H103.852ZM111.176 102V95.64H112.232V100.44L115.52 95.64H116.576V102H115.52V97.2L112.232 102H111.176ZM118.5 102V95.64H119.556V98.304H120.396L122.772 95.64H124.02L121.26 98.688L124.14 102H122.796L120.396 99.216H119.556V102H118.5ZM127.098 102.12C126.634 102.12 126.238 102.036 125.91 101.868C125.59 101.692 125.346 101.456 125.178 101.16C125.01 100.856 124.926 100.516 124.926 100.14C124.926 99.508 125.11 99.052 125.478 98.772C125.854 98.492 126.39 98.352 127.086 98.352H129.15V97.92C129.15 97.376 129.026 97 128.778 96.792C128.538 96.584 128.174 96.48 127.686 96.48C127.23 96.48 126.898 96.568 126.69 96.744C126.482 96.912 126.366 97.104 126.342 97.32H125.286C125.31 96.976 125.426 96.672 125.634 96.408C125.842 96.136 126.126 95.92 126.486 95.76C126.846 95.6 127.266 95.52 127.746 95.52C128.25 95.52 128.686 95.6 129.054 95.76C129.422 95.912 129.706 96.156 129.906 96.492C130.106 96.82 130.206 97.256 130.206 97.8V100.38C130.206 100.716 130.206 101.012 130.206 101.268C130.214 101.516 130.234 101.76 130.266 102H129.342C129.318 101.816 129.302 101.644 129.294 101.484C129.286 101.316 129.282 101.128 129.282 100.92C129.114 101.256 128.842 101.54 128.466 101.772C128.09 102.004 127.634 102.12 127.098 102.12ZM127.326 101.16C127.662 101.16 127.966 101.1 128.238 100.98C128.518 100.86 128.738 100.684 128.898 100.452C129.066 100.22 129.15 99.936 129.15 99.6V99.168H127.266C126.874 99.168 126.566 99.248 126.342 99.408C126.118 99.56 126.006 99.804 126.006 100.14C126.006 100.436 126.11 100.68 126.318 100.872C126.534 101.064 126.87 101.16 127.326 101.16ZM138.569 102V95.64H143.849V102H142.793V96.576H139.625V102H138.569ZM148.405 102.12C147.869 102.12 147.365 102.004 146.893 101.772C146.429 101.532 146.053 101.172 145.765 100.692C145.485 100.212 145.345 99.608 145.345 98.88V98.64C145.345 97.952 145.485 97.376 145.765 96.912C146.053 96.448 146.429 96.1 146.893 95.868C147.365 95.636 147.869 95.52 148.405 95.52C148.949 95.52 149.453 95.636 149.917 95.868C150.381 96.1 150.753 96.448 151.033 96.912C151.321 97.376 151.465 97.952 151.465 98.64V98.88C151.465 99.608 151.321 100.212 151.033 100.692C150.753 101.172 150.381 101.532 149.917 101.772C149.453 102.004 148.949 102.12 148.405 102.12ZM148.405 101.16C148.733 101.16 149.045 101.088 149.341 100.944C149.645 100.792 149.893 100.548 150.085 100.212C150.285 99.876 150.385 99.432 150.385 98.88V98.64C150.385 98.128 150.285 97.716 150.085 97.404C149.893 97.084 149.645 96.852 149.341 96.708C149.045 96.556 148.733 96.48 148.405 96.48C148.085 96.48 147.773 96.556 147.469 96.708C147.165 96.852 146.913 97.084 146.713 97.404C146.521 97.716 146.425 98.128 146.425 98.64V98.88C146.425 99.432 146.521 99.876 146.713 100.212C146.913 100.548 147.165 100.792 147.469 100.944C147.773 101.088 148.085 101.16 148.405 101.16ZM10.2 116V107.6H11.328V114.2L15.792 107.6H16.92V116H15.792V109.4L11.328 116H10.2ZM19.3172 116V107.6H20.4452V111.188H24.9092V107.6H26.0372V116H24.9092V112.172H20.4452V116H19.3172ZM28.4344 116V107.6H29.5624V111.188H34.0264V107.6H35.1544V116H34.0264V112.172H29.5624V116H28.4344ZM38.1516 116.12C37.9996 116.12 37.8596 116.08 37.7316 116C37.6036 115.928 37.4996 115.828 37.4196 115.7C37.3476 115.572 37.3116 115.432 37.3116 115.28C37.3116 115.04 37.3916 114.84 37.5516 114.68C37.7196 114.52 37.9196 114.44 38.1516 114.44C38.3836 114.44 38.5796 114.52 38.7396 114.68C38.9076 114.84 38.9916 115.04 38.9916 115.28C38.9916 115.432 38.9516 115.572 38.8716 115.7C38.7996 115.828 38.6996 115.928 38.5716 116C38.4516 116.08 38.3116 116.12 38.1516 116.12Z" fill="white"/>
</svg>
