<svg width="160" height="130" viewBox="0 0 160 130" fill="none" xmlns="http://www.w3.org/2000/svg">
<rect width="160" height="130" rx="10" fill="#12204D"/>
<path d="M11.038 37V23H16.418C17.6846 23 18.7313 23.1933 19.558 23.58C20.3846 23.9533 20.998 24.4867 21.398 25.18C21.798 25.86 21.998 26.6667 21.998 27.6C21.998 28.5333 21.798 29.3467 21.398 30.04C20.998 30.72 20.3846 31.2533 19.558 31.64C18.7313 32.0133 17.6846 32.2 16.418 32.2H14.018V37H11.038ZM14.018 29.72H16.118C17.1846 29.72 17.9313 29.54 18.358 29.18C18.798 28.82 19.018 28.2933 19.018 27.6C19.018 26.92 18.798 26.4 18.358 26.04C17.9313 25.6667 17.1846 25.48 16.118 25.48H14.018V29.72ZM28.5234 37.24C27.5634 37.24 26.6768 37.0467 25.8634 36.66C25.0634 36.26 24.4234 35.66 23.9434 34.86C23.4634 34.0467 23.2234 33.0267 23.2234 31.8V31.4C23.2234 30.2267 23.4501 29.2533 23.9034 28.48C24.3701 27.7067 24.9901 27.1267 25.7634 26.74C26.5368 26.3533 27.3901 26.16 28.3234 26.16C29.9901 26.16 31.2568 26.6 32.1234 27.48C32.9901 28.36 33.4234 29.6333 33.4234 31.3V32.42H25.9234C25.9501 33.0467 26.0834 33.56 26.3234 33.96C26.5768 34.3467 26.8968 34.6333 27.2834 34.82C27.6701 34.9933 28.0834 35.08 28.5234 35.08C29.2034 35.08 29.7168 34.98 30.0634 34.78C30.4101 34.58 30.6568 34.2867 30.8034 33.9H33.2234C33.0101 35.0067 32.4834 35.84 31.6434 36.4C30.8034 36.96 29.7634 37.24 28.5234 37.24ZM28.4234 28.32C28.0101 28.32 27.6101 28.3867 27.2234 28.52C26.8368 28.6533 26.5301 28.8933 26.3034 29.24C26.0768 29.5733 25.9501 30.02 25.9234 30.58H30.8634C30.8501 29.98 30.7301 29.52 30.5034 29.2C30.2901 28.8667 30.0034 28.64 29.6434 28.52C29.2834 28.3867 28.8768 28.32 28.4234 28.32ZM35.345 37V26.4H37.965V30.56H38.945L42.225 26.4H45.125L41.125 31.42L45.325 37H42.165L38.945 32.64H37.965V37H35.345ZM46.8489 37V26.4H52.1289C53.0489 26.4 53.7956 26.52 54.3689 26.76C54.9422 27 55.3556 27.3333 55.6089 27.76C55.8756 28.1867 56.0089 28.6867 56.0089 29.26C56.0089 29.74 55.8622 30.2 55.5689 30.64C55.2756 31.0667 54.8622 31.3533 54.3289 31.5C54.9822 31.66 55.4889 31.9667 55.8489 32.42C56.2222 32.86 56.4089 33.38 56.4089 33.98C56.4089 34.9 56.0889 35.6333 55.4489 36.18C54.8089 36.7267 53.8356 37 52.5289 37H46.8489ZM49.4689 34.88H52.0289C52.6289 34.88 53.0689 34.7933 53.3489 34.62C53.6422 34.4333 53.7889 34.14 53.7889 33.74C53.7889 33.34 53.6489 33.0533 53.3689 32.88C53.1022 32.6933 52.6556 32.6 52.0289 32.6H49.4689V34.88ZM49.4689 30.64H51.7689C52.3822 30.64 52.8022 30.5533 53.0289 30.38C53.2689 30.2067 53.3889 29.94 53.3889 29.58C53.3889 29.2333 53.2689 28.9733 53.0289 28.8C52.7889 28.6133 52.3689 28.52 51.7689 28.52H49.4689V30.64ZM58.3528 37V26.4H60.9728V33.2L65.6928 26.4H68.1128V37H65.4928V30.2L60.7728 37H58.3528ZM74.7398 37.24C73.7265 37.24 72.8665 37.1 72.1598 36.82C71.4665 36.54 70.9332 36.1267 70.5598 35.58C70.1998 35.0333 69.9932 34.38 69.9398 33.62H72.6198C72.6465 33.9 72.7265 34.1467 72.8598 34.36C73.0065 34.5733 73.2265 34.7333 73.5198 34.84C73.8265 34.9467 74.2332 35 74.7398 35C75.5265 35 76.0732 34.8867 76.3798 34.66C76.6998 34.42 76.8598 34.1333 76.8598 33.8C76.8598 33.4 76.7265 33.1 76.4598 32.9C76.2065 32.7 75.7332 32.6 75.0398 32.6H73.4198V30.64H74.8998C75.4065 30.64 75.7932 30.5333 76.0598 30.32C76.3265 30.1067 76.4598 29.8267 76.4598 29.48C76.4598 29.1733 76.3265 28.92 76.0598 28.72C75.8065 28.5067 75.3665 28.4 74.7398 28.4C74.0865 28.4 73.6132 28.5133 73.3198 28.74C73.0265 28.9533 72.8598 29.2667 72.8198 29.68H70.1398C70.1932 28.92 70.3932 28.28 70.7398 27.76C71.0998 27.24 71.6132 26.8467 72.2798 26.58C72.9598 26.3 73.7798 26.16 74.7398 26.16C76.2865 26.16 77.4065 26.4467 78.0998 27.02C78.7932 27.58 79.1398 28.3267 79.1398 29.26C79.1398 29.7667 79.0065 30.22 78.7398 30.62C78.4865 31.02 78.0798 31.3133 77.5198 31.5C78.2798 31.6867 78.8065 31.9933 79.0998 32.42C79.3932 32.8333 79.5398 33.3267 79.5398 33.9C79.5398 34.54 79.3665 35.1133 79.0198 35.62C78.6732 36.1267 78.1465 36.5267 77.4398 36.82C76.7332 37.1 75.8332 37.24 74.7398 37.24ZM81.4388 37V26.4H84.0588V33.2L88.7788 26.4H91.1988V37H88.5788V30.2L83.8588 37H81.4388ZM96.2058 37V28.6H92.8258V26.4H102.206V28.6H98.8458V37H96.2058ZM103.822 37V26.4H106.442V29.96H108.302C109.675 29.96 110.695 30.2533 111.362 30.84C112.042 31.4267 112.382 32.3067 112.382 33.48C112.382 34.1733 112.242 34.7867 111.962 35.32C111.682 35.84 111.242 36.2533 110.642 36.56C110.055 36.8533 109.275 37 108.302 37H103.822ZM106.442 34.88H108.002C108.642 34.88 109.095 34.76 109.362 34.52C109.628 34.28 109.762 33.9333 109.762 33.48C109.762 33.0133 109.622 32.66 109.342 32.42C109.075 32.18 108.628 32.06 108.002 32.06H106.442V34.88ZM113.582 37V26.4H116.202V37H113.582Z" fill="white"/>
<path d="M10.2 60V51.6H16.8V60H15.672V52.584H11.328V60H10.2ZM21.6 60.12C21.064 60.12 20.56 60.004 20.088 59.772C19.624 59.532 19.248 59.172 18.96 58.692C18.68 58.212 18.54 57.608 18.54 56.88V56.64C18.54 55.952 18.68 55.376 18.96 54.912C19.248 54.448 19.624 54.1 20.088 53.868C20.56 53.636 21.064 53.52 21.6 53.52C22.144 53.52 22.648 53.636 23.112 53.868C23.576 54.1 23.948 54.448 24.228 54.912C24.516 55.376 24.66 55.952 24.66 56.64V56.88C24.66 57.608 24.516 58.212 24.228 58.692C23.948 59.172 23.576 59.532 23.112 59.772C22.648 60.004 22.144 60.12 21.6 60.12ZM21.6 59.16C21.928 59.16 22.24 59.088 22.536 58.944C22.84 58.792 23.088 58.548 23.28 58.212C23.48 57.876 23.58 57.432 23.58 56.88V56.64C23.58 56.128 23.48 55.716 23.28 55.404C23.088 55.084 22.84 54.852 22.536 54.708C22.24 54.556 21.928 54.48 21.6 54.48C21.28 54.48 20.968 54.556 20.664 54.708C20.36 54.852 20.108 55.084 19.908 55.404C19.716 55.716 19.62 56.128 19.62 56.64V56.88C19.62 57.432 19.716 57.876 19.908 58.212C20.108 58.548 20.36 58.792 20.664 58.944C20.968 59.088 21.28 59.16 21.6 59.16ZM25.7381 60.12C25.6821 60.12 25.6221 60.116 25.5581 60.108C25.5021 60.1 25.4421 60.092 25.3781 60.084V59.028C25.4021 59.036 25.4621 59.04 25.5581 59.04C25.7981 59.04 25.9941 58.936 26.1461 58.728C26.2981 58.512 26.4061 58.136 26.4701 57.6C26.5421 57.056 26.5781 56.296 26.5781 55.32V53.64H31.1381V60H30.0821V54.576H27.6341V55.56C27.6341 56.448 27.5941 57.188 27.5141 57.78C27.4341 58.364 27.3141 58.828 27.1541 59.172C27.0021 59.516 26.8061 59.76 26.5661 59.904C26.3261 60.048 26.0501 60.12 25.7381 60.12ZM33.8977 62.52C33.7777 62.52 33.6577 62.508 33.5377 62.484V61.524C33.6577 61.548 33.7777 61.56 33.8977 61.56C34.0577 61.56 34.1897 61.52 34.2937 61.44C34.4057 61.368 34.5177 61.22 34.6297 60.996C34.7417 60.772 34.8777 60.44 35.0377 60L32.3377 53.64H33.5137L35.5777 58.8L37.4497 53.64H38.5777L36.1777 60C35.9537 60.6 35.7377 61.084 35.5297 61.452C35.3297 61.82 35.1017 62.088 34.8457 62.256C34.5977 62.432 34.2817 62.52 33.8977 62.52ZM43.5737 60V57.468C43.3897 57.58 43.1657 57.68 42.9017 57.768C42.6457 57.856 42.3217 57.9 41.9297 57.9C41.1857 57.9 40.6097 57.732 40.2017 57.396C39.7937 57.06 39.5897 56.488 39.5897 55.68V53.64H40.6457V55.5C40.6457 56.044 40.7577 56.42 40.9817 56.628C41.2057 56.836 41.5817 56.94 42.1097 56.94C42.4697 56.94 42.7777 56.904 43.0337 56.832C43.2897 56.76 43.4697 56.684 43.5737 56.604V53.64H44.6297V60H43.5737ZM46.5459 60V53.64H47.6019V58.44L50.8899 53.64H51.9459V60H50.8899V55.2L47.6019 60H46.5459ZM55.3222 60V54.576H53.1502V53.64H58.5502V54.576H56.3782V60H55.3222ZM62.2758 60.12C61.7398 60.12 61.2358 60.004 60.7638 59.772C60.2998 59.54 59.9238 59.184 59.6358 58.704C59.3558 58.224 59.2158 57.616 59.2158 56.88V56.64C59.2158 55.936 59.3518 55.356 59.6238 54.9C59.8958 54.436 60.2558 54.092 60.7038 53.868C61.1518 53.636 61.6358 53.52 62.1558 53.52C63.0918 53.52 63.8158 53.776 64.3278 54.288C64.8398 54.8 65.0958 55.524 65.0958 56.46V57.132H60.2718C60.2718 57.628 60.3718 58.024 60.5718 58.32C60.7798 58.616 61.0358 58.832 61.3398 58.968C61.6518 59.096 61.9638 59.16 62.2758 59.16C62.7558 59.16 63.1238 59.08 63.3798 58.92C63.6438 58.76 63.8318 58.54 63.9438 58.26H64.9758C64.8478 58.868 64.5318 59.332 64.0278 59.652C63.5318 59.964 62.9478 60.12 62.2758 60.12ZM62.2158 54.48C61.8878 54.48 61.5758 54.544 61.2798 54.672C60.9838 54.792 60.7398 54.984 60.5478 55.248C60.3638 55.512 60.2718 55.852 60.2718 56.268H64.0998C64.0918 55.828 63.9998 55.48 63.8238 55.224C63.6558 54.96 63.4318 54.772 63.1518 54.66C62.8718 54.54 62.5598 54.48 62.2158 54.48ZM85.4556 60.12C84.9916 60.12 84.5956 60.036 84.2676 59.868C83.9476 59.692 83.7036 59.456 83.5356 59.16C83.3676 58.856 83.2836 58.516 83.2836 58.14C83.2836 57.508 83.4676 57.052 83.8356 56.772C84.2116 56.492 84.7476 56.352 85.4436 56.352H87.5076V55.92C87.5076 55.376 87.3836 55 87.1356 54.792C86.8956 54.584 86.5316 54.48 86.0436 54.48C85.5876 54.48 85.2556 54.568 85.0476 54.744C84.8396 54.912 84.7236 55.104 84.6996 55.32H83.6436C83.6676 54.976 83.7836 54.672 83.9916 54.408C84.1996 54.136 84.4836 53.92 84.8436 53.76C85.2036 53.6 85.6236 53.52 86.1036 53.52C86.6076 53.52 87.0436 53.6 87.4116 53.76C87.7796 53.912 88.0636 54.156 88.2636 54.492C88.4636 54.82 88.5636 55.256 88.5636 55.8V58.38C88.5636 58.716 88.5636 59.012 88.5636 59.268C88.5716 59.516 88.5916 59.76 88.6236 60H87.6996C87.6756 59.816 87.6596 59.644 87.6516 59.484C87.6436 59.316 87.6396 59.128 87.6396 58.92C87.4716 59.256 87.1996 59.54 86.8236 59.772C86.4476 60.004 85.9916 60.12 85.4556 60.12ZM85.6836 59.16C86.0196 59.16 86.3236 59.1 86.5956 58.98C86.8756 58.86 87.0956 58.684 87.2556 58.452C87.4236 58.22 87.5076 57.936 87.5076 57.6V57.168H85.6236C85.2316 57.168 84.9236 57.248 84.6996 57.408C84.4756 57.56 84.3636 57.804 84.3636 58.14C84.3636 58.436 84.4676 58.68 84.6756 58.872C84.8916 59.064 85.2276 59.16 85.6836 59.16ZM90.4288 60V53.64H91.4848V56.304H92.3248L94.7008 53.64H95.9488L93.1888 56.688L96.0688 60H94.7248L92.3248 57.216H91.4848V60H90.4288ZM98.7831 60V54.576H96.6111V53.64H102.011V54.576H99.8391V60H98.7831ZM104.288 62.52C104.168 62.52 104.048 62.508 103.928 62.484V61.524C104.048 61.548 104.168 61.56 104.288 61.56C104.448 61.56 104.58 61.52 104.684 61.44C104.796 61.368 104.908 61.22 105.02 60.996C105.132 60.772 105.268 60.44 105.428 60L102.728 53.64H103.904L105.968 58.8L107.84 53.64H108.968L106.568 60C106.344 60.6 106.128 61.084 105.92 61.452C105.72 61.82 105.492 62.088 105.236 62.256C104.988 62.432 104.672 62.52 104.288 62.52ZM111.612 60.12C111.148 60.12 110.752 60.036 110.424 59.868C110.104 59.692 109.86 59.456 109.692 59.16C109.524 58.856 109.44 58.516 109.44 58.14C109.44 57.508 109.624 57.052 109.992 56.772C110.368 56.492 110.904 56.352 111.6 56.352H113.664V55.92C113.664 55.376 113.54 55 113.292 54.792C113.052 54.584 112.688 54.48 112.2 54.48C111.744 54.48 111.412 54.568 111.204 54.744C110.996 54.912 110.88 55.104 110.856 55.32H109.8C109.824 54.976 109.94 54.672 110.148 54.408C110.356 54.136 110.64 53.92 111 53.76C111.36 53.6 111.78 53.52 112.26 53.52C112.764 53.52 113.2 53.6 113.568 53.76C113.936 53.912 114.22 54.156 114.42 54.492C114.62 54.82 114.72 55.256 114.72 55.8V58.38C114.72 58.716 114.72 59.012 114.72 59.268C114.728 59.516 114.748 59.76 114.78 60H113.856C113.832 59.816 113.816 59.644 113.808 59.484C113.8 59.316 113.796 59.128 113.796 58.92C113.628 59.256 113.356 59.54 112.98 59.772C112.604 60.004 112.148 60.12 111.612 60.12ZM111.84 59.16C112.176 59.16 112.48 59.1 112.752 58.98C113.032 58.86 113.252 58.684 113.412 58.452C113.58 58.22 113.664 57.936 113.664 57.6V57.168H111.78C111.388 57.168 111.08 57.248 110.856 57.408C110.632 57.56 110.52 57.804 110.52 58.14C110.52 58.436 110.624 58.68 110.832 58.872C111.048 59.064 111.384 59.16 111.84 59.16ZM116.285 60.12C116.229 60.12 116.169 60.116 116.105 60.108C116.049 60.1 115.989 60.092 115.925 60.084V59.028C115.949 59.036 116.009 59.04 116.105 59.04C116.345 59.04 116.541 58.936 116.693 58.728C116.845 58.512 116.953 58.136 117.017 57.6C117.089 57.056 117.125 56.296 117.125 55.32V53.64H121.685V60H120.629V54.576H118.181V55.56C118.181 56.448 118.141 57.188 118.061 57.78C117.981 58.364 117.861 58.828 117.701 59.172C117.549 59.516 117.353 59.76 117.113 59.904C116.873 60.048 116.597 60.12 116.285 60.12ZM123.605 60V53.64H124.661V56.04H126.185C126.985 56.04 127.573 56.216 127.949 56.568C128.333 56.92 128.525 57.408 128.525 58.032C128.525 58.432 128.441 58.78 128.273 59.076C128.105 59.372 127.849 59.6 127.505 59.76C127.161 59.92 126.721 60 126.185 60H123.605ZM124.661 59.064H126.125C126.621 59.064 126.969 58.976 127.169 58.8C127.369 58.624 127.469 58.364 127.469 58.02C127.469 57.676 127.369 57.416 127.169 57.24C126.969 57.064 126.621 56.976 126.125 56.976H124.661V59.064ZM129.909 60V53.64H130.965V56.292H134.253V53.64H135.309V60H134.253V57.228H130.965V60H129.909ZM137.233 60V53.64H138.289V56.04H139.573C140.373 56.04 140.961 56.216 141.337 56.568C141.721 56.92 141.913 57.408 141.913 58.032C141.913 58.432 141.829 58.78 141.661 59.076C141.493 59.372 141.237 59.6 140.893 59.76C140.549 59.92 140.109 60 139.573 60H137.233ZM138.289 59.064H139.513C140.009 59.064 140.357 58.976 140.557 58.8C140.757 58.624 140.857 58.364 140.857 58.02C140.857 57.676 140.757 57.416 140.557 57.24C140.357 57.064 140.009 56.976 139.513 56.976H138.289V59.064ZM142.897 60V53.64H143.953V60H142.897ZM148.639 60.12C148.103 60.12 147.599 60.004 147.127 59.772C146.663 59.54 146.287 59.184 145.999 58.704C145.719 58.224 145.579 57.616 145.579 56.88V56.64C145.579 55.936 145.715 55.356 145.987 54.9C146.259 54.436 146.619 54.092 147.067 53.868C147.515 53.636 147.999 53.52 148.519 53.52C149.455 53.52 150.179 53.776 150.691 54.288C151.203 54.8 151.459 55.524 151.459 56.46V57.132H146.635C146.635 57.628 146.735 58.024 146.935 58.32C147.143 58.616 147.399 58.832 147.703 58.968C148.015 59.096 148.327 59.16 148.639 59.16C149.119 59.16 149.487 59.08 149.743 58.92C150.007 58.76 150.195 58.54 150.307 58.26H151.339C151.211 58.868 150.895 59.332 150.391 59.652C149.895 59.964 149.311 60.12 148.639 60.12ZM148.579 54.48C148.251 54.48 147.939 54.544 147.643 54.672C147.347 54.792 147.103 54.984 146.911 55.248C146.727 55.512 146.635 55.852 146.635 56.268H150.463C150.455 55.828 150.363 55.48 150.187 55.224C150.019 54.96 149.795 54.772 149.515 54.66C149.235 54.54 148.923 54.48 148.579 54.48ZM9.96 76.4V67.64H10.944V68.84C11.16 68.416 11.46 68.092 11.844 67.868C12.236 67.636 12.688 67.52 13.2 67.52C14 67.52 14.64 67.784 15.12 68.312C15.6 68.832 15.84 69.608 15.84 70.64V70.88C15.84 71.6 15.728 72.2 15.504 72.68C15.288 73.16 14.98 73.52 14.58 73.76C14.188 74 13.728 74.12 13.2 74.12C12.656 74.12 12.2 74 11.832 73.76C11.472 73.52 11.2 73.22 11.016 72.86V76.4H9.96ZM12.96 73.184C13.48 73.184 13.912 72.988 14.256 72.596C14.608 72.204 14.784 71.632 14.784 70.88V70.64C14.784 69.944 14.608 69.408 14.256 69.032C13.912 68.648 13.48 68.456 12.96 68.456C12.576 68.456 12.236 68.536 11.94 68.696C11.652 68.856 11.424 69.076 11.256 69.356C11.096 69.628 11.016 69.936 11.016 70.28V71.24C11.016 71.624 11.096 71.964 11.256 72.26C11.424 72.548 11.652 72.776 11.94 72.944C12.236 73.104 12.576 73.184 12.96 73.184ZM19.9828 74.12C19.4468 74.12 18.9428 74.004 18.4708 73.772C18.0068 73.54 17.6308 73.184 17.3428 72.704C17.0628 72.224 16.9228 71.616 16.9228 70.88V70.64C16.9228 69.936 17.0588 69.356 17.3308 68.9C17.6028 68.436 17.9628 68.092 18.4108 67.868C18.8588 67.636 19.3428 67.52 19.8628 67.52C20.7988 67.52 21.5228 67.776 22.0348 68.288C22.5468 68.8 22.8028 69.524 22.8028 70.46V71.132H17.9788C17.9788 71.628 18.0788 72.024 18.2788 72.32C18.4868 72.616 18.7428 72.832 19.0468 72.968C19.3588 73.096 19.6708 73.16 19.9828 73.16C20.4628 73.16 20.8308 73.08 21.0868 72.92C21.3508 72.76 21.5388 72.54 21.6508 72.26H22.6828C22.5548 72.868 22.2388 73.332 21.7348 73.652C21.2388 73.964 20.6548 74.12 19.9828 74.12ZM19.9228 68.48C19.5948 68.48 19.2828 68.544 18.9868 68.672C18.6908 68.792 18.4468 68.984 18.2548 69.248C18.0708 69.512 17.9788 69.852 17.9788 70.268H21.8068C21.7988 69.828 21.7068 69.48 21.5308 69.224C21.3628 68.96 21.1388 68.772 20.8588 68.66C20.5788 68.54 20.2668 68.48 19.9228 68.48ZM24.3038 74V67.64H25.3598V70.304H26.1998L28.5758 67.64H29.8238L27.0638 70.688L29.9438 74H28.5998L26.1998 71.216H25.3598V74H24.3038ZM31.2061 74V67.64H33.9661C34.4941 67.64 34.9261 67.716 35.2621 67.868C35.5981 68.012 35.8461 68.216 36.0061 68.48C36.1661 68.736 36.2461 69.036 36.2461 69.38C36.2461 69.66 36.1541 69.928 35.9701 70.184C35.7941 70.432 35.5661 70.604 35.2861 70.7C35.6781 70.796 35.9741 70.98 36.1741 71.252C36.3821 71.516 36.4861 71.828 36.4861 72.188C36.4861 72.74 36.3021 73.18 35.9341 73.508C35.5661 73.836 34.9901 74 34.2061 74H31.2061ZM32.2621 73.064H34.2061C34.6541 73.064 34.9701 72.984 35.1541 72.824C35.3381 72.664 35.4301 72.436 35.4301 72.14C35.4301 71.836 35.3381 71.604 35.1541 71.444C34.9701 71.276 34.6541 71.192 34.2061 71.192H32.2621V73.064ZM32.2621 70.328H33.9661C34.4221 70.328 34.7381 70.248 34.9141 70.088C35.0981 69.928 35.1901 69.708 35.1901 69.428C35.1901 69.164 35.0981 68.956 34.9141 68.804C34.7381 68.652 34.4221 68.576 33.9661 68.576H32.2621V70.328ZM37.9913 74V67.64H39.0473V72.44L42.3353 67.64H43.3913V74H42.3353V69.2L39.0473 74H37.9913ZM47.4755 74.12C46.9475 74.12 46.4915 74.044 46.1075 73.892C45.7235 73.74 45.4235 73.52 45.2075 73.232C44.9915 72.944 44.8675 72.6 44.8355 72.2H45.8915C45.9315 72.408 46.0195 72.584 46.1555 72.728C46.2915 72.872 46.4715 72.98 46.6955 73.052C46.9195 73.124 47.1795 73.16 47.4755 73.16C48.0275 73.16 48.4275 73.068 48.6755 72.884C48.9315 72.692 49.0595 72.464 49.0595 72.2C49.0595 71.888 48.9555 71.644 48.7475 71.468C48.5395 71.284 48.1795 71.192 47.6675 71.192H46.5755V70.328H47.5955C48.0355 70.328 48.3475 70.244 48.5315 70.076C48.7235 69.908 48.8195 69.672 48.8195 69.368C48.8195 69.128 48.7075 68.92 48.4835 68.744C48.2595 68.568 47.9235 68.48 47.4755 68.48C46.9875 68.48 46.6315 68.56 46.4075 68.72C46.1915 68.872 46.0595 69.092 46.0115 69.38H44.9555C44.9875 69.02 45.1075 68.7 45.3155 68.42C45.5235 68.14 45.8115 67.92 46.1795 67.76C46.5475 67.6 46.9795 67.52 47.4755 67.52C48.2915 67.52 48.8955 67.692 49.2875 68.036C49.6795 68.38 49.8755 68.824 49.8755 69.368C49.8755 69.672 49.7995 69.94 49.6475 70.172C49.4955 70.396 49.2515 70.572 48.9155 70.7C49.3635 70.82 49.6755 71.012 49.8515 71.276C50.0275 71.54 50.1155 71.848 50.1155 72.2C50.1155 72.544 50.0155 72.864 49.8155 73.16C49.6155 73.448 49.3195 73.68 48.9275 73.856C48.5435 74.032 48.0595 74.12 47.4755 74.12ZM51.6202 74V67.64H52.6762V72.44L55.9642 67.64H57.0202V74H55.9642V69.2L52.6762 74H51.6202ZM60.3964 74V68.576H58.2244V67.64H63.6244V68.576H61.4524V74H60.3964ZM64.8272 74V67.64H65.8832V70.04H67.1672C67.9672 70.04 68.5552 70.216 68.9312 70.568C69.3152 70.92 69.5072 71.408 69.5072 72.032C69.5072 72.432 69.4232 72.78 69.2552 73.076C69.0872 73.372 68.8312 73.6 68.4872 73.76C68.1432 73.92 67.7032 74 67.1672 74H64.8272ZM65.8832 73.064H67.1072C67.6032 73.064 67.9512 72.976 68.1512 72.8C68.3512 72.624 68.4512 72.364 68.4512 72.02C68.4512 71.676 68.3512 71.416 68.1512 71.24C67.9512 71.064 67.6032 70.976 67.1072 70.976H65.8832V73.064ZM70.4912 74V67.64H71.5472V74H70.4912ZM80.7517 75.5V73.064H81.5317C81.6517 72.904 81.7557 72.636 81.8437 72.26C81.9317 71.876 81.9997 71.428 82.0477 70.916C82.1037 70.404 82.1317 69.872 82.1317 69.32V67.64H86.5717V73.064H87.4717V75.5H86.4637V74H81.7597V75.5H80.7517ZM82.6117 73.064H85.5157V68.576H83.1637V69.56C83.1637 70.232 83.1157 70.884 83.0197 71.516C82.9317 72.14 82.7957 72.656 82.6117 73.064ZM88.6717 74.12C88.6157 74.12 88.5557 74.116 88.4917 74.108C88.4357 74.1 88.3757 74.092 88.3117 74.084V73.028C88.3357 73.036 88.3957 73.04 88.4917 73.04C88.7317 73.04 88.9277 72.936 89.0797 72.728C89.2317 72.512 89.3397 72.136 89.4037 71.6C89.4757 71.056 89.5117 70.296 89.5117 69.32V67.64H94.0717V74H93.0157V68.576H90.5677V69.56C90.5677 70.448 90.5277 71.188 90.4477 71.78C90.3677 72.364 90.2477 72.828 90.0877 73.172C89.9357 73.516 89.7397 73.76 89.4997 73.904C89.2597 74.048 88.9837 74.12 88.6717 74.12ZM95.5113 74L97.2393 71.48C96.7113 71.36 96.3313 71.144 96.0993 70.832C95.8673 70.512 95.7513 70.104 95.7513 69.608C95.7513 69.192 95.8353 68.84 96.0033 68.552C96.1713 68.256 96.4313 68.032 96.7833 67.88C97.1353 67.72 97.5913 67.64 98.1513 67.64H100.911V74H99.8553V71.576H98.2353L96.6873 74H95.5113ZM96.8073 69.608C96.8073 69.944 96.9033 70.2 97.0953 70.376C97.2953 70.552 97.6273 70.64 98.0913 70.64H99.8553V68.576H98.0913C97.6273 68.576 97.2953 68.664 97.0953 68.84C96.9033 69.016 96.8073 69.272 96.8073 69.608ZM111.554 76.52C111.434 76.52 111.314 76.508 111.194 76.484V75.524C111.314 75.548 111.434 75.56 111.554 75.56C111.714 75.56 111.846 75.52 111.95 75.44C112.062 75.368 112.174 75.22 112.286 74.996C112.398 74.772 112.534 74.44 112.694 74L109.994 67.64H111.17L113.234 72.8L115.106 67.64H116.234L113.834 74C113.61 74.6 113.394 75.084 113.186 75.452C112.986 75.82 112.758 76.088 112.502 76.256C112.254 76.432 111.938 76.52 111.554 76.52ZM117.429 74V67.64H122.709V74H121.653V68.576H118.485V74H117.429ZM124.324 74.12C124.268 74.12 124.208 74.116 124.144 74.108C124.088 74.1 124.028 74.092 123.964 74.084V73.028C123.988 73.036 124.048 73.04 124.144 73.04C124.384 73.04 124.58 72.936 124.732 72.728C124.884 72.512 124.992 72.136 125.056 71.6C125.128 71.056 125.164 70.296 125.164 69.32V67.64H129.724V74H128.668V68.576H126.22V69.56C126.22 70.448 126.18 71.188 126.1 71.78C126.02 72.364 125.9 72.828 125.74 73.172C125.588 73.516 125.392 73.76 125.152 73.904C124.912 74.048 124.636 74.12 124.324 74.12ZM133.456 74.12C132.992 74.12 132.596 74.036 132.268 73.868C131.948 73.692 131.704 73.456 131.536 73.16C131.368 72.856 131.284 72.516 131.284 72.14C131.284 71.508 131.468 71.052 131.836 70.772C132.212 70.492 132.748 70.352 133.444 70.352H135.508V69.92C135.508 69.376 135.384 69 135.136 68.792C134.896 68.584 134.532 68.48 134.044 68.48C133.588 68.48 133.256 68.568 133.048 68.744C132.84 68.912 132.724 69.104 132.7 69.32H131.644C131.668 68.976 131.784 68.672 131.992 68.408C132.2 68.136 132.484 67.92 132.844 67.76C133.204 67.6 133.624 67.52 134.104 67.52C134.608 67.52 135.044 67.6 135.412 67.76C135.78 67.912 136.064 68.156 136.264 68.492C136.464 68.82 136.564 69.256 136.564 69.8V72.38C136.564 72.716 136.564 73.012 136.564 73.268C136.572 73.516 136.592 73.76 136.624 74H135.7C135.676 73.816 135.66 73.644 135.652 73.484C135.644 73.316 135.64 73.128 135.64 72.92C135.472 73.256 135.2 73.54 134.824 73.772C134.448 74.004 133.992 74.12 133.456 74.12ZM133.684 73.16C134.02 73.16 134.324 73.1 134.596 72.98C134.876 72.86 135.096 72.684 135.256 72.452C135.424 72.22 135.508 71.936 135.508 71.6V71.168H133.624C133.232 71.168 132.924 71.248 132.7 71.408C132.476 71.56 132.364 71.804 132.364 72.14C132.364 72.436 132.468 72.68 132.676 72.872C132.892 73.064 133.228 73.16 133.684 73.16ZM139.764 74V68.576H137.592V67.64H142.992V68.576H140.82V74H139.764ZM144.194 74V67.64H145.25V70.04H146.534C147.334 70.04 147.922 70.216 148.298 70.568C148.682 70.92 148.874 71.408 148.874 72.032C148.874 72.432 148.79 72.78 148.622 73.076C148.454 73.372 148.198 73.6 147.854 73.76C147.51 73.92 147.07 74 146.534 74H144.194ZM145.25 73.064H146.474C146.97 73.064 147.318 72.976 147.518 72.8C147.718 72.624 147.818 72.364 147.818 72.02C147.818 71.676 147.718 71.416 147.518 71.24C147.318 71.064 146.97 70.976 146.474 70.976H145.25V73.064ZM149.858 74V67.64H150.914V74H149.858ZM9.96 88V81.64H14.28V82.576H11.016V88H9.96ZM18.0023 88.12C17.4663 88.12 16.9623 88.004 16.4903 87.772C16.0263 87.532 15.6503 87.172 15.3623 86.692C15.0823 86.212 14.9423 85.608 14.9423 84.88V84.64C14.9423 83.952 15.0823 83.376 15.3623 82.912C15.6503 82.448 16.0263 82.1 16.4903 81.868C16.9623 81.636 17.4663 81.52 18.0023 81.52C18.5463 81.52 19.0503 81.636 19.5143 81.868C19.9783 82.1 20.3503 82.448 20.6303 82.912C20.9183 83.376 21.0623 83.952 21.0623 84.64V84.88C21.0623 85.608 20.9183 86.212 20.6303 86.692C20.3503 87.172 19.9783 87.532 19.5143 87.772C19.0503 88.004 18.5463 88.12 18.0023 88.12ZM18.0023 87.16C18.3303 87.16 18.6423 87.088 18.9383 86.944C19.2423 86.792 19.4903 86.548 19.6823 86.212C19.8823 85.876 19.9823 85.432 19.9823 84.88V84.64C19.9823 84.128 19.8823 83.716 19.6823 83.404C19.4903 83.084 19.2423 82.852 18.9383 82.708C18.6423 82.556 18.3303 82.48 18.0023 82.48C17.6823 82.48 17.3703 82.556 17.0663 82.708C16.7623 82.852 16.5103 83.084 16.3103 83.404C16.1183 83.716 16.0223 84.128 16.0223 84.64V84.88C16.0223 85.432 16.1183 85.876 16.3103 86.212C16.5103 86.548 16.7623 86.792 17.0663 86.944C17.3703 87.088 17.6823 87.16 18.0023 87.16ZM25.0177 88.12C24.4737 88.12 23.9817 88.004 23.5417 87.772C23.1097 87.532 22.7657 87.172 22.5097 86.692C22.2617 86.212 22.1377 85.608 22.1377 84.88V84.64C22.1377 83.952 22.2737 83.376 22.5457 82.912C22.8177 82.448 23.1737 82.1 23.6137 81.868C24.0537 81.636 24.5217 81.52 25.0177 81.52C25.5217 81.52 25.9537 81.612 26.3137 81.796C26.6817 81.972 26.9777 82.216 27.2017 82.528C27.4257 82.832 27.5777 83.176 27.6577 83.56H26.5777C26.4497 83.256 26.2697 83 26.0377 82.792C25.8137 82.584 25.4737 82.48 25.0177 82.48C24.7057 82.48 24.4137 82.556 24.1417 82.708C23.8697 82.852 23.6457 83.084 23.4697 83.404C23.3017 83.716 23.2177 84.128 23.2177 84.64V84.88C23.2177 85.424 23.3017 85.864 23.4697 86.2C23.6457 86.536 23.8697 86.78 24.1417 86.932C24.4137 87.084 24.7057 87.16 25.0177 87.16C25.4097 87.16 25.7377 87.064 26.0017 86.872C26.2737 86.68 26.4657 86.416 26.5777 86.08H27.6577C27.5617 86.496 27.3897 86.86 27.1417 87.172C26.8937 87.476 26.5897 87.712 26.2297 87.88C25.8697 88.04 25.4657 88.12 25.0177 88.12ZM29.7023 90.52C29.5823 90.52 29.4623 90.508 29.3423 90.484V89.524C29.4623 89.548 29.5823 89.56 29.7023 89.56C29.8623 89.56 29.9943 89.52 30.0983 89.44C30.2103 89.368 30.3223 89.22 30.4343 88.996C30.5463 88.772 30.6823 88.44 30.8423 88L28.1423 81.64H29.3183L31.3823 86.8L33.2543 81.64H34.3823L31.9823 88C31.7583 88.6 31.5423 89.084 31.3343 89.452C31.1343 89.82 30.9063 90.088 30.6503 90.256C30.4023 90.432 30.0863 90.52 29.7023 90.52ZM34.4939 89.5V87.064H35.2739C35.3939 86.904 35.4979 86.636 35.5859 86.26C35.6739 85.876 35.7419 85.428 35.7899 84.916C35.8459 84.404 35.8739 83.872 35.8739 83.32V81.64H40.3139V87.064H41.2139V89.5H40.2059V88H35.5019V89.5H34.4939ZM36.3539 87.064H39.2579V82.576H36.9059V83.56C36.9059 84.232 36.8579 84.884 36.7619 85.516C36.6739 86.14 36.5379 86.656 36.3539 87.064ZM44.4087 88.12C43.9447 88.12 43.5487 88.036 43.2207 87.868C42.9007 87.692 42.6567 87.456 42.4887 87.16C42.3207 86.856 42.2367 86.516 42.2367 86.14C42.2367 85.508 42.4207 85.052 42.7887 84.772C43.1647 84.492 43.7007 84.352 44.3967 84.352H46.4607V83.92C46.4607 83.376 46.3367 83 46.0887 82.792C45.8487 82.584 45.4847 82.48 44.9967 82.48C44.5407 82.48 44.2087 82.568 44.0007 82.744C43.7927 82.912 43.6767 83.104 43.6527 83.32H42.5967C42.6207 82.976 42.7367 82.672 42.9447 82.408C43.1527 82.136 43.4367 81.92 43.7967 81.76C44.1567 81.6 44.5767 81.52 45.0567 81.52C45.5607 81.52 45.9967 81.6 46.3647 81.76C46.7327 81.912 47.0167 82.156 47.2167 82.492C47.4167 82.82 47.5167 83.256 47.5167 83.8V86.38C47.5167 86.716 47.5167 87.012 47.5167 87.268C47.5247 87.516 47.5447 87.76 47.5767 88H46.6527C46.6287 87.816 46.6127 87.644 46.6047 87.484C46.5967 87.316 46.5927 87.128 46.5927 86.92C46.4247 87.256 46.1527 87.54 45.7767 87.772C45.4007 88.004 44.9447 88.12 44.4087 88.12ZM44.6367 87.16C44.9727 87.16 45.2767 87.1 45.5487 86.98C45.8287 86.86 46.0487 86.684 46.2087 86.452C46.3767 86.22 46.4607 85.936 46.4607 85.6V85.168H44.5767C44.1847 85.168 43.8767 85.248 43.6527 85.408C43.4287 85.56 43.3167 85.804 43.3167 86.14C43.3167 86.436 43.4207 86.68 43.6287 86.872C43.8447 87.064 44.1807 87.16 44.6367 87.16ZM49.3819 90.4V81.64H50.3659V82.84C50.5819 82.416 50.8819 82.092 51.2659 81.868C51.6579 81.636 52.1099 81.52 52.6219 81.52C53.4219 81.52 54.0619 81.784 54.5419 82.312C55.0219 82.832 55.2619 83.608 55.2619 84.64V84.88C55.2619 85.6 55.1499 86.2 54.9259 86.68C54.7099 87.16 54.4019 87.52 54.0019 87.76C53.6099 88 53.1499 88.12 52.6219 88.12C52.0779 88.12 51.6219 88 51.2539 87.76C50.8939 87.52 50.6219 87.22 50.4379 86.86V90.4H49.3819ZM52.3819 87.184C52.9019 87.184 53.3339 86.988 53.6779 86.596C54.0299 86.204 54.2059 85.632 54.2059 84.88V84.64C54.2059 83.944 54.0299 83.408 53.6779 83.032C53.3339 82.648 52.9019 82.456 52.3819 82.456C51.9979 82.456 51.6579 82.536 51.3619 82.696C51.0739 82.856 50.8459 83.076 50.6779 83.356C50.5179 83.628 50.4379 83.936 50.4379 84.28V85.24C50.4379 85.624 50.5179 85.964 50.6779 86.26C50.8459 86.548 51.0739 86.776 51.3619 86.944C51.6579 87.104 51.9979 87.184 52.3819 87.184ZM59.2247 88.12C58.6807 88.12 58.1887 88.004 57.7487 87.772C57.3167 87.532 56.9727 87.172 56.7167 86.692C56.4687 86.212 56.3447 85.608 56.3447 84.88V84.64C56.3447 83.952 56.4807 83.376 56.7527 82.912C57.0247 82.448 57.3807 82.1 57.8207 81.868C58.2607 81.636 58.7287 81.52 59.2247 81.52C59.7287 81.52 60.1607 81.612 60.5207 81.796C60.8887 81.972 61.1847 82.216 61.4087 82.528C61.6327 82.832 61.7847 83.176 61.8647 83.56H60.7847C60.6567 83.256 60.4767 83 60.2447 82.792C60.0207 82.584 59.6807 82.48 59.2247 82.48C58.9127 82.48 58.6207 82.556 58.3487 82.708C58.0767 82.852 57.8527 83.084 57.6767 83.404C57.5087 83.716 57.4247 84.128 57.4247 84.64V84.88C57.4247 85.424 57.5087 85.864 57.6767 86.2C57.8527 86.536 58.0767 86.78 58.3487 86.932C58.6207 87.084 58.9127 87.16 59.2247 87.16C59.6167 87.16 59.9447 87.064 60.2087 86.872C60.4807 86.68 60.6727 86.416 60.7847 86.08H61.8647C61.7687 86.496 61.5967 86.86 61.3487 87.172C61.1007 87.476 60.7967 87.712 60.4367 87.88C60.0767 88.04 59.6727 88.12 59.2247 88.12ZM64.7558 88V82.576H62.5838V81.64H67.9838V82.576H65.8118V88H64.7558ZM69.1866 88V81.64H71.9466C72.4746 81.64 72.9066 81.716 73.2426 81.868C73.5786 82.012 73.8266 82.216 73.9866 82.48C74.1466 82.736 74.2266 83.036 74.2266 83.38C74.2266 83.66 74.1346 83.928 73.9506 84.184C73.7746 84.432 73.5466 84.604 73.2666 84.7C73.6586 84.796 73.9546 84.98 74.1546 85.252C74.3626 85.516 74.4666 85.828 74.4666 86.188C74.4666 86.74 74.2826 87.18 73.9146 87.508C73.5466 87.836 72.9706 88 72.1866 88H69.1866ZM70.2426 87.064H72.1866C72.6346 87.064 72.9506 86.984 73.1346 86.824C73.3186 86.664 73.4106 86.436 73.4106 86.14C73.4106 85.836 73.3186 85.604 73.1346 85.444C72.9506 85.276 72.6346 85.192 72.1866 85.192H70.2426V87.064ZM70.2426 84.328H71.9466C72.4026 84.328 72.7186 84.248 72.8946 84.088C73.0786 83.928 73.1706 83.708 73.1706 83.428C73.1706 83.164 73.0786 82.956 72.8946 82.804C72.7186 82.652 72.4026 82.576 71.9466 82.576H70.2426V84.328ZM78.6117 88.12C78.0757 88.12 77.5717 88.004 77.0997 87.772C76.6357 87.54 76.2597 87.184 75.9717 86.704C75.6917 86.224 75.5517 85.616 75.5517 84.88V84.64C75.5517 83.936 75.6877 83.356 75.9597 82.9C76.2317 82.436 76.5917 82.092 77.0397 81.868C77.4877 81.636 77.9717 81.52 78.4917 81.52C79.4277 81.52 80.1517 81.776 80.6637 82.288C81.1757 82.8 81.4317 83.524 81.4317 84.46V85.132H76.6077C76.6077 85.628 76.7077 86.024 76.9077 86.32C77.1157 86.616 77.3717 86.832 77.6757 86.968C77.9877 87.096 78.2997 87.16 78.6117 87.16C79.0917 87.16 79.4597 87.08 79.7157 86.92C79.9797 86.76 80.1677 86.54 80.2797 86.26H81.3117C81.1837 86.868 80.8677 87.332 80.3637 87.652C79.8677 87.964 79.2837 88.12 78.6117 88.12ZM78.5517 82.48C78.2237 82.48 77.9117 82.544 77.6157 82.672C77.3197 82.792 77.0757 82.984 76.8837 83.248C76.6997 83.512 76.6077 83.852 76.6077 84.268H80.4357C80.4277 83.828 80.3357 83.48 80.1597 83.224C79.9917 82.96 79.7677 82.772 79.4877 82.66C79.2077 82.54 78.8957 82.48 78.5517 82.48ZM82.9327 88V81.64H83.9887V84.292H87.2767V81.64H88.3327V88H87.2767V85.228H83.9887V88H82.9327ZM90.2569 88V81.64H91.3129V84.292H94.6009V81.64H95.6569V88H94.6009V85.228H91.3129V88H90.2569ZM100.221 88.12C99.6851 88.12 99.1811 88.004 98.7091 87.772C98.2451 87.532 97.8691 87.172 97.5811 86.692C97.3011 86.212 97.1611 85.608 97.1611 84.88V84.64C97.1611 83.952 97.3011 83.376 97.5811 82.912C97.8691 82.448 98.2451 82.1 98.7091 81.868C99.1811 81.636 99.6851 81.52 100.221 81.52C100.765 81.52 101.269 81.636 101.733 81.868C102.197 82.1 102.569 82.448 102.849 82.912C103.137 83.376 103.281 83.952 103.281 84.64V84.88C103.281 85.608 103.137 86.212 102.849 86.692C102.569 87.172 102.197 87.532 101.733 87.772C101.269 88.004 100.765 88.12 100.221 88.12ZM100.221 87.16C100.549 87.16 100.861 87.088 101.157 86.944C101.461 86.792 101.709 86.548 101.901 86.212C102.101 85.876 102.201 85.432 102.201 84.88V84.64C102.201 84.128 102.101 83.716 101.901 83.404C101.709 83.084 101.461 82.852 101.157 82.708C100.861 82.556 100.549 82.48 100.221 82.48C99.9011 82.48 99.5891 82.556 99.2851 82.708C98.9811 82.852 98.7291 83.084 98.5291 83.404C98.3371 83.716 98.2411 84.128 98.2411 84.64V84.88C98.2411 85.432 98.3371 85.876 98.5291 86.212C98.7291 86.548 98.9811 86.792 99.2851 86.944C99.5891 87.088 99.9011 87.16 100.221 87.16ZM104.776 88V81.64H105.832V86.44L109.12 81.64H110.176V88H109.12V83.2L105.832 88H104.776ZM107.476 80.86C106.852 80.86 106.396 80.728 106.108 80.464C105.82 80.192 105.676 79.804 105.676 79.3H106.708C106.708 79.572 106.772 79.776 106.9 79.912C107.028 80.048 107.22 80.116 107.476 80.116C107.74 80.116 107.936 80.048 108.064 79.912C108.2 79.776 108.268 79.572 108.268 79.3H109.276C109.276 79.804 109.132 80.192 108.844 80.464C108.556 80.728 108.1 80.86 107.476 80.86ZM9.96 102V95.64H15.24V102H14.184V96.576H11.016V102H9.96ZM19.7953 102.12C19.2593 102.12 18.7553 102.004 18.2833 101.772C17.8193 101.532 17.4433 101.172 17.1553 100.692C16.8753 100.212 16.7353 99.608 16.7353 98.88V98.64C16.7353 97.952 16.8753 97.376 17.1553 96.912C17.4433 96.448 17.8193 96.1 18.2833 95.868C18.7553 95.636 19.2593 95.52 19.7953 95.52C20.3393 95.52 20.8433 95.636 21.3073 95.868C21.7713 96.1 22.1433 96.448 22.4233 96.912C22.7113 97.376 22.8553 97.952 22.8553 98.64V98.88C22.8553 99.608 22.7113 100.212 22.4233 100.692C22.1433 101.172 21.7713 101.532 21.3073 101.772C20.8433 102.004 20.3393 102.12 19.7953 102.12ZM19.7953 101.16C20.1233 101.16 20.4353 101.088 20.7313 100.944C21.0353 100.792 21.2833 100.548 21.4753 100.212C21.6753 99.876 21.7753 99.432 21.7753 98.88V98.64C21.7753 98.128 21.6753 97.716 21.4753 97.404C21.2833 97.084 21.0353 96.852 20.7313 96.708C20.4353 96.556 20.1233 96.48 19.7953 96.48C19.4753 96.48 19.1633 96.556 18.8593 96.708C18.5553 96.852 18.3033 97.084 18.1033 97.404C17.9113 97.716 17.8153 98.128 17.8153 98.64V98.88C17.8153 99.432 17.9113 99.876 18.1033 100.212C18.3033 100.548 18.5553 100.792 18.8593 100.944C19.1633 101.088 19.4753 101.16 19.7953 101.16ZM24.3506 102V95.64H25.4066V101.064H27.7226V95.64H28.7786V101.064H31.0946V95.64H32.1506V102H24.3506ZM33.7655 102.12C33.7095 102.12 33.6495 102.116 33.5855 102.108C33.5295 102.1 33.4695 102.092 33.4055 102.084V101.028C33.4295 101.036 33.4895 101.04 33.5855 101.04C33.8255 101.04 34.0215 100.936 34.1735 100.728C34.3255 100.512 34.4335 100.136 34.4975 99.6C34.5695 99.056 34.6055 98.296 34.6055 97.32V95.64H39.1655V102H38.1095V96.576H35.6615V97.56C35.6615 98.448 35.6215 99.188 35.5415 99.78C35.4615 100.364 35.3415 100.828 35.1815 101.172C35.0295 101.516 34.8335 101.76 34.5935 101.904C34.3535 102.048 34.0775 102.12 33.7655 102.12ZM41.085 102V95.64H42.141V100.44L45.429 95.64H46.485V102H45.429V97.2L42.141 102H41.085ZM48.4092 102V95.64H49.4652V98.292H52.7532V95.64H53.8092V102H52.7532V99.228H49.4652V102H48.4092ZM55.7334 102V95.64H56.7894V98.04H58.0734C58.8734 98.04 59.4614 98.216 59.8374 98.568C60.2214 98.92 60.4134 99.408 60.4134 100.032C60.4134 100.432 60.3294 100.78 60.1614 101.076C59.9934 101.372 59.7374 101.6 59.3934 101.76C59.0494 101.92 58.6094 102 58.0734 102H55.7334ZM56.7894 101.064H58.0134C58.5094 101.064 58.8574 100.976 59.0574 100.8C59.2574 100.624 59.3574 100.364 59.3574 100.02C59.3574 99.676 59.2574 99.416 59.0574 99.24C58.8574 99.064 58.5094 98.976 58.0134 98.976H56.7894V101.064ZM61.3974 102V95.64H62.4534V102H61.3974ZM65.3391 102.12C65.1871 102.12 65.0471 102.08 64.9191 102C64.7911 101.928 64.6871 101.828 64.6071 101.7C64.5351 101.572 64.4991 101.432 64.4991 101.28C64.4991 101.04 64.5791 100.84 64.7391 100.68C64.9071 100.52 65.1071 100.44 65.3391 100.44C65.5711 100.44 65.7671 100.52 65.9271 100.68C66.0951 100.84 66.1791 101.04 66.1791 101.28C66.1791 101.432 66.1391 101.572 66.0591 101.7C65.9871 101.828 65.8871 101.928 65.7591 102C65.6391 102.08 65.4991 102.12 65.3391 102.12ZM65.3391 97.2C65.1871 97.2 65.0471 97.164 64.9191 97.092C64.7911 97.012 64.6871 96.908 64.6071 96.78C64.5351 96.652 64.4991 96.512 64.4991 96.36C64.4991 96.12 64.5791 95.92 64.7391 95.76C64.9071 95.6 65.1071 95.52 65.3391 95.52C65.5711 95.52 65.7671 95.6 65.9271 95.76C66.0951 95.92 66.1791 96.12 66.1791 96.36C66.1791 96.512 66.1391 96.652 66.0591 96.78C65.9871 96.908 65.8871 97.012 65.7591 97.092C65.6391 97.164 65.4991 97.2 65.3391 97.2ZM80.2938 102V93.6H81.4218V100.2L85.8858 93.6H87.0138V102H85.8858V95.4L81.4218 102H80.2938ZM89.4109 102V93.6H90.5389V97.188H95.0029V93.6H96.1309V102H95.0029V98.172H90.5389V102H89.4109ZM98.5281 102V93.6H99.6561V97.188H104.12V93.6H105.248V102H104.12V98.172H99.6561V102H98.5281ZM107.105 103.8L107.585 102V100.68H108.905V102L107.705 103.8H107.105ZM123.2 102V93.6H124.328V97.212H125.288L128.576 93.6H129.92L126.248 97.608L130.04 102H128.6L125.288 98.148H124.328V102H123.2ZM131.602 102V93.6H138.202V102H137.074V94.584H132.73V102H131.602ZM140.602 102V93.6H147.202V102H146.074V94.584H141.73V102H140.602ZM149.062 103.8L149.542 102V100.68H150.862V102L149.662 103.8H149.062ZM10.2 116V107.6H15.66V108.572H11.328V110.96H13.2C14.312 110.96 15.128 111.192 15.648 111.656C16.176 112.12 16.44 112.728 16.44 113.48C16.44 114.232 16.176 114.84 15.648 115.304C15.128 115.768 14.312 116 13.2 116H10.2ZM11.328 115.016H13.14C13.94 115.016 14.5 114.884 14.82 114.62C15.148 114.348 15.312 113.968 15.312 113.48C15.312 112.992 15.148 112.616 14.82 112.352C14.5 112.08 13.94 111.944 13.14 111.944H11.328V115.016ZM18.1805 116V107.6H19.3085V114.2L23.7725 107.6H24.9005V116H23.7725V109.4L19.3085 116H18.1805ZM27.2977 116V107.6H28.4257V111.212H29.3857L32.6737 107.6H34.0177L30.3457 111.608L34.1377 116H32.6977L29.3857 112.148H28.4257V116H27.2977ZM35.16 117.8L35.64 116V114.68H36.96V116L35.76 117.8H35.16ZM42.0577 116V109.64H43.1137V112.292H46.4017V109.64H47.4577V116H46.4017V113.228H43.1137V116H42.0577ZM52.0219 116.12C51.4859 116.12 50.9819 116.004 50.5099 115.772C50.0459 115.532 49.6699 115.172 49.3819 114.692C49.1019 114.212 48.9619 113.608 48.9619 112.88V112.64C48.9619 111.952 49.1019 111.376 49.3819 110.912C49.6699 110.448 50.0459 110.1 50.5099 109.868C50.9819 109.636 51.4859 109.52 52.0219 109.52C52.5659 109.52 53.0699 109.636 53.5339 109.868C53.9979 110.1 54.3699 110.448 54.6499 110.912C54.9379 111.376 55.0819 111.952 55.0819 112.64V112.88C55.0819 113.608 54.9379 114.212 54.6499 114.692C54.3699 115.172 53.9979 115.532 53.5339 115.772C53.0699 116.004 52.5659 116.12 52.0219 116.12ZM52.0219 115.16C52.3499 115.16 52.6619 115.088 52.9579 114.944C53.2619 114.792 53.5099 114.548 53.7019 114.212C53.9019 113.876 54.0019 113.432 54.0019 112.88V112.64C54.0019 112.128 53.9019 111.716 53.7019 111.404C53.5099 111.084 53.2619 110.852 52.9579 110.708C52.6619 110.556 52.3499 110.48 52.0219 110.48C51.7019 110.48 51.3899 110.556 51.0859 110.708C50.7819 110.852 50.5299 111.084 50.3299 111.404C50.1379 111.716 50.0419 112.128 50.0419 112.64V112.88C50.0419 113.432 50.1379 113.876 50.3299 114.212C50.5299 114.548 50.7819 114.792 51.0859 114.944C51.3899 115.088 51.7019 115.16 52.0219 115.16ZM56.5772 116V109.64H57.7052L59.9732 113.6L62.2412 109.64H63.2972V116H62.2412V111.38L60.3572 114.62H59.5172L57.6332 111.38V116H56.5772ZM67.8539 116.12C67.3179 116.12 66.8139 116.004 66.3419 115.772C65.8779 115.54 65.5019 115.184 65.2139 114.704C64.9339 114.224 64.7939 113.616 64.7939 112.88V112.64C64.7939 111.936 64.9299 111.356 65.2019 110.9C65.4739 110.436 65.8339 110.092 66.2819 109.868C66.7299 109.636 67.2139 109.52 67.7339 109.52C68.6699 109.52 69.3939 109.776 69.9059 110.288C70.4179 110.8 70.6739 111.524 70.6739 112.46V113.132H65.8499C65.8499 113.628 65.9499 114.024 66.1499 114.32C66.3579 114.616 66.6139 114.832 66.9179 114.968C67.2299 115.096 67.5419 115.16 67.8539 115.16C68.3339 115.16 68.7019 115.08 68.9579 114.92C69.2219 114.76 69.4099 114.54 69.5219 114.26H70.5539C70.4259 114.868 70.1099 115.332 69.6059 115.652C69.1099 115.964 68.5259 116.12 67.8539 116.12ZM67.7939 110.48C67.4659 110.48 67.1539 110.544 66.8579 110.672C66.5619 110.792 66.3179 110.984 66.1259 111.248C65.9419 111.512 65.8499 111.852 65.8499 112.268H69.6779C69.6699 111.828 69.5779 111.48 69.4019 111.224C69.2339 110.96 69.0099 110.772 68.7299 110.66C68.4499 110.54 68.1379 110.48 67.7939 110.48ZM72.1748 118.4V109.64H73.1588V110.84C73.3748 110.416 73.6748 110.092 74.0588 109.868C74.4508 109.636 74.9028 109.52 75.4148 109.52C76.2148 109.52 76.8548 109.784 77.3348 110.312C77.8148 110.832 78.0548 111.608 78.0548 112.64V112.88C78.0548 113.6 77.9428 114.2 77.7188 114.68C77.5028 115.16 77.1948 115.52 76.7948 115.76C76.4028 116 75.9428 116.12 75.4148 116.12C74.8708 116.12 74.4148 116 74.0468 115.76C73.6868 115.52 73.4148 115.22 73.2308 114.86V118.4H72.1748ZM75.1748 115.184C75.6948 115.184 76.1268 114.988 76.4708 114.596C76.8228 114.204 76.9988 113.632 76.9988 112.88V112.64C76.9988 111.944 76.8228 111.408 76.4708 111.032C76.1268 110.648 75.6948 110.456 75.1748 110.456C74.7908 110.456 74.4508 110.536 74.1548 110.696C73.8668 110.856 73.6388 111.076 73.4708 111.356C73.3108 111.628 73.2308 111.936 73.2308 112.28V113.24C73.2308 113.624 73.3108 113.964 73.4708 114.26C73.6388 114.548 73.8668 114.776 74.1548 114.944C74.4508 115.104 74.7908 115.184 75.1748 115.184ZM85.0177 116.12C84.4737 116.12 83.9817 116.004 83.5417 115.772C83.1097 115.532 82.7657 115.172 82.5097 114.692C82.2617 114.212 82.1377 113.608 82.1377 112.88V112.64C82.1377 111.952 82.2737 111.376 82.5457 110.912C82.8177 110.448 83.1737 110.1 83.6137 109.868C84.0537 109.636 84.5217 109.52 85.0177 109.52C85.5217 109.52 85.9537 109.612 86.3137 109.796C86.6817 109.972 86.9777 110.216 87.2017 110.528C87.4257 110.832 87.5777 111.176 87.6577 111.56H86.5777C86.4497 111.256 86.2697 111 86.0377 110.792C85.8137 110.584 85.4737 110.48 85.0177 110.48C84.7057 110.48 84.4137 110.556 84.1417 110.708C83.8697 110.852 83.6457 111.084 83.4697 111.404C83.3017 111.716 83.2177 112.128 83.2177 112.64V112.88C83.2177 113.424 83.3017 113.864 83.4697 114.2C83.6457 114.536 83.8697 114.78 84.1417 114.932C84.4137 115.084 84.7057 115.16 85.0177 115.16C85.4097 115.16 85.7377 115.064 86.0017 114.872C86.2737 114.68 86.4657 114.416 86.5777 114.08H87.6577C87.5617 114.496 87.3897 114.86 87.1417 115.172C86.8937 115.476 86.5897 115.712 86.2297 115.88C85.8697 116.04 85.4657 116.12 85.0177 116.12ZM92.7807 116V113.468C92.5967 113.58 92.3727 113.68 92.1087 113.768C91.8527 113.856 91.5287 113.9 91.1367 113.9C90.3927 113.9 89.8167 113.732 89.4087 113.396C89.0007 113.06 88.7967 112.488 88.7967 111.68V109.64H89.8527V111.5C89.8527 112.044 89.9647 112.42 90.1887 112.628C90.4127 112.836 90.7887 112.94 91.3167 112.94C91.6767 112.94 91.9847 112.904 92.2407 112.832C92.4967 112.76 92.6767 112.684 92.7807 112.604V109.64H93.8367V116H92.7807ZM98.393 116.12C97.857 116.12 97.353 116.004 96.881 115.772C96.417 115.54 96.041 115.184 95.753 114.704C95.473 114.224 95.333 113.616 95.333 112.88V112.64C95.333 111.936 95.469 111.356 95.741 110.9C96.013 110.436 96.373 110.092 96.821 109.868C97.269 109.636 97.753 109.52 98.273 109.52C99.209 109.52 99.933 109.776 100.445 110.288C100.957 110.8 101.213 111.524 101.213 112.46V113.132H96.389C96.389 113.628 96.489 114.024 96.689 114.32C96.897 114.616 97.153 114.832 97.457 114.968C97.769 115.096 98.081 115.16 98.393 115.16C98.873 115.16 99.241 115.08 99.497 114.92C99.761 114.76 99.949 114.54 100.061 114.26H101.093C100.965 114.868 100.649 115.332 100.145 115.652C99.649 115.964 99.065 116.12 98.393 116.12ZM98.333 110.48C98.005 110.48 97.693 110.544 97.397 110.672C97.101 110.792 96.857 110.984 96.665 111.248C96.481 111.512 96.389 111.852 96.389 112.268H100.217C100.209 111.828 100.117 111.48 99.941 111.224C99.773 110.96 99.549 110.772 99.269 110.66C98.989 110.54 98.677 110.48 98.333 110.48ZM104.049 116V110.576H101.877V109.64H107.277V110.576H105.105V116H104.049ZM110.057 116.12C109.593 116.12 109.197 116.036 108.869 115.868C108.549 115.692 108.305 115.456 108.137 115.16C107.969 114.856 107.885 114.516 107.885 114.14C107.885 113.508 108.069 113.052 108.437 112.772C108.813 112.492 109.349 112.352 110.045 112.352H112.109V111.92C112.109 111.376 111.985 111 111.737 110.792C111.497 110.584 111.133 110.48 110.645 110.48C110.189 110.48 109.857 110.568 109.649 110.744C109.441 110.912 109.325 111.104 109.301 111.32H108.245C108.269 110.976 108.385 110.672 108.593 110.408C108.801 110.136 109.085 109.92 109.445 109.76C109.805 109.6 110.225 109.52 110.705 109.52C111.209 109.52 111.645 109.6 112.013 109.76C112.381 109.912 112.665 110.156 112.865 110.492C113.065 110.82 113.165 111.256 113.165 111.8V114.38C113.165 114.716 113.165 115.012 113.165 115.268C113.173 115.516 113.193 115.76 113.225 116H112.301C112.277 115.816 112.261 115.644 112.253 115.484C112.245 115.316 112.241 115.128 112.241 114.92C112.073 115.256 111.801 115.54 111.425 115.772C111.049 116.004 110.593 116.12 110.057 116.12ZM110.285 115.16C110.621 115.16 110.925 115.1 111.197 114.98C111.477 114.86 111.697 114.684 111.857 114.452C112.025 114.22 112.109 113.936 112.109 113.6V113.168H110.225C109.833 113.168 109.525 113.248 109.301 113.408C109.077 113.56 108.965 113.804 108.965 114.14C108.965 114.436 109.069 114.68 109.277 114.872C109.493 115.064 109.829 115.16 110.285 115.16ZM114.73 117.8L115.21 116V114.68H116.53V116L115.33 117.8H114.73ZM121.868 116V107.6H122.996V111.212H123.956L127.244 107.6H128.588L124.916 111.608L128.708 116H127.268L123.956 112.148H122.996V116H121.868ZM130.27 116V107.6H135.73V108.572H131.398V110.96H133.27C134.382 110.96 135.198 111.192 135.718 111.656C136.246 112.12 136.51 112.728 136.51 113.48C136.51 114.232 136.246 114.84 135.718 115.304C135.198 115.768 134.382 116 133.27 116H130.27ZM131.398 115.016H133.21C134.01 115.016 134.57 114.884 134.89 114.62C135.218 114.348 135.382 113.968 135.382 113.48C135.382 112.992 135.218 112.616 134.89 112.352C134.57 112.08 134.01 111.944 133.21 111.944H131.398V115.016ZM138.251 116V107.6H139.379V111.212H140.339L143.627 107.6H144.971L141.299 111.608L145.091 116H143.651L140.339 112.148H139.379V116H138.251ZM147.253 116.12C147.101 116.12 146.961 116.08 146.833 116C146.705 115.928 146.601 115.828 146.521 115.7C146.449 115.572 146.413 115.432 146.413 115.28C146.413 115.04 146.493 114.84 146.653 114.68C146.821 114.52 147.021 114.44 147.253 114.44C147.485 114.44 147.681 114.52 147.841 114.68C148.009 114.84 148.093 115.04 148.093 115.28C148.093 115.432 148.053 115.572 147.973 115.7C147.901 115.828 147.801 115.928 147.673 116C147.553 116.08 147.413 116.12 147.253 116.12Z" fill="white"/>
</svg>
