<svg width="331" height="43" viewBox="0 0 331 43" fill="none" xmlns="http://www.w3.org/2000/svg">
<rect y="3" width="331" height="40" rx="10" fill="#12204D"/>
<path d="M109.944 31V14.2H124.056V31H120.48V17.176H113.52V31H109.944ZM138.72 31.288C137.664 31.288 136.664 31.128 135.72 30.808C134.776 30.488 133.928 29.992 133.176 29.32C132.44 28.632 131.856 27.744 131.424 26.656C131.008 25.568 130.8 24.256 130.8 22.72V22.24C130.8 20.768 131.008 19.512 131.424 18.472C131.856 17.416 132.44 16.552 133.176 15.88C133.928 15.208 134.776 14.712 135.72 14.392C136.664 14.072 137.664 13.912 138.72 13.912C139.776 13.912 140.776 14.072 141.72 14.392C142.664 14.712 143.504 15.208 144.24 15.88C144.992 16.552 145.576 17.416 145.992 18.472C146.424 19.512 146.64 20.768 146.64 22.24V22.72C146.64 24.256 146.424 25.568 145.992 26.656C145.576 27.744 144.992 28.632 144.24 29.32C143.504 29.992 142.664 30.488 141.72 30.808C140.776 31.128 139.776 31.288 138.72 31.288ZM138.72 28.264C139.456 28.264 140.136 28.096 140.76 27.76C141.4 27.408 141.912 26.832 142.296 26.032C142.696 25.216 142.896 24.112 142.896 22.72V22.24C142.896 20.928 142.696 19.888 142.296 19.12C141.912 18.336 141.4 17.776 140.76 17.44C140.136 17.104 139.456 16.936 138.72 16.936C138 16.936 137.32 17.104 136.68 17.44C136.04 17.776 135.52 18.336 135.12 19.12C134.736 19.888 134.544 20.928 134.544 22.24V22.72C134.544 24.112 134.736 25.216 135.12 26.032C135.52 26.832 136.04 27.408 136.68 27.76C137.32 28.096 138 28.264 138.72 28.264ZM153.355 31V14.2H156.931L162.043 23.656L167.131 14.2H170.611V31H167.011V20.32L163.027 27.64H160.891L156.931 20.32V31H153.355ZM185.225 31.288C184.169 31.288 183.169 31.128 182.225 30.808C181.281 30.488 180.433 29.992 179.681 29.32C178.945 28.632 178.361 27.744 177.929 26.656C177.513 25.568 177.305 24.256 177.305 22.72V22.24C177.305 20.768 177.513 19.512 177.929 18.472C178.361 17.416 178.945 16.552 179.681 15.88C180.433 15.208 181.281 14.712 182.225 14.392C183.169 14.072 184.169 13.912 185.225 13.912C186.281 13.912 187.281 14.072 188.225 14.392C189.169 14.712 190.009 15.208 190.745 15.88C191.497 16.552 192.081 17.416 192.497 18.472C192.929 19.512 193.145 20.768 193.145 22.24V22.72C193.145 24.256 192.929 25.568 192.497 26.656C192.081 27.744 191.497 28.632 190.745 29.32C190.009 29.992 189.169 30.488 188.225 30.808C187.281 31.128 186.281 31.288 185.225 31.288ZM185.225 28.264C185.961 28.264 186.641 28.096 187.265 27.76C187.905 27.408 188.417 26.832 188.801 26.032C189.201 25.216 189.401 24.112 189.401 22.72V22.24C189.401 20.928 189.201 19.888 188.801 19.12C188.417 18.336 187.905 17.776 187.265 17.44C186.641 17.104 185.961 16.936 185.225 16.936C184.505 16.936 183.825 17.104 183.185 17.44C182.545 17.776 182.025 18.336 181.625 19.12C181.241 19.888 181.049 20.928 181.049 22.24V22.72C181.049 24.112 181.241 25.216 181.625 26.032C182.025 26.832 182.545 27.408 183.185 27.76C183.825 28.096 184.505 28.264 185.225 28.264ZM199.86 31V14.2H203.436V28.024H207.996V14.2H211.572V28.024H216.156V14.2H219.756V28.024H221.796V34.12H218.58V31H199.86ZM228.069 31V14.2H231.645V20.2H234.525C236.813 20.2 238.501 20.696 239.589 21.688C240.677 22.664 241.221 23.968 241.221 25.6C241.221 27.232 240.677 28.544 239.589 29.536C238.501 30.512 236.813 31 234.525 31H228.069ZM231.645 28.024H234.165C235.445 28.024 236.341 27.808 236.853 27.376C237.381 26.944 237.645 26.352 237.645 25.6C237.645 24.848 237.381 24.256 236.853 23.824C236.341 23.392 235.445 23.176 234.165 23.176H231.645V28.024Z" fill="white"/>
<path d="M80.164 26.72V25.316C80.164 24.668 80.272 24.092 80.488 23.588C80.704 23.06 81.028 22.544 81.46 22.04C81.916 21.536 82.492 20.972 83.188 20.348C84.076 19.604 84.76 18.956 85.24 18.404C85.744 17.828 85.996 17.18 85.996 16.46C85.996 15.548 85.708 14.816 85.132 14.264C84.556 13.688 83.692 13.4 82.54 13.4C81.508 13.4 80.668 13.688 80.02 14.264C79.396 14.816 79.084 15.608 79.084 16.64H74.26C74.26 15.32 74.62 14.108 75.34 13.004C76.06 11.9 77.044 11.024 78.292 10.376C79.54 9.704 80.956 9.368 82.54 9.368C84.268 9.368 85.744 9.68 86.968 10.304C88.216 10.904 89.164 11.72 89.812 12.752C90.484 13.784 90.82 14.96 90.82 16.28C90.82 17.144 90.7 17.912 90.46 18.584C90.244 19.232 89.884 19.868 89.38 20.492C88.876 21.116 88.18 21.824 87.292 22.616C86.572 23.24 86.044 23.756 85.708 24.164C85.372 24.548 85.156 24.884 85.06 25.172C84.964 25.436 84.916 25.712 84.916 26V26.72H80.164ZM82.54 35.432C81.964 35.432 81.448 35.288 80.992 35C80.536 34.736 80.164 34.364 79.876 33.884C79.612 33.404 79.48 32.9 79.48 32.372C79.48 31.484 79.78 30.752 80.38 30.176C80.98 29.6 81.7 29.312 82.54 29.312C83.356 29.312 84.064 29.6 84.664 30.176C85.288 30.752 85.6 31.484 85.6 32.372C85.6 32.9 85.456 33.404 85.168 33.884C84.904 34.364 84.544 34.736 84.088 35C83.632 35.288 83.116 35.432 82.54 35.432Z" fill="white"/>
</svg>
