<svg width="160" height="130" viewBox="0 0 160 130" fill="none" xmlns="http://www.w3.org/2000/svg">
<rect width="160" height="130" rx="10" fill="#6F7B8C"/>
<path d="M10.62 32V18H19.8V20.48H13.6V32H10.62ZM19.595 36V21.4H22.035V22.96C22.3017 22.48 22.7217 22.06 23.295 21.7C23.8683 21.34 24.595 21.16 25.475 21.16C26.8883 21.16 27.9883 21.6 28.775 22.48C29.575 23.3467 29.975 24.6533 29.975 26.4V26.8C29.975 28.0133 29.7883 29.0267 29.415 29.84C29.055 30.64 28.5417 31.24 27.875 31.64C27.2083 32.04 26.4083 32.24 25.475 32.24C24.755 32.24 24.115 32.0867 23.555 31.78C23.0083 31.46 22.5617 31.0467 22.215 30.54V36H19.595ZM24.855 30C25.5483 30 26.1283 29.74 26.595 29.22C27.0617 28.6867 27.295 27.88 27.295 26.8V26.4C27.295 25.4 27.0683 24.6533 26.615 24.16C26.175 23.6533 25.5883 23.4 24.855 23.4C24.3617 23.4 23.9083 23.5 23.495 23.7C23.095 23.8867 22.7817 24.1733 22.555 24.56C22.3283 24.9333 22.215 25.4133 22.215 26V27.2C22.215 27.8267 22.3217 28.3533 22.535 28.78C22.7617 29.1933 23.075 29.5 23.475 29.7C23.875 29.9 24.335 30 24.855 30ZM35.0597 32.24C34.2997 32.24 33.653 32.1 33.1197 31.82C32.5864 31.5267 32.1797 31.1267 31.8997 30.62C31.6197 30.1133 31.4797 29.54 31.4797 28.9C31.4797 27.8333 31.793 27.0333 32.4197 26.5C33.0597 25.9667 34.013 25.7 35.2797 25.7H38.4397V25.2C38.4397 24.5067 38.2797 24.02 37.9597 23.74C37.653 23.46 37.1597 23.32 36.4797 23.32C35.8797 23.32 35.4464 23.4267 35.1797 23.64C34.913 23.84 34.7597 24.0933 34.7197 24.4H32.0797C32.1197 23.7867 32.313 23.24 32.6597 22.76C33.0197 22.2667 33.5264 21.88 34.1797 21.6C34.8464 21.3067 35.6464 21.16 36.5797 21.16C37.4864 21.16 38.273 21.2933 38.9397 21.56C39.6197 21.8267 40.1464 22.26 40.5197 22.86C40.893 23.4467 41.0797 24.24 41.0797 25.24V29.3C41.0797 29.86 41.0864 30.3533 41.0997 30.78C41.1264 31.1933 41.1664 31.6 41.2197 32H38.7597C38.7064 31.7067 38.673 31.4867 38.6597 31.34C38.6597 31.18 38.6597 30.9467 38.6597 30.64C38.3797 31.0667 37.9397 31.44 37.3397 31.76C36.7397 32.08 35.9797 32.24 35.0597 32.24ZM35.8797 30.2C36.3064 30.2 36.713 30.1267 37.0997 29.98C37.4997 29.82 37.8197 29.58 38.0597 29.26C38.313 28.9267 38.4397 28.5067 38.4397 28V27.5H35.7797C35.273 27.5 34.873 27.62 34.5797 27.86C34.2997 28.0867 34.1597 28.4 34.1597 28.8C34.1597 29.2267 34.3064 29.5667 34.5997 29.82C34.893 30.0733 35.3197 30.2 35.8797 30.2ZM48.4636 36V32.24C46.6369 32.24 45.2503 31.7733 44.3036 30.84C43.3569 29.8933 42.8836 28.5467 42.8836 26.8V26.4C42.8836 24.7067 43.3569 23.4133 44.3036 22.52C45.2503 21.6133 46.6369 21.16 48.4636 21.16V18H51.1036V21.16C52.9169 21.16 54.2969 21.6133 55.2436 22.52C56.2036 23.4133 56.6836 24.7 56.6836 26.38V26.8C56.6836 28.56 56.2036 29.9067 55.2436 30.84C54.2969 31.7733 52.9169 32.24 51.1036 32.24V36H48.4636ZM54.0036 26.8V26.4C54.0036 25.4 53.7636 24.6533 53.2836 24.16C52.8169 23.6533 52.0636 23.4 51.0236 23.4V30C52.0636 30 52.8169 29.7333 53.2836 29.2C53.7636 28.6533 54.0036 27.8533 54.0036 26.8ZM45.5636 26.38V26.8C45.5636 27.8533 45.8036 28.6533 46.2836 29.2C46.7636 29.7333 47.5169 30 48.5436 30V23.4C47.5036 23.4 46.7436 23.6533 46.2636 24.16C45.7969 24.6667 45.5636 25.4067 45.5636 26.38ZM58.5794 32V21.4H61.1994V28.2L65.9194 21.4H68.3394V32H65.7194V25.2L60.9994 32H58.5794ZM70.7864 32V21.4H73.4064V25.56H74.3864L77.6664 21.4H80.5664L76.5664 26.42L80.7664 32H77.6064L74.3864 27.64H73.4064V32H70.7864ZM14.4 56.24C13.3867 56.24 12.5267 56.1 11.82 55.82C11.1267 55.54 10.5933 55.1267 10.22 54.58C9.86 54.0333 9.65333 53.38 9.6 52.62H12.28C12.3067 52.9 12.3867 53.1467 12.52 53.36C12.6667 53.5733 12.8867 53.7333 13.18 53.84C13.4867 53.9467 13.8933 54 14.4 54C15.1867 54 15.7333 53.8867 16.04 53.66C16.36 53.42 16.52 53.1333 16.52 52.8C16.52 52.4 16.3867 52.1 16.12 51.9C15.8667 51.7 15.3933 51.6 14.7 51.6H13.08V49.64H14.56C15.0667 49.64 15.4533 49.5333 15.72 49.32C15.9867 49.1067 16.12 48.8267 16.12 48.48C16.12 48.1733 15.9867 47.92 15.72 47.72C15.4667 47.5067 15.0267 47.4 14.4 47.4C13.7467 47.4 13.2733 47.5133 12.98 47.74C12.6867 47.9533 12.52 48.2667 12.48 48.68H9.8C9.85333 47.92 10.0533 47.28 10.4 46.76C10.76 46.24 11.2733 45.8467 11.94 45.58C12.62 45.3 13.44 45.16 14.4 45.16C15.9467 45.16 17.0667 45.4467 17.76 46.02C18.4533 46.58 18.8 47.3267 18.8 48.26C18.8 48.7667 18.6667 49.22 18.4 49.62C18.1467 50.02 17.74 50.3133 17.18 50.5C17.94 50.6867 18.4667 50.9933 18.76 51.42C19.0533 51.8333 19.2 52.3267 19.2 52.9C19.2 53.54 19.0267 54.1133 18.68 54.62C18.3333 55.1267 17.8067 55.5267 17.1 55.82C16.3933 56.1 15.4933 56.24 14.4 56.24ZM24.2589 56.24C23.4989 56.24 22.8522 56.1 22.3189 55.82C21.7856 55.5267 21.3789 55.1267 21.0989 54.62C20.8189 54.1133 20.6789 53.54 20.6789 52.9C20.6789 51.8333 20.9922 51.0333 21.6189 50.5C22.2589 49.9667 23.2122 49.7 24.4789 49.7H27.6389V49.2C27.6389 48.5067 27.4789 48.02 27.1589 47.74C26.8522 47.46 26.3589 47.32 25.6789 47.32C25.0789 47.32 24.6456 47.4267 24.3789 47.64C24.1122 47.84 23.9589 48.0933 23.9189 48.4H21.2789C21.3189 47.7867 21.5122 47.24 21.8589 46.76C22.2189 46.2667 22.7256 45.88 23.3789 45.6C24.0456 45.3067 24.8456 45.16 25.7789 45.16C26.6856 45.16 27.4722 45.2933 28.1389 45.56C28.8189 45.8267 29.3456 46.26 29.7189 46.86C30.0922 47.4467 30.2789 48.24 30.2789 49.24V53.3C30.2789 53.86 30.2856 54.3533 30.2989 54.78C30.3256 55.1933 30.3656 55.6 30.4189 56H27.9589C27.9056 55.7067 27.8722 55.4867 27.8589 55.34C27.8589 55.18 27.8589 54.9467 27.8589 54.64C27.5789 55.0667 27.1389 55.44 26.5389 55.76C25.9389 56.08 25.1789 56.24 24.2589 56.24ZM25.0789 54.2C25.5056 54.2 25.9122 54.1267 26.2989 53.98C26.6989 53.82 27.0189 53.58 27.2589 53.26C27.5122 52.9267 27.6389 52.5067 27.6389 52V51.5H24.9789C24.4722 51.5 24.0722 51.62 23.7789 51.86C23.4989 52.0867 23.3589 52.4 23.3589 52.8C23.3589 53.2267 23.5056 53.5667 23.7989 53.82C24.0922 54.0733 24.5189 54.2 25.0789 54.2ZM37.2828 56.24C36.3095 56.24 35.4295 56.04 34.6428 55.64C33.8561 55.2267 33.2295 54.62 32.7628 53.82C32.3095 53.0067 32.0828 52 32.0828 50.8V50.4C32.0828 49.2533 32.3228 48.2933 32.8028 47.52C33.2828 46.7467 33.9161 46.16 34.7028 45.76C35.4895 45.36 36.3495 45.16 37.2828 45.16C38.2828 45.16 39.1295 45.3267 39.8228 45.66C40.5161 45.9933 41.0495 46.4533 41.4228 47.04C41.8095 47.6267 42.0295 48.2733 42.0828 48.98H39.4028C39.2961 48.5 39.0761 48.12 38.7428 47.84C38.4228 47.5467 37.9361 47.4 37.2828 47.4C36.8295 47.4 36.4095 47.5067 36.0228 47.72C35.6495 47.9333 35.3428 48.26 35.1028 48.7C34.8761 49.14 34.7628 49.7067 34.7628 50.4V50.8C34.7628 51.5467 34.8695 52.16 35.0828 52.64C35.3095 53.1067 35.6095 53.4533 35.9828 53.68C36.3695 53.8933 36.8028 54 37.2828 54C37.8028 54 38.2495 53.8667 38.6228 53.6C39.0095 53.32 39.2695 52.9267 39.4028 52.42H42.0828C42.0028 53.18 41.7495 53.8533 41.3228 54.44C40.8961 55.0267 40.3295 55.4733 39.6228 55.78C38.9295 56.0867 38.1495 56.24 37.2828 56.24ZM48.6719 56.24C47.7119 56.24 46.8252 56.0467 46.0119 55.66C45.2119 55.26 44.5719 54.66 44.0919 53.86C43.6119 53.0467 43.3719 52.0267 43.3719 50.8V50.4C43.3719 49.2267 43.5985 48.2533 44.0519 47.48C44.5185 46.7067 45.1385 46.1267 45.9119 45.74C46.6852 45.3533 47.5385 45.16 48.4719 45.16C50.1385 45.16 51.4052 45.6 52.2719 46.48C53.1385 47.36 53.5719 48.6333 53.5719 50.3V51.42H46.0719C46.0985 52.0467 46.2319 52.56 46.4719 52.96C46.7252 53.3467 47.0452 53.6333 47.4319 53.82C47.8185 53.9933 48.2319 54.08 48.6719 54.08C49.3519 54.08 49.8652 53.98 50.2119 53.78C50.5585 53.58 50.8052 53.2867 50.9519 52.9H53.3719C53.1585 54.0067 52.6319 54.84 51.7919 55.4C50.9519 55.96 49.9119 56.24 48.6719 56.24ZM48.5719 47.32C48.1585 47.32 47.7585 47.3867 47.3719 47.52C46.9852 47.6533 46.6785 47.8933 46.4519 48.24C46.2252 48.5733 46.0985 49.02 46.0719 49.58H51.0119C50.9985 48.98 50.8785 48.52 50.6519 48.2C50.4385 47.8667 50.1519 47.64 49.7919 47.52C49.4319 47.3867 49.0252 47.32 48.5719 47.32ZM54.4781 58.5V53.8H55.6781C55.8648 53.52 56.0115 53.1 56.1181 52.54C56.2381 51.98 56.3248 51.3533 56.3781 50.66C56.4448 49.9533 56.4781 49.26 56.4781 48.58V45.4H64.7781V53.8H66.0581V58.5H63.7581V56H56.7781V58.5H54.4781ZM58.2581 53.8H62.1381V47.6H58.8781V48.98C58.8781 49.9133 58.8315 50.82 58.7381 51.7C58.6581 52.5667 58.4981 53.2667 58.2581 53.8ZM71.1144 56.24C70.3544 56.24 69.7077 56.1 69.1744 55.82C68.641 55.5267 68.2344 55.1267 67.9544 54.62C67.6744 54.1133 67.5344 53.54 67.5344 52.9C67.5344 51.8333 67.8477 51.0333 68.4744 50.5C69.1144 49.9667 70.0677 49.7 71.3344 49.7H74.4944V49.2C74.4944 48.5067 74.3344 48.02 74.0144 47.74C73.7077 47.46 73.2144 47.32 72.5344 47.32C71.9344 47.32 71.501 47.4267 71.2344 47.64C70.9677 47.84 70.8144 48.0933 70.7744 48.4H68.1344C68.1744 47.7867 68.3677 47.24 68.7144 46.76C69.0744 46.2667 69.581 45.88 70.2344 45.6C70.901 45.3067 71.701 45.16 72.6344 45.16C73.541 45.16 74.3277 45.2933 74.9944 45.56C75.6744 45.8267 76.201 46.26 76.5744 46.86C76.9477 47.4467 77.1344 48.24 77.1344 49.24V53.3C77.1344 53.86 77.141 54.3533 77.1544 54.78C77.181 55.1933 77.221 55.6 77.2744 56H74.8144C74.761 55.7067 74.7277 55.4867 74.7144 55.34C74.7144 55.18 74.7144 54.9467 74.7144 54.64C74.4344 55.0667 73.9944 55.44 73.3944 55.76C72.7944 56.08 72.0344 56.24 71.1144 56.24ZM71.9344 54.2C72.361 54.2 72.7677 54.1267 73.1544 53.98C73.5544 53.82 73.8744 53.58 74.1144 53.26C74.3677 52.9267 74.4944 52.5067 74.4944 52V51.5H71.8344C71.3277 51.5 70.9277 51.62 70.6344 51.86C70.3544 52.0867 70.2144 52.4 70.2144 52.8C70.2144 53.2267 70.361 53.5667 70.6544 53.82C70.9477 54.0733 71.3744 54.2 71.9344 54.2ZM79.4583 56V45.4H82.0783V49.5H86.5983V45.4H89.2183V56H86.5983V51.7H82.0783V56H79.4583ZM91.6653 56V45.4H94.2853V52.2L99.0053 45.4H101.425V56H98.8053V49.2L94.0853 56H91.6653ZM103.872 56V45.4H106.492V52.2L111.212 45.4H113.632V56H111.012V49.2L106.292 56H103.872ZM108.772 44.3C107.586 44.3 106.719 44.0467 106.172 43.54C105.639 43.0333 105.372 42.2867 105.372 41.3H107.712C107.712 41.82 107.799 42.1867 107.972 42.4C108.146 42.6 108.406 42.7 108.752 42.7C109.126 42.7 109.406 42.6 109.592 42.4C109.779 42.1867 109.872 41.82 109.872 41.3H112.172C112.172 42.2867 111.899 43.0333 111.352 43.54C110.806 44.0467 109.946 44.3 108.772 44.3Z" fill="white"/>
<path d="M10.2 77V68.6H11.328V75.2L15.792 68.6H16.92V77H15.792V70.4L11.328 77H10.2ZM19.0772 77V70.64H20.1332V73.292H23.4212V70.64H24.4772V77H23.4212V74.228H20.1332V77H19.0772ZM29.3534 79.4V77.12C28.2494 77.12 27.4094 76.84 26.8334 76.28C26.2654 75.72 25.9814 74.924 25.9814 73.892V73.652C25.9814 72.668 26.2654 71.9 26.8334 71.348C27.4094 70.796 28.2494 70.52 29.3534 70.52V68.6H30.4094V70.52C31.5134 70.52 32.3494 70.796 32.9174 71.348C33.4934 71.9 33.7814 72.668 33.7814 73.652V73.892C33.7814 74.924 33.4934 75.72 32.9174 76.28C32.3494 76.84 31.5134 77.12 30.4094 77.12V79.4H29.3534ZM32.7014 73.892V73.652C32.7014 72.924 32.5134 72.38 32.1374 72.02C31.7694 71.66 31.1894 71.48 30.3974 71.48V76.16C31.1894 76.16 31.7694 75.976 32.1374 75.608C32.5134 75.24 32.7014 74.668 32.7014 73.892ZM27.0614 73.652V73.892C27.0614 74.668 27.2454 75.24 27.6134 75.608C27.9894 75.976 28.5734 76.16 29.3654 76.16V71.48C28.5734 71.48 27.9894 71.66 27.6134 72.02C27.2454 72.38 27.0614 72.924 27.0614 73.652ZM37.9242 77.12C37.3882 77.12 36.8842 77.004 36.4122 76.772C35.9482 76.532 35.5722 76.172 35.2842 75.692C35.0042 75.212 34.8642 74.608 34.8642 73.88V73.64C34.8642 72.952 35.0042 72.376 35.2842 71.912C35.5722 71.448 35.9482 71.1 36.4122 70.868C36.8842 70.636 37.3882 70.52 37.9242 70.52C38.4682 70.52 38.9722 70.636 39.4362 70.868C39.9002 71.1 40.2722 71.448 40.5522 71.912C40.8402 72.376 40.9842 72.952 40.9842 73.64V73.88C40.9842 74.608 40.8402 75.212 40.5522 75.692C40.2722 76.172 39.9002 76.532 39.4362 76.772C38.9722 77.004 38.4682 77.12 37.9242 77.12ZM37.9242 76.16C38.2522 76.16 38.5642 76.088 38.8602 75.944C39.1642 75.792 39.4122 75.548 39.6042 75.212C39.8042 74.876 39.9042 74.432 39.9042 73.88V73.64C39.9042 73.128 39.8042 72.716 39.6042 72.404C39.4122 72.084 39.1642 71.852 38.8602 71.708C38.5642 71.556 38.2522 71.48 37.9242 71.48C37.6042 71.48 37.2922 71.556 36.9882 71.708C36.6842 71.852 36.4322 72.084 36.2322 72.404C36.0402 72.716 35.9442 73.128 35.9442 73.64V73.88C35.9442 74.432 36.0402 74.876 36.2322 75.212C36.4322 75.548 36.6842 75.792 36.9882 75.944C37.2922 76.088 37.6042 76.16 37.9242 76.16ZM42.4795 79.4V70.64H43.4635V71.84C43.6795 71.416 43.9795 71.092 44.3635 70.868C44.7555 70.636 45.2075 70.52 45.7195 70.52C46.5195 70.52 47.1595 70.784 47.6395 71.312C48.1195 71.832 48.3595 72.608 48.3595 73.64V73.88C48.3595 74.6 48.2475 75.2 48.0235 75.68C47.8075 76.16 47.4995 76.52 47.0995 76.76C46.7075 77 46.2475 77.12 45.7195 77.12C45.1755 77.12 44.7195 77 44.3515 76.76C43.9915 76.52 43.7195 76.22 43.5355 75.86V79.4H42.4795ZM45.4795 76.184C45.9995 76.184 46.4315 75.988 46.7755 75.596C47.1275 75.204 47.3035 74.632 47.3035 73.88V73.64C47.3035 72.944 47.1275 72.408 46.7755 72.032C46.4315 71.648 45.9995 71.456 45.4795 71.456C45.0955 71.456 44.7555 71.536 44.4595 71.696C44.1715 71.856 43.9435 72.076 43.7755 72.356C43.6155 72.628 43.5355 72.936 43.5355 73.28V74.24C43.5355 74.624 43.6155 74.964 43.7755 75.26C43.9435 75.548 44.1715 75.776 44.4595 75.944C44.7555 76.104 45.0955 76.184 45.4795 76.184ZM49.8623 77V70.64H50.9903L53.2583 74.6L55.5263 70.64H56.5823V77H55.5263V72.38L53.6423 75.62H52.8023L50.9183 72.38V77H49.8623ZM60.3111 77.12C59.8471 77.12 59.4511 77.036 59.1231 76.868C58.8031 76.692 58.5591 76.456 58.3911 76.16C58.2231 75.856 58.1391 75.516 58.1391 75.14C58.1391 74.508 58.3231 74.052 58.6911 73.772C59.0671 73.492 59.6031 73.352 60.2991 73.352H62.3631V72.92C62.3631 72.376 62.2391 72 61.9911 71.792C61.7511 71.584 61.3871 71.48 60.8991 71.48C60.4431 71.48 60.1111 71.568 59.9031 71.744C59.6951 71.912 59.5791 72.104 59.5551 72.32H58.4991C58.5231 71.976 58.6391 71.672 58.8471 71.408C59.0551 71.136 59.3391 70.92 59.6991 70.76C60.0591 70.6 60.4791 70.52 60.9591 70.52C61.4631 70.52 61.8991 70.6 62.2671 70.76C62.6351 70.912 62.9191 71.156 63.1191 71.492C63.3191 71.82 63.4191 72.256 63.4191 72.8V75.38C63.4191 75.716 63.4191 76.012 63.4191 76.268C63.4271 76.516 63.4471 76.76 63.4791 77H62.5551C62.5311 76.816 62.5151 76.644 62.5071 76.484C62.4991 76.316 62.4951 76.128 62.4951 75.92C62.3271 76.256 62.0551 76.54 61.6791 76.772C61.3031 77.004 60.8471 77.12 60.3111 77.12ZM60.5391 76.16C60.8751 76.16 61.1791 76.1 61.4511 75.98C61.7311 75.86 61.9511 75.684 62.1111 75.452C62.2791 75.22 62.3631 74.936 62.3631 74.6V74.168H60.4791C60.0871 74.168 59.7791 74.248 59.5551 74.408C59.3311 74.56 59.2191 74.804 59.2191 75.14C59.2191 75.436 59.3231 75.68 59.5311 75.872C59.7471 76.064 60.0831 76.16 60.5391 76.16ZM70.4562 78.5V77H65.2842V70.64H66.3402V76.064H69.3882V70.64H70.4442V76.064H71.4642V78.5H70.4562ZM72.7256 77V70.64H73.7816V75.44L77.0696 70.64H78.1256V77H77.0696V72.2L73.7816 77H72.7256ZM79.5698 77L81.2978 74.48C80.7698 74.36 80.3898 74.144 80.1578 73.832C79.9258 73.512 79.8098 73.104 79.8098 72.608C79.8098 72.192 79.8938 71.84 80.0618 71.552C80.2298 71.256 80.4898 71.032 80.8418 70.88C81.1938 70.72 81.6498 70.64 82.2098 70.64H84.9698V77H83.9138V74.576H82.2938L80.7458 77H79.5698ZM80.8658 72.608C80.8658 72.944 80.9618 73.2 81.1538 73.376C81.3538 73.552 81.6858 73.64 82.1498 73.64H83.9138V71.576H82.1498C81.6858 71.576 81.3538 71.664 81.1538 71.84C80.9618 72.016 80.8658 72.272 80.8658 72.608ZM93.2816 77.12C92.7456 77.12 92.2416 77.004 91.7696 76.772C91.3056 76.532 90.9296 76.172 90.6416 75.692C90.3616 75.212 90.2216 74.608 90.2216 73.88V73.64C90.2216 72.952 90.3616 72.376 90.6416 71.912C90.9296 71.448 91.3056 71.1 91.7696 70.868C92.2416 70.636 92.7456 70.52 93.2816 70.52C93.8256 70.52 94.3296 70.636 94.7936 70.868C95.2576 71.1 95.6296 71.448 95.9096 71.912C96.1976 72.376 96.3416 72.952 96.3416 73.64V73.88C96.3416 74.608 96.1976 75.212 95.9096 75.692C95.6296 76.172 95.2576 76.532 94.7936 76.772C94.3296 77.004 93.8256 77.12 93.2816 77.12ZM93.2816 76.16C93.6096 76.16 93.9216 76.088 94.2176 75.944C94.5216 75.792 94.7696 75.548 94.9616 75.212C95.1616 74.876 95.2616 74.432 95.2616 73.88V73.64C95.2616 73.128 95.1616 72.716 94.9616 72.404C94.7696 72.084 94.5216 71.852 94.2176 71.708C93.9216 71.556 93.6096 71.48 93.2816 71.48C92.9616 71.48 92.6496 71.556 92.3456 71.708C92.0416 71.852 91.7896 72.084 91.5896 72.404C91.3976 72.716 91.3016 73.128 91.3016 73.64V73.88C91.3016 74.432 91.3976 74.876 91.5896 75.212C91.7896 75.548 92.0416 75.792 92.3456 75.944C92.6496 76.088 92.9616 76.16 93.2816 76.16ZM101.585 77V70.64H104.345C104.873 70.64 105.305 70.716 105.641 70.868C105.977 71.012 106.225 71.216 106.385 71.48C106.545 71.736 106.625 72.036 106.625 72.38C106.625 72.66 106.533 72.928 106.349 73.184C106.173 73.432 105.945 73.604 105.665 73.7C106.057 73.796 106.353 73.98 106.553 74.252C106.761 74.516 106.865 74.828 106.865 75.188C106.865 75.74 106.681 76.18 106.313 76.508C105.945 76.836 105.369 77 104.585 77H101.585ZM102.641 76.064H104.585C105.033 76.064 105.349 75.984 105.533 75.824C105.717 75.664 105.809 75.436 105.809 75.14C105.809 74.836 105.717 74.604 105.533 74.444C105.349 74.276 105.033 74.192 104.585 74.192H102.641V76.064ZM102.641 73.328H104.345C104.801 73.328 105.117 73.248 105.293 73.088C105.477 72.928 105.569 72.708 105.569 72.428C105.569 72.164 105.477 71.956 105.293 71.804C105.117 71.652 104.801 71.576 104.345 71.576H102.641V73.328ZM108.37 79.4V70.64H109.354V71.84C109.57 71.416 109.87 71.092 110.254 70.868C110.646 70.636 111.098 70.52 111.61 70.52C112.41 70.52 113.05 70.784 113.53 71.312C114.01 71.832 114.25 72.608 114.25 73.64V73.88C114.25 74.6 114.138 75.2 113.914 75.68C113.698 76.16 113.39 76.52 112.99 76.76C112.598 77 112.138 77.12 111.61 77.12C111.066 77.12 110.61 77 110.242 76.76C109.882 76.52 109.61 76.22 109.426 75.86V79.4H108.37ZM111.37 76.184C111.89 76.184 112.322 75.988 112.666 75.596C113.018 75.204 113.194 74.632 113.194 73.88V73.64C113.194 72.944 113.018 72.408 112.666 72.032C112.322 71.648 111.89 71.456 111.37 71.456C110.986 71.456 110.646 71.536 110.35 71.696C110.062 71.856 109.834 72.076 109.666 72.356C109.506 72.628 109.426 72.936 109.426 73.28V74.24C109.426 74.624 109.506 74.964 109.666 75.26C109.834 75.548 110.062 75.776 110.35 75.944C110.646 76.104 110.986 76.184 111.37 76.184ZM118.393 77.12C117.857 77.12 117.353 77.004 116.881 76.772C116.417 76.54 116.041 76.184 115.753 75.704C115.473 75.224 115.333 74.616 115.333 73.88V73.64C115.333 72.936 115.469 72.356 115.741 71.9C116.013 71.436 116.373 71.092 116.821 70.868C117.269 70.636 117.753 70.52 118.273 70.52C119.209 70.52 119.933 70.776 120.445 71.288C120.957 71.8 121.213 72.524 121.213 73.46V74.132H116.389C116.389 74.628 116.489 75.024 116.689 75.32C116.897 75.616 117.153 75.832 117.457 75.968C117.769 76.096 118.081 76.16 118.393 76.16C118.873 76.16 119.241 76.08 119.497 75.92C119.761 75.76 119.949 75.54 120.061 75.26H121.093C120.965 75.868 120.649 76.332 120.145 76.652C119.649 76.964 119.065 77.12 118.393 77.12ZM118.333 71.48C118.005 71.48 117.693 71.544 117.397 71.672C117.101 71.792 116.857 71.984 116.665 72.248C116.481 72.512 116.389 72.852 116.389 73.268H120.217C120.209 72.828 120.117 72.48 119.941 72.224C119.773 71.96 119.549 71.772 119.269 71.66C118.989 71.54 118.677 71.48 118.333 71.48ZM122.714 77V70.64H123.842L126.11 74.6L128.378 70.64H129.434V77H128.378V72.38L126.494 75.62H125.654L123.77 72.38V77H122.714ZM133.991 77.12C133.455 77.12 132.951 77.004 132.479 76.772C132.015 76.54 131.639 76.184 131.351 75.704C131.071 75.224 130.931 74.616 130.931 73.88V73.64C130.931 72.936 131.067 72.356 131.339 71.9C131.611 71.436 131.971 71.092 132.419 70.868C132.867 70.636 133.351 70.52 133.871 70.52C134.807 70.52 135.531 70.776 136.043 71.288C136.555 71.8 136.811 72.524 136.811 73.46V74.132H131.987C131.987 74.628 132.087 75.024 132.287 75.32C132.495 75.616 132.751 75.832 133.055 75.968C133.367 76.096 133.679 76.16 133.991 76.16C134.471 76.16 134.839 76.08 135.095 75.92C135.359 75.76 135.547 75.54 135.659 75.26H136.691C136.563 75.868 136.247 76.332 135.743 76.652C135.247 76.964 134.663 77.12 133.991 77.12ZM133.931 71.48C133.603 71.48 133.291 71.544 132.995 71.672C132.699 71.792 132.455 71.984 132.263 72.248C132.079 72.512 131.987 72.852 131.987 73.268H135.815C135.807 72.828 135.715 72.48 135.539 72.224C135.371 71.96 135.147 71.772 134.867 71.66C134.587 71.54 134.275 71.48 133.931 71.48ZM138.312 77V70.64H139.368V73.292H142.656V70.64H143.712V77H142.656V74.228H139.368V77H138.312ZM145.636 77V70.64H146.692V75.44L149.98 70.64H151.036V77H149.98V72.2L146.692 77H145.636ZM9.96 93.4V84.64H10.944V85.84C11.16 85.416 11.46 85.092 11.844 84.868C12.236 84.636 12.688 84.52 13.2 84.52C14 84.52 14.64 84.784 15.12 85.312C15.6 85.832 15.84 86.608 15.84 87.64V87.88C15.84 88.6 15.728 89.2 15.504 89.68C15.288 90.16 14.98 90.52 14.58 90.76C14.188 91 13.728 91.12 13.2 91.12C12.656 91.12 12.2 91 11.832 90.76C11.472 90.52 11.2 90.22 11.016 89.86V93.4H9.96ZM12.96 90.184C13.48 90.184 13.912 89.988 14.256 89.596C14.608 89.204 14.784 88.632 14.784 87.88V87.64C14.784 86.944 14.608 86.408 14.256 86.032C13.912 85.648 13.48 85.456 12.96 85.456C12.576 85.456 12.236 85.536 11.94 85.696C11.652 85.856 11.424 86.076 11.256 86.356C11.096 86.628 11.016 86.936 11.016 87.28V88.24C11.016 88.624 11.096 88.964 11.256 89.26C11.424 89.548 11.652 89.776 11.94 89.944C12.236 90.104 12.576 90.184 12.96 90.184ZM19.1548 91.12C18.6908 91.12 18.2948 91.036 17.9668 90.868C17.6468 90.692 17.4028 90.456 17.2348 90.16C17.0668 89.856 16.9828 89.516 16.9828 89.14C16.9828 88.508 17.1668 88.052 17.5348 87.772C17.9108 87.492 18.4468 87.352 19.1428 87.352H21.2068V86.92C21.2068 86.376 21.0828 86 20.8348 85.792C20.5948 85.584 20.2308 85.48 19.7428 85.48C19.2868 85.48 18.9548 85.568 18.7468 85.744C18.5388 85.912 18.4228 86.104 18.3988 86.32H17.3428C17.3668 85.976 17.4828 85.672 17.6908 85.408C17.8988 85.136 18.1828 84.92 18.5428 84.76C18.9028 84.6 19.3228 84.52 19.8028 84.52C20.3068 84.52 20.7428 84.6 21.1108 84.76C21.4788 84.912 21.7628 85.156 21.9628 85.492C22.1628 85.82 22.2628 86.256 22.2628 86.8V89.38C22.2628 89.716 22.2628 90.012 22.2628 90.268C22.2708 90.516 22.2908 90.76 22.3228 91H21.3988C21.3748 90.816 21.3588 90.644 21.3508 90.484C21.3428 90.316 21.3388 90.128 21.3388 89.92C21.1708 90.256 20.8988 90.54 20.5228 90.772C20.1468 91.004 19.6908 91.12 19.1548 91.12ZM19.3828 90.16C19.7188 90.16 20.0228 90.1 20.2948 89.98C20.5748 89.86 20.7948 89.684 20.9548 89.452C21.1228 89.22 21.2068 88.936 21.2068 88.6V88.168H19.3228C18.9308 88.168 18.6228 88.248 18.3988 88.408C18.1748 88.56 18.0628 88.804 18.0628 89.14C18.0628 89.436 18.1668 89.68 18.3748 89.872C18.5908 90.064 18.9268 90.16 19.3828 90.16ZM26.768 91.12C26.208 91.12 25.7 90.98 25.244 90.7C24.796 90.412 24.436 90 24.164 89.464C23.9 88.928 23.768 88.28 23.768 87.52V87.28C23.768 86.32 23.864 85.5 24.056 84.82C24.256 84.14 24.592 83.612 25.064 83.236C25.536 82.852 26.184 82.64 27.008 82.6C27.344 82.584 27.652 82.572 27.932 82.564C28.212 82.548 28.464 82.524 28.688 82.492C28.912 82.452 29.112 82.388 29.288 82.3V83.32C29.208 83.368 29.076 83.408 28.892 83.44C28.716 83.472 28.488 83.5 28.208 83.524C27.928 83.54 27.588 83.556 27.188 83.572C26.676 83.58 26.244 83.664 25.892 83.824C25.548 83.984 25.28 84.24 25.088 84.592C24.896 84.944 24.776 85.42 24.728 86.02C24.856 85.732 25.032 85.488 25.256 85.288C25.48 85.08 25.74 84.92 26.036 84.808C26.332 84.696 26.656 84.64 27.008 84.64C27.552 84.64 28.028 84.76 28.436 85C28.852 85.24 29.176 85.584 29.408 86.032C29.648 86.48 29.768 87.016 29.768 87.64V87.88C29.768 88.536 29.636 89.108 29.372 89.596C29.116 90.076 28.76 90.452 28.304 90.724C27.856 90.988 27.344 91.12 26.768 91.12ZM26.768 90.16C27.328 90.16 27.788 89.968 28.148 89.584C28.508 89.192 28.688 88.624 28.688 87.88V87.64C28.688 87.024 28.508 86.532 28.148 86.164C27.788 85.788 27.328 85.6 26.768 85.6C26.208 85.6 25.748 85.788 25.388 86.164C25.028 86.532 24.848 87.024 24.848 87.64V87.88C24.848 88.352 24.932 88.76 25.1 89.104C25.276 89.44 25.508 89.7 25.796 89.884C26.092 90.068 26.416 90.16 26.768 90.16ZM33.9047 91.12C33.3687 91.12 32.8647 91.004 32.3927 90.772C31.9287 90.532 31.5527 90.172 31.2647 89.692C30.9847 89.212 30.8447 88.608 30.8447 87.88V87.64C30.8447 86.952 30.9847 86.376 31.2647 85.912C31.5527 85.448 31.9287 85.1 32.3927 84.868C32.8647 84.636 33.3687 84.52 33.9047 84.52C34.4487 84.52 34.9527 84.636 35.4167 84.868C35.8807 85.1 36.2527 85.448 36.5327 85.912C36.8207 86.376 36.9647 86.952 36.9647 87.64V87.88C36.9647 88.608 36.8207 89.212 36.5327 89.692C36.2527 90.172 35.8807 90.532 35.4167 90.772C34.9527 91.004 34.4487 91.12 33.9047 91.12ZM33.9047 90.16C34.2327 90.16 34.5447 90.088 34.8407 89.944C35.1447 89.792 35.3927 89.548 35.5847 89.212C35.7847 88.876 35.8847 88.432 35.8847 87.88V87.64C35.8847 87.128 35.7847 86.716 35.5847 86.404C35.3927 86.084 35.1447 85.852 34.8407 85.708C34.5447 85.556 34.2327 85.48 33.9047 85.48C33.5847 85.48 33.2727 85.556 32.9687 85.708C32.6647 85.852 32.4127 86.084 32.2127 86.404C32.0207 86.716 31.9247 87.128 31.9247 87.64V87.88C31.9247 88.432 32.0207 88.876 32.2127 89.212C32.4127 89.548 32.6647 89.792 32.9687 89.944C33.2727 90.088 33.5847 90.16 33.9047 90.16ZM39.7948 91V85.576H37.6228V84.64H43.0228V85.576H40.8508V91H39.7948ZM44.2256 91V84.64H45.2816V87.04H46.5656C47.3656 87.04 47.9536 87.216 48.3296 87.568C48.7136 87.92 48.9056 88.408 48.9056 89.032C48.9056 89.432 48.8216 89.78 48.6536 90.076C48.4856 90.372 48.2296 90.6 47.8856 90.76C47.5416 90.92 47.1016 91 46.5656 91H44.2256ZM45.2816 90.064H46.5056C47.0016 90.064 47.3496 89.976 47.5496 89.8C47.7496 89.624 47.8496 89.364 47.8496 89.02C47.8496 88.676 47.7496 88.416 47.5496 88.24C47.3496 88.064 47.0016 87.976 46.5056 87.976H45.2816V90.064ZM49.8896 91V84.64H50.9456V91H49.8896ZM67.9942 91.12C67.4502 91.12 66.9582 91.004 66.5182 90.772C66.0862 90.532 65.7422 90.172 65.4862 89.692C65.2382 89.212 65.1142 88.608 65.1142 87.88V87.64C65.1142 86.952 65.2502 86.376 65.5222 85.912C65.7942 85.448 66.1502 85.1 66.5902 84.868C67.0302 84.636 67.4982 84.52 67.9942 84.52C68.4982 84.52 68.9302 84.612 69.2902 84.796C69.6582 84.972 69.9542 85.216 70.1782 85.528C70.4022 85.832 70.5542 86.176 70.6342 86.56H69.5542C69.4262 86.256 69.2462 86 69.0142 85.792C68.7902 85.584 68.4502 85.48 67.9942 85.48C67.6822 85.48 67.3902 85.556 67.1182 85.708C66.8462 85.852 66.6222 86.084 66.4462 86.404C66.2782 86.716 66.1942 87.128 66.1942 87.64V87.88C66.1942 88.424 66.2782 88.864 66.4462 89.2C66.6222 89.536 66.8462 89.78 67.1182 89.932C67.3902 90.084 67.6822 90.16 67.9942 90.16C68.3862 90.16 68.7142 90.064 68.9782 89.872C69.2502 89.68 69.4422 89.416 69.5542 89.08H70.6342C70.5382 89.496 70.3662 89.86 70.1182 90.172C69.8702 90.476 69.5662 90.712 69.2062 90.88C68.8462 91.04 68.4422 91.12 67.9942 91.12ZM72.6789 93.52C72.5589 93.52 72.4389 93.508 72.3189 93.484V92.524C72.4389 92.548 72.5589 92.56 72.6789 92.56C72.8389 92.56 72.9709 92.52 73.0749 92.44C73.1869 92.368 73.2989 92.22 73.4109 91.996C73.5229 91.772 73.6589 91.44 73.8189 91L71.1189 84.64H72.2949L74.3589 89.8L76.2309 84.64H77.3589L74.9589 91C74.7349 91.6 74.5189 92.084 74.3109 92.452C74.1109 92.82 73.8829 93.088 73.6269 93.256C73.3789 93.432 73.0629 93.52 72.6789 93.52ZM77.4705 92.5V90.064H78.2505C78.3705 89.904 78.4745 89.636 78.5625 89.26C78.6505 88.876 78.7185 88.428 78.7665 87.916C78.8225 87.404 78.8505 86.872 78.8505 86.32V84.64H83.2905V90.064H84.1905V92.5H83.1825V91H78.4785V92.5H77.4705ZM79.3305 90.064H82.2345V85.576H79.8825V86.56C79.8825 87.232 79.8345 87.884 79.7385 88.516C79.6505 89.14 79.5145 89.656 79.3305 90.064ZM87.3853 91.12C86.9213 91.12 86.5253 91.036 86.1973 90.868C85.8773 90.692 85.6333 90.456 85.4653 90.16C85.2973 89.856 85.2133 89.516 85.2133 89.14C85.2133 88.508 85.3973 88.052 85.7653 87.772C86.1413 87.492 86.6773 87.352 87.3733 87.352H89.4373V86.92C89.4373 86.376 89.3133 86 89.0653 85.792C88.8253 85.584 88.4613 85.48 87.9733 85.48C87.5173 85.48 87.1853 85.568 86.9773 85.744C86.7693 85.912 86.6533 86.104 86.6293 86.32H85.5733C85.5973 85.976 85.7133 85.672 85.9213 85.408C86.1293 85.136 86.4133 84.92 86.7733 84.76C87.1333 84.6 87.5533 84.52 88.0333 84.52C88.5373 84.52 88.9733 84.6 89.3413 84.76C89.7093 84.912 89.9933 85.156 90.1933 85.492C90.3933 85.82 90.4933 86.256 90.4933 86.8V89.38C90.4933 89.716 90.4933 90.012 90.4933 90.268C90.5013 90.516 90.5213 90.76 90.5533 91H89.6293C89.6053 90.816 89.5893 90.644 89.5813 90.484C89.5733 90.316 89.5693 90.128 89.5693 89.92C89.4013 90.256 89.1293 90.54 88.7533 90.772C88.3773 91.004 87.9213 91.12 87.3853 91.12ZM87.6133 90.16C87.9493 90.16 88.2533 90.1 88.5253 89.98C88.8053 89.86 89.0253 89.684 89.1853 89.452C89.3533 89.22 89.4373 88.936 89.4373 88.6V88.168H87.5533C87.1613 88.168 86.8533 88.248 86.6293 88.408C86.4053 88.56 86.2933 88.804 86.2933 89.14C86.2933 89.436 86.3973 89.68 86.6053 89.872C86.8213 90.064 87.1573 90.16 87.6133 90.16ZM92.0584 92.8L92.5384 91V89.68H93.8584V91L92.6584 92.8H92.0584ZM108.499 91V84.64H113.779V91H112.723V85.576H109.555V91H108.499ZM115.694 93.4V84.64H116.678V85.84C116.894 85.416 117.194 85.092 117.578 84.868C117.97 84.636 118.422 84.52 118.934 84.52C119.734 84.52 120.374 84.784 120.854 85.312C121.334 85.832 121.574 86.608 121.574 87.64V87.88C121.574 88.6 121.462 89.2 121.238 89.68C121.022 90.16 120.714 90.52 120.314 90.76C119.922 91 119.462 91.12 118.934 91.12C118.39 91.12 117.934 91 117.566 90.76C117.206 90.52 116.934 90.22 116.75 89.86V93.4H115.694ZM118.694 90.184C119.214 90.184 119.646 89.988 119.99 89.596C120.342 89.204 120.518 88.632 120.518 87.88V87.64C120.518 86.944 120.342 86.408 119.99 86.032C119.646 85.648 119.214 85.456 118.694 85.456C118.31 85.456 117.97 85.536 117.674 85.696C117.386 85.856 117.158 86.076 116.99 86.356C116.83 86.628 116.75 86.936 116.75 87.28V88.24C116.75 88.624 116.83 88.964 116.99 89.26C117.158 89.548 117.386 89.776 117.674 89.944C117.97 90.104 118.31 90.184 118.694 90.184ZM123.077 91V84.64H124.133V89.44L127.421 84.64H128.477V91H127.421V86.2L124.133 91H123.077ZM133.041 91.12C132.505 91.12 132.001 91.004 131.529 90.772C131.065 90.54 130.689 90.184 130.401 89.704C130.121 89.224 129.981 88.616 129.981 87.88V87.64C129.981 86.936 130.117 86.356 130.389 85.9C130.661 85.436 131.021 85.092 131.469 84.868C131.917 84.636 132.401 84.52 132.921 84.52C133.857 84.52 134.581 84.776 135.093 85.288C135.605 85.8 135.861 86.524 135.861 87.46V88.132H131.037C131.037 88.628 131.137 89.024 131.337 89.32C131.545 89.616 131.801 89.832 132.105 89.968C132.417 90.096 132.729 90.16 133.041 90.16C133.521 90.16 133.889 90.08 134.145 89.92C134.409 89.76 134.597 89.54 134.709 89.26H135.741C135.613 89.868 135.297 90.332 134.793 90.652C134.297 90.964 133.713 91.12 133.041 91.12ZM132.981 85.48C132.653 85.48 132.341 85.544 132.045 85.672C131.749 85.792 131.505 85.984 131.313 86.248C131.129 86.512 131.037 86.852 131.037 87.268H134.865C134.857 86.828 134.765 86.48 134.589 86.224C134.421 85.96 134.197 85.772 133.917 85.66C133.637 85.54 133.325 85.48 132.981 85.48ZM137.362 91V84.64H138.49L140.758 88.6L143.026 84.64H144.082V91H143.026V86.38L141.142 89.62H140.302L138.418 86.38V91H137.362ZM148.639 91.12C148.103 91.12 147.599 91.004 147.127 90.772C146.663 90.54 146.287 90.184 145.999 89.704C145.719 89.224 145.579 88.616 145.579 87.88V87.64C145.579 86.936 145.715 86.356 145.987 85.9C146.259 85.436 146.619 85.092 147.067 84.868C147.515 84.636 147.999 84.52 148.519 84.52C149.455 84.52 150.179 84.776 150.691 85.288C151.203 85.8 151.459 86.524 151.459 87.46V88.132H146.635C146.635 88.628 146.735 89.024 146.935 89.32C147.143 89.616 147.399 89.832 147.703 89.968C148.015 90.096 148.327 90.16 148.639 90.16C149.119 90.16 149.487 90.08 149.743 89.92C150.007 89.76 150.195 89.54 150.307 89.26H151.339C151.211 89.868 150.895 90.332 150.391 90.652C149.895 90.964 149.311 91.12 148.639 91.12ZM148.579 85.48C148.251 85.48 147.939 85.544 147.643 85.672C147.347 85.792 147.103 85.984 146.911 86.248C146.727 86.512 146.635 86.852 146.635 87.268H150.463C150.455 86.828 150.363 86.48 150.187 86.224C150.019 85.96 149.795 85.772 149.515 85.66C149.235 85.54 148.923 85.48 148.579 85.48ZM9.24 106.5V104.064H10.02C10.14 103.904 10.244 103.636 10.332 103.26C10.42 102.876 10.488 102.428 10.536 101.916C10.592 101.404 10.62 100.872 10.62 100.32V98.64H15.06V104.064H15.96V106.5H14.952V105H10.248V106.5H9.24ZM11.1 104.064H14.004V99.576H11.652V100.56C11.652 101.232 11.604 101.884 11.508 102.516C11.42 103.14 11.284 103.656 11.1 104.064ZM19.8656 105.12C19.3296 105.12 18.8256 105.004 18.3536 104.772C17.8896 104.532 17.5136 104.172 17.2256 103.692C16.9456 103.212 16.8056 102.608 16.8056 101.88V101.64C16.8056 100.952 16.9456 100.376 17.2256 99.912C17.5136 99.448 17.8896 99.1 18.3536 98.868C18.8256 98.636 19.3296 98.52 19.8656 98.52C20.4096 98.52 20.9136 98.636 21.3776 98.868C21.8416 99.1 22.2136 99.448 22.4936 99.912C22.7816 100.376 22.9256 100.952 22.9256 101.64V101.88C22.9256 102.608 22.7816 103.212 22.4936 103.692C22.2136 104.172 21.8416 104.532 21.3776 104.772C20.9136 105.004 20.4096 105.12 19.8656 105.12ZM19.8656 104.16C20.1936 104.16 20.5056 104.088 20.8016 103.944C21.1056 103.792 21.3536 103.548 21.5456 103.212C21.7456 102.876 21.8456 102.432 21.8456 101.88V101.64C21.8456 101.128 21.7456 100.716 21.5456 100.404C21.3536 100.084 21.1056 99.852 20.8016 99.708C20.5056 99.556 20.1936 99.48 19.8656 99.48C19.5456 99.48 19.2336 99.556 18.9296 99.708C18.6256 99.852 18.3736 100.084 18.1736 100.404C17.9816 100.716 17.8856 101.128 17.8856 101.64V101.88C17.8856 102.432 17.9816 102.876 18.1736 103.212C18.3736 103.548 18.6256 103.792 18.9296 103.944C19.2336 104.088 19.5456 104.16 19.8656 104.16ZM24.4209 105V98.64H25.4769V101.304H26.3169L28.6929 98.64H29.9409L27.1809 101.688L30.0609 105H28.7169L26.3169 102.216H25.4769V105H24.4209ZM32.2805 107.52C32.1605 107.52 32.0405 107.508 31.9205 107.484V106.524C32.0405 106.548 32.1605 106.56 32.2805 106.56C32.4405 106.56 32.5725 106.52 32.6765 106.44C32.7885 106.368 32.9005 106.22 33.0125 105.996C33.1245 105.772 33.2605 105.44 33.4205 105L30.7205 98.64H31.8965L33.9605 103.8L35.8325 98.64H36.9605L34.5605 105C34.3365 105.6 34.1205 106.084 33.9125 106.452C33.7125 106.82 33.4845 107.088 33.2285 107.256C32.9805 107.432 32.6645 107.52 32.2805 107.52ZM38.1553 105V98.64H39.2833L41.5513 102.6L43.8193 98.64H44.8753V105H43.8193V100.38L41.9353 103.62H41.0953L39.2113 100.38V105H38.1553ZM49.432 105.12C48.896 105.12 48.392 105.004 47.92 104.772C47.456 104.54 47.08 104.184 46.792 103.704C46.512 103.224 46.372 102.616 46.372 101.88V101.64C46.372 100.936 46.508 100.356 46.78 99.9C47.052 99.436 47.412 99.092 47.86 98.868C48.308 98.636 48.792 98.52 49.312 98.52C50.248 98.52 50.972 98.776 51.484 99.288C51.996 99.8 52.252 100.524 52.252 101.46V102.132H47.428C47.428 102.628 47.528 103.024 47.728 103.32C47.936 103.616 48.192 103.832 48.496 103.968C48.808 104.096 49.12 104.16 49.432 104.16C49.912 104.16 50.28 104.08 50.536 103.92C50.8 103.76 50.988 103.54 51.1 103.26H52.132C52.004 103.868 51.688 104.332 51.184 104.652C50.688 104.964 50.104 105.12 49.432 105.12ZM49.372 99.48C49.044 99.48 48.732 99.544 48.436 99.672C48.14 99.792 47.896 99.984 47.704 100.248C47.52 100.512 47.428 100.852 47.428 101.268H51.256C51.248 100.828 51.156 100.48 50.98 100.224C50.812 99.96 50.588 99.772 50.308 99.66C50.028 99.54 49.716 99.48 49.372 99.48ZM53.753 105V98.64H54.809V101.292H58.097V98.64H59.153V105H58.097V102.228H54.809V105H53.753ZM62.5292 105V99.576H60.3572V98.64H65.7572V99.576H63.5852V105H62.5292ZM69.4828 105.12C68.9468 105.12 68.4428 105.004 67.9708 104.772C67.5068 104.532 67.1308 104.172 66.8428 103.692C66.5628 103.212 66.4228 102.608 66.4228 101.88V101.64C66.4228 100.952 66.5628 100.376 66.8428 99.912C67.1308 99.448 67.5068 99.1 67.9708 98.868C68.4428 98.636 68.9468 98.52 69.4828 98.52C70.0268 98.52 70.5308 98.636 70.9948 98.868C71.4588 99.1 71.8308 99.448 72.1108 99.912C72.3988 100.376 72.5428 100.952 72.5428 101.64V101.88C72.5428 102.608 72.3988 103.212 72.1108 103.692C71.8308 104.172 71.4588 104.532 70.9948 104.772C70.5308 105.004 70.0268 105.12 69.4828 105.12ZM69.4828 104.16C69.8108 104.16 70.1228 104.088 70.4188 103.944C70.7228 103.792 70.9708 103.548 71.1628 103.212C71.3628 102.876 71.4628 102.432 71.4628 101.88V101.64C71.4628 101.128 71.3628 100.716 71.1628 100.404C70.9708 100.084 70.7228 99.852 70.4188 99.708C70.1228 99.556 69.8108 99.48 69.4828 99.48C69.1628 99.48 68.8508 99.556 68.5468 99.708C68.2428 99.852 67.9908 100.084 67.7908 100.404C67.5988 100.716 67.5028 101.128 67.5028 101.64V101.88C67.5028 102.432 67.5988 102.876 67.7908 103.212C67.9908 103.548 68.2428 103.792 68.5468 103.944C68.8508 104.088 69.1628 104.16 69.4828 104.16ZM74.0381 105V98.64H76.7981C77.3261 98.64 77.7581 98.716 78.0941 98.868C78.4301 99.012 78.6781 99.216 78.8381 99.48C78.9981 99.736 79.0781 100.036 79.0781 100.38C79.0781 100.66 78.9861 100.928 78.8021 101.184C78.6261 101.432 78.3981 101.604 78.1181 101.7C78.5101 101.796 78.8061 101.98 79.0061 102.252C79.2141 102.516 79.3181 102.828 79.3181 103.188C79.3181 103.74 79.1341 104.18 78.7661 104.508C78.3981 104.836 77.8221 105 77.0381 105H74.0381ZM75.0941 104.064H77.0381C77.4861 104.064 77.8021 103.984 77.9861 103.824C78.1701 103.664 78.2621 103.436 78.2621 103.14C78.2621 102.836 78.1701 102.604 77.9861 102.444C77.8021 102.276 77.4861 102.192 77.0381 102.192H75.0941V104.064ZM75.0941 101.328H76.7981C77.2541 101.328 77.5701 101.248 77.7461 101.088C77.9301 100.928 78.0221 100.708 78.0221 100.428C78.0221 100.164 77.9301 99.956 77.7461 99.804C77.5701 99.652 77.2541 99.576 76.7981 99.576H75.0941V101.328ZM88.4678 105V98.64H89.5238V103.44L92.8118 98.64H93.8678V105H92.8118V100.2L89.5238 105H88.4678ZM103.437 105V98.64H107.757V99.576H104.493V105H103.437ZM108.956 107.4V98.64H109.94V99.84C110.156 99.416 110.456 99.092 110.84 98.868C111.232 98.636 111.684 98.52 112.196 98.52C112.996 98.52 113.636 98.784 114.116 99.312C114.596 99.832 114.836 100.608 114.836 101.64V101.88C114.836 102.6 114.724 103.2 114.5 103.68C114.284 104.16 113.976 104.52 113.576 104.76C113.184 105 112.724 105.12 112.196 105.12C111.652 105.12 111.196 105 110.828 104.76C110.468 104.52 110.196 104.22 110.012 103.86V107.4H108.956ZM111.956 104.184C112.476 104.184 112.908 103.988 113.252 103.596C113.604 103.204 113.78 102.632 113.78 101.88V101.64C113.78 100.944 113.604 100.408 113.252 100.032C112.908 99.648 112.476 99.456 111.956 99.456C111.572 99.456 111.232 99.536 110.936 99.696C110.648 99.856 110.42 100.076 110.252 100.356C110.092 100.628 110.012 100.936 110.012 101.28V102.24C110.012 102.624 110.092 102.964 110.252 103.26C110.42 103.548 110.648 103.776 110.936 103.944C111.232 104.104 111.572 104.184 111.956 104.184ZM118.151 105.12C117.687 105.12 117.291 105.036 116.963 104.868C116.643 104.692 116.399 104.456 116.231 104.16C116.063 103.856 115.979 103.516 115.979 103.14C115.979 102.508 116.163 102.052 116.531 101.772C116.907 101.492 117.443 101.352 118.139 101.352H120.203V100.92C120.203 100.376 120.079 100 119.831 99.792C119.591 99.584 119.227 99.48 118.739 99.48C118.283 99.48 117.951 99.568 117.743 99.744C117.535 99.912 117.419 100.104 117.395 100.32H116.339C116.363 99.976 116.479 99.672 116.687 99.408C116.895 99.136 117.179 98.92 117.539 98.76C117.899 98.6 118.319 98.52 118.799 98.52C119.303 98.52 119.739 98.6 120.107 98.76C120.475 98.912 120.759 99.156 120.959 99.492C121.159 99.82 121.259 100.256 121.259 100.8V103.38C121.259 103.716 121.259 104.012 121.259 104.268C121.267 104.516 121.287 104.76 121.319 105H120.395C120.371 104.816 120.355 104.644 120.347 104.484C120.339 104.316 120.335 104.128 120.335 103.92C120.167 104.256 119.895 104.54 119.519 104.772C119.143 105.004 118.687 105.12 118.151 105.12ZM118.379 104.16C118.715 104.16 119.019 104.1 119.291 103.98C119.571 103.86 119.791 103.684 119.951 103.452C120.119 103.22 120.203 102.936 120.203 102.6V102.168H118.319C117.927 102.168 117.619 102.248 117.395 102.408C117.171 102.56 117.059 102.804 117.059 103.14C117.059 103.436 117.163 103.68 117.371 103.872C117.587 104.064 117.923 104.16 118.379 104.16ZM126.076 107.4V105.12C124.972 105.12 124.132 104.84 123.556 104.28C122.988 103.72 122.704 102.924 122.704 101.892V101.652C122.704 100.668 122.988 99.9 123.556 99.348C124.132 98.796 124.972 98.52 126.076 98.52V96.6H127.132V98.52C128.236 98.52 129.072 98.796 129.64 99.348C130.216 99.9 130.504 100.668 130.504 101.652V101.892C130.504 102.924 130.216 103.72 129.64 104.28C129.072 104.84 128.236 105.12 127.132 105.12V107.4H126.076ZM129.424 101.892V101.652C129.424 100.924 129.236 100.38 128.86 100.02C128.492 99.66 127.912 99.48 127.12 99.48V104.16C127.912 104.16 128.492 103.976 128.86 103.608C129.236 103.24 129.424 102.668 129.424 101.892ZM123.784 101.652V101.892C123.784 102.668 123.968 103.24 124.336 103.608C124.712 103.976 125.296 104.16 126.088 104.16V99.48C125.296 99.48 124.712 99.66 124.336 100.02C123.968 100.38 123.784 100.924 123.784 101.652ZM132.007 105V98.64H133.063V103.44L136.351 98.64H137.407V105H136.351V100.2L133.063 105H132.007ZM139.331 105V98.64H140.387V101.304H141.227L143.603 98.64H144.851L142.091 101.688L144.971 105H143.627L141.227 102.216H140.387V105H139.331ZM148.639 105.12C148.103 105.12 147.599 105.004 147.127 104.772C146.663 104.54 146.287 104.184 145.999 103.704C145.719 103.224 145.579 102.616 145.579 101.88V101.64C145.579 100.936 145.715 100.356 145.987 99.9C146.259 99.436 146.619 99.092 147.067 98.868C147.515 98.636 147.999 98.52 148.519 98.52C149.455 98.52 150.179 98.776 150.691 99.288C151.203 99.8 151.459 100.524 151.459 101.46V102.132H146.635C146.635 102.628 146.735 103.024 146.935 103.32C147.143 103.616 147.399 103.832 147.703 103.968C148.015 104.096 148.327 104.16 148.639 104.16C149.119 104.16 149.487 104.08 149.743 103.92C150.007 103.76 150.195 103.54 150.307 103.26H151.339C151.211 103.868 150.895 104.332 150.391 104.652C149.895 104.964 149.311 105.12 148.639 105.12ZM148.579 99.48C148.251 99.48 147.939 99.544 147.643 99.672C147.347 99.792 147.103 99.984 146.911 100.248C146.727 100.512 146.635 100.852 146.635 101.268H150.463C150.455 100.828 150.363 100.48 150.187 100.224C150.019 99.96 149.795 99.772 149.515 99.66C149.235 99.54 148.923 99.48 148.579 99.48ZM9.96 121.4V112.64H10.944V113.84C11.16 113.416 11.46 113.092 11.844 112.868C12.236 112.636 12.688 112.52 13.2 112.52C14 112.52 14.64 112.784 15.12 113.312C15.6 113.832 15.84 114.608 15.84 115.64V115.88C15.84 116.6 15.728 117.2 15.504 117.68C15.288 118.16 14.98 118.52 14.58 118.76C14.188 119 13.728 119.12 13.2 119.12C12.656 119.12 12.2 119 11.832 118.76C11.472 118.52 11.2 118.22 11.016 117.86V121.4H9.96ZM12.96 118.184C13.48 118.184 13.912 117.988 14.256 117.596C14.608 117.204 14.784 116.632 14.784 115.88V115.64C14.784 114.944 14.608 114.408 14.256 114.032C13.912 113.648 13.48 113.456 12.96 113.456C12.576 113.456 12.236 113.536 11.94 113.696C11.652 113.856 11.424 114.076 11.256 114.356C11.096 114.628 11.016 114.936 11.016 115.28V116.24C11.016 116.624 11.096 116.964 11.256 117.26C11.424 117.548 11.652 117.776 11.94 117.944C12.236 118.104 12.576 118.184 12.96 118.184ZM19.1548 119.12C18.6908 119.12 18.2948 119.036 17.9668 118.868C17.6468 118.692 17.4028 118.456 17.2348 118.16C17.0668 117.856 16.9828 117.516 16.9828 117.14C16.9828 116.508 17.1668 116.052 17.5348 115.772C17.9108 115.492 18.4468 115.352 19.1428 115.352H21.2068V114.92C21.2068 114.376 21.0828 114 20.8348 113.792C20.5948 113.584 20.2308 113.48 19.7428 113.48C19.2868 113.48 18.9548 113.568 18.7468 113.744C18.5388 113.912 18.4228 114.104 18.3988 114.32H17.3428C17.3668 113.976 17.4828 113.672 17.6908 113.408C17.8988 113.136 18.1828 112.92 18.5428 112.76C18.9028 112.6 19.3228 112.52 19.8028 112.52C20.3068 112.52 20.7428 112.6 21.1108 112.76C21.4788 112.912 21.7628 113.156 21.9628 113.492C22.1628 113.82 22.2628 114.256 22.2628 114.8V117.38C22.2628 117.716 22.2628 118.012 22.2628 118.268C22.2708 118.516 22.2908 118.76 22.3228 119H21.3988C21.3748 118.816 21.3588 118.644 21.3508 118.484C21.3428 118.316 21.3388 118.128 21.3388 117.92C21.1708 118.256 20.8988 118.54 20.5228 118.772C20.1468 119.004 19.6908 119.12 19.1548 119.12ZM19.3828 118.16C19.7188 118.16 20.0228 118.1 20.2948 117.98C20.5748 117.86 20.7948 117.684 20.9548 117.452C21.1228 117.22 21.2068 116.936 21.2068 116.6V116.168H19.3228C18.9308 116.168 18.6228 116.248 18.3988 116.408C18.1748 116.56 18.0628 116.804 18.0628 117.14C18.0628 117.436 18.1668 117.68 18.3748 117.872C18.5908 118.064 18.9268 118.16 19.3828 118.16ZM26.768 119.12C26.208 119.12 25.7 118.98 25.244 118.7C24.796 118.412 24.436 118 24.164 117.464C23.9 116.928 23.768 116.28 23.768 115.52V115.28C23.768 114.32 23.864 113.5 24.056 112.82C24.256 112.14 24.592 111.612 25.064 111.236C25.536 110.852 26.184 110.64 27.008 110.6C27.344 110.584 27.652 110.572 27.932 110.564C28.212 110.548 28.464 110.524 28.688 110.492C28.912 110.452 29.112 110.388 29.288 110.3V111.32C29.208 111.368 29.076 111.408 28.892 111.44C28.716 111.472 28.488 111.5 28.208 111.524C27.928 111.54 27.588 111.556 27.188 111.572C26.676 111.58 26.244 111.664 25.892 111.824C25.548 111.984 25.28 112.24 25.088 112.592C24.896 112.944 24.776 113.42 24.728 114.02C24.856 113.732 25.032 113.488 25.256 113.288C25.48 113.08 25.74 112.92 26.036 112.808C26.332 112.696 26.656 112.64 27.008 112.64C27.552 112.64 28.028 112.76 28.436 113C28.852 113.24 29.176 113.584 29.408 114.032C29.648 114.48 29.768 115.016 29.768 115.64V115.88C29.768 116.536 29.636 117.108 29.372 117.596C29.116 118.076 28.76 118.452 28.304 118.724C27.856 118.988 27.344 119.12 26.768 119.12ZM26.768 118.16C27.328 118.16 27.788 117.968 28.148 117.584C28.508 117.192 28.688 116.624 28.688 115.88V115.64C28.688 115.024 28.508 114.532 28.148 114.164C27.788 113.788 27.328 113.6 26.768 113.6C26.208 113.6 25.748 113.788 25.388 114.164C25.028 114.532 24.848 115.024 24.848 115.64V115.88C24.848 116.352 24.932 116.76 25.1 117.104C25.276 117.44 25.508 117.7 25.796 117.884C26.092 118.068 26.416 118.16 26.768 118.16ZM33.9047 119.12C33.3687 119.12 32.8647 119.004 32.3927 118.772C31.9287 118.532 31.5527 118.172 31.2647 117.692C30.9847 117.212 30.8447 116.608 30.8447 115.88V115.64C30.8447 114.952 30.9847 114.376 31.2647 113.912C31.5527 113.448 31.9287 113.1 32.3927 112.868C32.8647 112.636 33.3687 112.52 33.9047 112.52C34.4487 112.52 34.9527 112.636 35.4167 112.868C35.8807 113.1 36.2527 113.448 36.5327 113.912C36.8207 114.376 36.9647 114.952 36.9647 115.64V115.88C36.9647 116.608 36.8207 117.212 36.5327 117.692C36.2527 118.172 35.8807 118.532 35.4167 118.772C34.9527 119.004 34.4487 119.12 33.9047 119.12ZM33.9047 118.16C34.2327 118.16 34.5447 118.088 34.8407 117.944C35.1447 117.792 35.3927 117.548 35.5847 117.212C35.7847 116.876 35.8847 116.432 35.8847 115.88V115.64C35.8847 115.128 35.7847 114.716 35.5847 114.404C35.3927 114.084 35.1447 113.852 34.8407 113.708C34.5447 113.556 34.2327 113.48 33.9047 113.48C33.5847 113.48 33.2727 113.556 32.9687 113.708C32.6647 113.852 32.4127 114.084 32.2127 114.404C32.0207 114.716 31.9247 115.128 31.9247 115.64V115.88C31.9247 116.432 32.0207 116.876 32.2127 117.212C32.4127 117.548 32.6647 117.792 32.9687 117.944C33.2727 118.088 33.5847 118.16 33.9047 118.16ZM39.7948 119V113.576H37.6228V112.64H43.0228V113.576H40.8508V119H39.7948ZM44.2256 119V112.64H45.2816V115.04H46.5656C47.3656 115.04 47.9536 115.216 48.3296 115.568C48.7136 115.92 48.9056 116.408 48.9056 117.032C48.9056 117.432 48.8216 117.78 48.6536 118.076C48.4856 118.372 48.2296 118.6 47.8856 118.76C47.5416 118.92 47.1016 119 46.5656 119H44.2256ZM45.2816 118.064H46.5056C47.0016 118.064 47.3496 117.976 47.5496 117.8C47.7496 117.624 47.8496 117.364 47.8496 117.02C47.8496 116.676 47.7496 116.416 47.5496 116.24C47.3496 116.064 47.0016 115.976 46.5056 115.976H45.2816V118.064ZM49.8896 119V112.64H50.9456V119H49.8896ZM57.8033 119.12C57.3393 119.12 56.9433 119.036 56.6152 118.868C56.2953 118.692 56.0513 118.456 55.8833 118.16C55.7153 117.856 55.6313 117.516 55.6313 117.14C55.6313 116.508 55.8153 116.052 56.1833 115.772C56.5593 115.492 57.0953 115.352 57.7913 115.352H59.8553V114.92C59.8553 114.376 59.7313 114 59.4833 113.792C59.2433 113.584 58.8793 113.48 58.3913 113.48C57.9353 113.48 57.6033 113.568 57.3953 113.744C57.1873 113.912 57.0713 114.104 57.0473 114.32H55.9913C56.0153 113.976 56.1313 113.672 56.3393 113.408C56.5473 113.136 56.8313 112.92 57.1913 112.76C57.5513 112.6 57.9713 112.52 58.4513 112.52C58.9553 112.52 59.3913 112.6 59.7593 112.76C60.1273 112.912 60.4113 113.156 60.6113 113.492C60.8113 113.82 60.9113 114.256 60.9113 114.8V117.38C60.9113 117.716 60.9113 118.012 60.9113 118.268C60.9193 118.516 60.9393 118.76 60.9713 119H60.0473C60.0233 118.816 60.0073 118.644 59.9993 118.484C59.9913 118.316 59.9873 118.128 59.9873 117.92C59.8193 118.256 59.5473 118.54 59.1713 118.772C58.7953 119.004 58.3393 119.12 57.8033 119.12ZM58.0312 118.16C58.3673 118.16 58.6713 118.1 58.9433 117.98C59.2233 117.86 59.4433 117.684 59.6033 117.452C59.7713 117.22 59.8553 116.936 59.8553 116.6V116.168H57.9713C57.5793 116.168 57.2713 116.248 57.0473 116.408C56.8233 116.56 56.7113 116.804 56.7113 117.14C56.7113 117.436 56.8153 117.68 57.0233 117.872C57.2393 118.064 57.5753 118.16 58.0312 118.16ZM62.7764 121.4V112.64H63.7604V113.84C63.9764 113.416 64.2764 113.092 64.6604 112.868C65.0524 112.636 65.5044 112.52 66.0164 112.52C66.8164 112.52 67.4564 112.784 67.9364 113.312C68.4164 113.832 68.6564 114.608 68.6564 115.64V115.88C68.6564 116.6 68.5444 117.2 68.3204 117.68C68.1044 118.16 67.7964 118.52 67.3964 118.76C67.0044 119 66.5444 119.12 66.0164 119.12C65.4724 119.12 65.0164 119 64.6484 118.76C64.2884 118.52 64.0164 118.22 63.8324 117.86V121.4H62.7764ZM65.7764 118.184C66.2964 118.184 66.7284 117.988 67.0724 117.596C67.4244 117.204 67.6004 116.632 67.6004 115.88V115.64C67.6004 114.944 67.4244 114.408 67.0724 114.032C66.7284 113.648 66.2964 113.456 65.7764 113.456C65.3924 113.456 65.0524 113.536 64.7564 113.696C64.4684 113.856 64.2404 114.076 64.0724 114.356C63.9124 114.628 63.8324 114.936 63.8324 115.28V116.24C63.8324 116.624 63.9124 116.964 64.0724 117.26C64.2404 117.548 64.4684 117.776 64.7564 117.944C65.0524 118.104 65.3924 118.184 65.7764 118.184ZM69.2648 119L71.6528 115.772L69.3848 112.64H70.6088L72.2888 114.956L73.9688 112.64H75.1448L72.8768 115.712L75.2648 119H74.0168L72.2408 116.516L70.4648 119H69.2648ZM76.5225 119V112.64H77.5785V117.44L80.8665 112.64H81.9225V119H80.8665V114.2L77.5785 119H76.5225ZM83.8467 119V112.64H86.6067C87.1347 112.64 87.5667 112.716 87.9027 112.868C88.2387 113.012 88.4867 113.216 88.6467 113.48C88.8067 113.736 88.8867 114.036 88.8867 114.38C88.8867 114.66 88.7947 114.928 88.6107 115.184C88.4347 115.432 88.2067 115.604 87.9267 115.7C88.3187 115.796 88.6147 115.98 88.8147 116.252C89.0227 116.516 89.1267 116.828 89.1267 117.188C89.1267 117.74 88.9427 118.18 88.5747 118.508C88.2067 118.836 87.6307 119 86.8467 119H83.8467ZM84.9027 118.064H86.8467C87.2947 118.064 87.6107 117.984 87.7947 117.824C87.9787 117.664 88.0707 117.436 88.0707 117.14C88.0707 116.836 87.9787 116.604 87.7947 116.444C87.6107 116.276 87.2947 116.192 86.8467 116.192H84.9027V118.064ZM84.9027 115.328H86.6067C87.0627 115.328 87.3787 115.248 87.5547 115.088C87.7387 114.928 87.8307 114.708 87.8307 114.428C87.8307 114.164 87.7387 113.956 87.5547 113.804C87.3787 113.652 87.0627 113.576 86.6067 113.576H84.9027V115.328ZM92.4439 119.12C91.9799 119.12 91.5839 119.036 91.2559 118.868C90.9359 118.692 90.6919 118.456 90.5239 118.16C90.3559 117.856 90.2719 117.516 90.2719 117.14C90.2719 116.508 90.4559 116.052 90.8239 115.772C91.1999 115.492 91.7359 115.352 92.4319 115.352H94.4959V114.92C94.4959 114.376 94.3719 114 94.1239 113.792C93.8839 113.584 93.5199 113.48 93.0319 113.48C92.5759 113.48 92.2439 113.568 92.0359 113.744C91.8279 113.912 91.7119 114.104 91.6879 114.32H90.6319C90.6559 113.976 90.7719 113.672 90.9799 113.408C91.1879 113.136 91.4719 112.92 91.8319 112.76C92.1919 112.6 92.6119 112.52 93.0919 112.52C93.5959 112.52 94.0319 112.6 94.3999 112.76C94.7679 112.912 95.0519 113.156 95.2519 113.492C95.4519 113.82 95.5519 114.256 95.5519 114.8V117.38C95.5519 117.716 95.5519 118.012 95.5519 118.268C95.5599 118.516 95.5799 118.76 95.6119 119H94.6879C94.6639 118.816 94.6479 118.644 94.6399 118.484C94.6319 118.316 94.6279 118.128 94.6279 117.92C94.4599 118.256 94.1879 118.54 93.8119 118.772C93.4359 119.004 92.9799 119.12 92.4439 119.12ZM92.6719 118.16C93.0079 118.16 93.3119 118.1 93.5839 117.98C93.8639 117.86 94.0839 117.684 94.2439 117.452C94.4119 117.22 94.4959 116.936 94.4959 116.6V116.168H92.6119C92.2199 116.168 91.9119 116.248 91.6879 116.408C91.4639 116.56 91.3519 116.804 91.3519 117.14C91.3519 117.436 91.4559 117.68 91.6639 117.872C91.8799 118.064 92.2159 118.16 92.6719 118.16ZM98.257 119.12C98.105 119.12 97.965 119.08 97.837 119C97.709 118.928 97.605 118.828 97.525 118.7C97.453 118.572 97.417 118.432 97.417 118.28C97.417 118.04 97.497 117.84 97.657 117.68C97.825 117.52 98.025 117.44 98.257 117.44C98.489 117.44 98.685 117.52 98.845 117.68C99.013 117.84 99.097 118.04 99.097 118.28C99.097 118.432 99.057 118.572 98.977 118.7C98.905 118.828 98.805 118.928 98.677 119C98.557 119.08 98.417 119.12 98.257 119.12Z" fill="white"/>
</svg>
